<svg width="18" height="18" viewBox="0 0 18 18" fill="none" xmlns="http://www.w3.org/2000/svg">
<path fill-rule="evenodd" clip-rule="evenodd" d="M0.666626 9.00002C0.666626 4.39752 4.39746 0.666687 8.99996 0.666687C13.6025 0.666687 17.3333 4.39752 17.3333 9.00002C17.3333 13.6025 13.6025 17.3334 8.99996 17.3334C4.39746 17.3334 0.666626 13.6025 0.666626 9.00002ZM8.99996 2.33335C7.23185 2.33335 5.53616 3.03573 4.28591 4.28597C3.03567 5.53622 2.33329 7.23191 2.33329 9.00002C2.33329 10.7681 3.03567 12.4638 4.28591 13.7141C5.53616 14.9643 7.23185 15.6667 8.99996 15.6667C10.7681 15.6667 12.4638 14.9643 13.714 13.7141C14.9642 12.4638 15.6666 10.7681 15.6666 9.00002C15.6666 7.23191 14.9642 5.53622 13.714 4.28597C12.4638 3.03573 10.7681 2.33335 8.99996 2.33335Z" fill="#1C1C1E" fill-opacity="0.7"/>
<path fill-rule="evenodd" clip-rule="evenodd" d="M9.83333 4.83333C9.83333 4.61232 9.74554 4.40036 9.58926 4.24408C9.43297 4.0878 9.22101 4 9 4C8.77899 4 8.56702 4.0878 8.41074 4.24408C8.25446 4.40036 8.16667 4.61232 8.16667 4.83333V8.16667H4.83333C4.61232 8.16667 4.40036 8.25446 4.24408 8.41074C4.0878 8.56702 4 8.77899 4 9C4 9.22101 4.0878 9.43297 4.24408 9.58926C4.40036 9.74554 4.61232 9.83333 4.83333 9.83333H8.16667V13.1667C8.16667 13.3877 8.25446 13.5996 8.41074 13.7559C8.56702 13.9122 8.77899 14 9 14C9.22101 14 9.43297 13.9122 9.58926 13.7559C9.74554 13.5996 9.83333 13.3877 9.83333 13.1667V9.83333H13.1667C13.3877 9.83333 13.5996 9.74554 13.7559 9.58926C13.9122 9.43297 14 9.22101 14 9C14 8.77899 13.9122 8.56702 13.7559 8.41074C13.5996 8.25446 13.3877 8.16667 13.1667 8.16667H9.83333V4.83333Z" fill="#1C1C1E" fill-opacity="0.7"/>
</svg>
