<svg width="33" height="28" viewBox="0 0 33 28" fill="none" xmlns="http://www.w3.org/2000/svg">
<circle cx="12" cy="8" r="4" stroke="#4F23F1" stroke-width="2"/>
<path d="M5 22C5 18.134 8.13401 15 12 15C15.866 15 19 18.134 19 22V26H5V22Z" stroke="#4F23F1" stroke-width="2"/>
<path fill-rule="evenodd" clip-rule="evenodd" d="M16 20.5C16 18.5109 16.7902 16.6032 18.1967 15.1967C19.6032 13.7902 21.5109 13 23.5 13C25.4891 13 27.3968 13.7902 28.8033 15.1967C30.2098 16.6032 31 18.5109 31 20.5C31 22.4891 30.2098 24.3968 28.8033 25.8033C27.3968 27.2098 25.4891 28 23.5 28C21.5109 28 19.6032 27.2098 18.1967 25.8033C16.7902 24.3968 16 22.4891 16 20.5ZM23.072 23.71L27.39 18.312L26.61 17.688L22.928 22.289L20.32 20.116L19.68 20.884L23.072 23.711V23.71Z" fill="#4F23F1"/>
</svg>
