<svg width="25" height="25" viewBox="0 0 25 25" fill="none" xmlns="http://www.w3.org/2000/svg">
<path d="M21.9858 17.02L19.8535 13.0833V8.98438C19.8535 4.89194 16.5241 1.5625 12.4316 1.5625C8.33919 1.5625 5.00975 4.89194 5.00975 8.98438V13.0833L2.87733 17.0199C2.78062 17.1984 2.73195 17.399 2.73608 17.602C2.74021 17.8049 2.797 18.0034 2.90089 18.1778C3.00477 18.3522 3.15219 18.4966 3.32869 18.597C3.5052 18.6973 3.70473 18.75 3.90775 18.75H8.15262C8.14078 18.8799 8.1348 19.0102 8.1347 19.1406C8.1347 20.2802 8.58741 21.3732 9.39323 22.179C10.199 22.9848 11.292 23.4375 12.4316 23.4375C13.5712 23.4375 14.6641 22.9848 15.4699 22.179C16.2757 21.3732 16.7284 20.2802 16.7284 19.1406C16.7284 19.0088 16.7222 18.8787 16.7105 18.75H20.9554C21.1584 18.75 21.3579 18.6972 21.5344 18.5969C21.7109 18.4966 21.8583 18.3521 21.9621 18.1777C22.066 18.0033 22.1228 17.8049 22.1269 17.602C22.131 17.399 22.0824 17.1985 21.9857 17.02H21.9858ZM15.166 19.1406C15.1663 19.5164 15.0892 19.8882 14.9394 20.2328C14.7896 20.5774 14.5704 20.8875 14.2954 21.1436C14.0205 21.3998 13.6957 21.5965 13.3413 21.7215C12.9869 21.8465 12.6106 21.8971 12.2358 21.8702C11.861 21.8433 11.4958 21.7394 11.1629 21.5651C10.83 21.3907 10.5367 21.1496 10.3011 20.8568C10.0656 20.564 9.8929 20.2259 9.79389 19.8634C9.69487 19.5009 9.67163 19.1219 9.72562 18.75H15.1376C15.1564 18.8794 15.1659 19.0099 15.166 19.1406ZM4.56356 17.1875L6.57225 13.4792V8.98438C6.57225 7.43037 7.18957 5.94002 8.28842 4.84117C9.38727 3.74233 10.8776 3.125 12.4316 3.125C13.9856 3.125 15.476 3.74233 16.5748 4.84117C17.6737 5.94002 18.291 7.43037 18.291 8.98438V13.4792L20.2996 17.1875H4.56356Z" fill="#1C1C1E" stroke="#1C1C1E" stroke-width="0.5"/>
<circle cx="19" cy="7" r="5" fill="#4F23F1"/>
</svg>
