<svg width="49" height="49" viewBox="0 0 49 49" fill="none" xmlns="http://www.w3.org/2000/svg">
<g clip-path="url(#clip0_271_8119)">
<path fill-rule="evenodd" clip-rule="evenodd" d="M25.5697 7.86449L7.17943 23.7293C7.12022 23.7803 7.04774 23.7405 7.01711 23.6415C6.98649 23.5424 7.00997 23.421 7.06918 23.3699L25.5167 7.45616C25.5534 7.42451 25.5963 7.42655 25.631 7.45922L41.9347 22.8309C41.9929 22.8861 42.0133 23.0096 41.9807 23.1066C41.949 23.2035 41.8755 23.2382 41.8173 23.1831L25.5697 7.86449Z" fill="#909090"/>
<path fill-rule="evenodd" clip-rule="evenodd" d="M25.6312 7.64809L8.37909 22.4931C8.36684 22.5043 8.34744 22.5022 8.33621 22.49C8.326 22.4777 8.32703 22.4583 8.3403 22.4471L25.6128 7.5848C25.624 7.57459 25.6414 7.57561 25.6526 7.58582L42.0166 23.1107C42.0288 23.1219 42.0298 23.1403 42.0186 23.1525C42.0064 23.1648 41.988 23.1658 41.9757 23.1535L25.6312 7.64809Z" fill="#DDDDDD"/>
<path fill-rule="evenodd" clip-rule="evenodd" d="M26.5356 7.69812L25.7761 7.22241L25.0942 8.41679C24.9697 8.63525 25.0391 8.91291 25.2524 9.04562C25.3515 9.10789 25.4719 9.12627 25.5852 9.09768C25.6985 9.0691 25.7955 8.9956 25.8537 8.89352C26.1212 8.42495 26.5356 7.69812 26.5356 7.69812Z" fill="#5A5A5A"/>
<path d="M27.4512 7.68484C27.4257 7.72669 27.392 7.76549 27.3512 7.80019C27.3103 7.8349 27.2623 7.86655 27.2082 7.89309C27.1541 7.91963 27.0939 7.94209 27.0286 7.96047C26.9632 7.97782 26.8938 7.99109 26.8193 7.99926C26.7448 8.00742 26.6682 8.01049 26.5886 8.00844C26.508 8.0064 26.4263 7.99926 26.3436 7.98701C26.2609 7.97476 26.1782 7.95842 26.0966 7.93597C26.0139 7.91453 25.9332 7.88901 25.8546 7.85838C25.776 7.82776 25.7005 7.79407 25.628 7.7563C25.5555 7.71751 25.4881 7.67667 25.4259 7.63278C25.3626 7.58888 25.3054 7.54294 25.2544 7.49394C25.2033 7.44597 25.1594 7.39594 25.1217 7.3449C25.0849 7.29386 25.0553 7.24282 25.0328 7.19076C25.0114 7.13972 24.9971 7.08867 24.991 7.03865C24.9849 6.98863 24.9869 6.93963 24.9971 6.89267C25.0073 6.84572 25.0257 6.80182 25.0512 6.75997C25.0778 6.71811 25.1115 6.68034 25.1523 6.64461C25.1931 6.6099 25.2401 6.57928 25.2952 6.55172C25.3493 6.52517 25.4085 6.50272 25.4738 6.48434C25.5402 6.46699 25.6096 6.45372 25.6841 6.44555C25.7576 6.43738 25.8352 6.43534 25.9148 6.43738C25.9945 6.43942 26.0761 6.44657 26.1588 6.4578C26.2415 6.47005 26.3242 6.4874 26.4069 6.50884C26.4896 6.53028 26.5702 6.55682 26.6488 6.58642C26.7274 6.61705 26.803 6.65074 26.8755 6.68953C26.9469 6.7273 27.0153 6.76813 27.0776 6.81203C27.1409 6.85592 27.197 6.90186 27.2481 6.95086C27.2991 6.99884 27.344 7.04886 27.3808 7.0999C27.4185 7.15094 27.4481 7.20199 27.4696 7.25405C27.492 7.30509 27.5063 7.35613 27.5125 7.40615C27.5186 7.45617 27.5165 7.50517 27.5063 7.55213C27.4961 7.59909 27.4777 7.64299 27.4512 7.68484Z" fill="#5A5A5A"/>
<path d="M26.8388 7.44903C26.8133 7.48986 26.7735 7.52457 26.7204 7.55111C26.6663 7.57765 26.603 7.59501 26.5295 7.60317C26.456 7.61032 26.3784 7.60828 26.2967 7.59705C26.2151 7.5848 26.1344 7.56336 26.0568 7.53376C25.9792 7.50415 25.9088 7.4674 25.8465 7.42351C25.7843 7.37961 25.7353 7.33265 25.6985 7.28263C25.6607 7.23159 25.6393 7.18157 25.6332 7.13257C25.6281 7.08255 25.6373 7.03661 25.6638 6.99578C25.6893 6.95494 25.7291 6.92024 25.7822 6.89369C25.8363 6.86715 25.8996 6.8498 25.9731 6.84163C26.0466 6.83346 26.1242 6.83551 26.2059 6.84776C26.2875 6.86001 26.3682 6.88042 26.4458 6.91105C26.5234 6.94065 26.5938 6.9774 26.6561 7.0213C26.7183 7.06519 26.7673 7.11215 26.8041 7.16217C26.8419 7.21321 26.8633 7.26324 26.8684 7.31224C26.8745 7.36226 26.8653 7.40717 26.8388 7.44903Z" fill="#6D6D6D"/>
<path fill-rule="evenodd" clip-rule="evenodd" d="M19.7021 36.801H21.5315V36.8163H19.7021V36.801Z" fill="#EBEBEB"/>
<mask id="mask0_271_8119" style="mask-type:luminance" maskUnits="userSpaceOnUse" x="0" y="22" width="49" height="21">
<path d="M0 22.2133H48.8693V42.973H0V22.2133Z" fill="white"/>
</mask>
<g mask="url(#mask0_271_8119)">
<path fill-rule="evenodd" clip-rule="evenodd" d="M48.996 25.5617C48.996 24.6899 48.6499 23.8528 48.0354 23.2362C47.4208 22.6196 46.5858 22.2736 45.7171 22.2736C36.8021 22.2736 12.198 22.2736 3.28409 22.2736C2.41434 22.2736 1.58032 22.6196 0.964755 23.2362C0.350213 23.8528 0.00415039 24.6899 0.00415039 25.5617C0.00415039 29.4306 0.00415039 35.8159 0.00415039 39.6849C0.00415039 40.5567 0.350213 41.3927 0.964755 42.0093C1.58032 42.6259 2.41434 42.973 3.28409 42.973C12.198 42.973 36.8021 42.973 45.7171 42.973C46.5858 42.973 47.4208 42.6259 48.0354 42.0093C48.6499 41.3927 48.996 40.5567 48.996 39.6849C48.996 35.8159 48.996 29.4306 48.996 25.5617Z" fill="#D02424"/>
</g>
<path fill-rule="evenodd" clip-rule="evenodd" d="M47.2094 27.0398C47.2094 25.2238 45.7415 23.7517 43.9305 23.7517H5.06944C3.25849 23.7517 1.79053 25.2238 1.79053 27.0398V38.2078C1.79053 40.0228 3.25849 41.4948 5.06944 41.4948H43.9305C45.7415 41.4948 47.2094 40.0228 47.2094 38.2078V27.0398Z" fill="#DE1D1D"/>
<path fill-rule="evenodd" clip-rule="evenodd" d="M18.5035 34.642C18.5035 34.642 19.2957 37.2472 21.7763 37.0399C21.81 37.0379 21.8427 37.0318 21.8753 37.0246C24.4846 36.3978 25.1716 33.9519 24.3284 31.3845C24.0395 30.5035 23.2882 29.8145 22.4011 29.4909C21.4966 29.1601 20.4656 29.2112 19.6611 29.7665C18.6944 30.4331 17.9737 31.9102 18.4902 34.5879L18.5035 34.642ZM21.616 35.8088C23.4168 35.3453 23.6955 33.5579 23.1054 31.7581C22.9339 31.2365 22.4725 30.8414 21.9468 30.6495C21.4394 30.4637 20.8586 30.4637 20.4063 30.7751C19.6989 31.263 19.3743 32.3819 19.7469 34.3347C19.8102 34.5419 20.2747 35.8874 21.616 35.8088Z" fill="#B60000"/>
<path fill-rule="evenodd" clip-rule="evenodd" d="M13.6679 36.5244C13.6567 34.1561 13.5862 31.6438 13.5913 29.2846L14.8929 29.2877C14.8888 31.3753 14.9429 33.5844 14.9633 35.7067C16.0975 35.7128 17.2643 35.6924 18.3188 35.7322L18.2698 37.0368C16.8172 36.9817 15.1512 37.042 13.6505 36.9858L13.6679 36.5244Z" fill="#B60000"/>
<path fill-rule="evenodd" clip-rule="evenodd" d="M30.2943 31.7346C30.2137 30.7628 29.7227 30.0166 28.9233 29.5664C27.4656 28.7446 25.6383 29.8257 25.4688 31.4488C25.2882 33.1669 26.5438 33.6211 27.88 33.9519C28.1638 34.0234 28.4456 34.0907 28.6937 34.1867C28.8856 34.2602 29.0601 34.3388 29.1622 34.4868C29.2541 34.6185 29.2602 34.8002 29.2153 35.0483C29.1112 35.6118 28.7039 35.917 28.2445 35.9813C27.487 36.0875 26.602 35.5975 26.507 34.5838L25.281 34.6991C25.5699 37.7902 29.9033 38.1006 30.426 35.2729C30.5373 34.6706 30.4403 34.2275 30.2402 33.8866C29.9615 33.4078 29.4409 33.1148 28.811 32.9229C28.3547 32.7841 27.8372 32.6932 27.3911 32.5329C27.1308 32.439 26.8898 32.3349 26.7663 32.1154C26.6898 31.9786 26.6704 31.803 26.6938 31.5774C26.7745 30.8047 27.6248 30.2514 28.32 30.6434C28.759 30.8904 29.0224 31.3039 29.0673 31.8378L30.2943 31.7346Z" fill="#B60000"/>
<path fill-rule="evenodd" clip-rule="evenodd" d="M38.1557 29.3765C39.0265 29.2959 40.0463 29.2081 40.9375 29.3969C41.6663 29.5511 42.3156 29.8818 42.7903 30.4821C43.1343 30.918 43.3671 31.5682 43.4426 32.1124C43.561 32.9668 43.562 34.0489 43.265 34.9564C43.0383 35.6495 42.6433 36.2426 42.0379 36.6204C41.6143 36.8847 41.1253 37.0103 40.5955 37.0573C40.083 37.1032 39.5287 37.0716 38.9734 37.0726L38.7753 37.0746C38.6988 37.0767 38.6212 37.0787 38.5446 37.0828V37.0777L37.8586 37.0848C37.829 34.3378 37.874 31.947 37.8505 29.3786L38.1557 29.3765ZM39.1551 35.7669C39.5073 35.771 39.8574 35.7822 40.1923 35.771C40.618 35.7567 41.0191 35.7149 41.3489 35.5087C41.7919 35.232 42.0053 34.7339 42.1176 34.2C42.2513 33.5619 42.2288 32.8637 42.1502 32.292C42.1043 31.9613 41.9767 31.5601 41.7664 31.2947C41.4081 30.8404 40.865 30.6791 40.2903 30.6189C39.9207 30.5801 39.5379 30.5842 39.1622 30.6056C39.1653 32.3124 39.149 33.9784 39.1551 35.7669Z" fill="#B60000"/>
<path fill-rule="evenodd" clip-rule="evenodd" d="M6.63125 34.1918C6.25456 32.7994 6.521 31.5999 7.09062 30.7097C7.93893 29.3837 9.47427 28.7559 10.7452 29.0938C11.6201 29.3265 12.4122 29.9962 12.7828 31.2681L11.3863 31.6765C11.1933 31.015 10.8269 30.624 10.3716 30.5035C9.64475 30.3096 8.7995 30.7383 8.3146 31.4968C7.93485 32.0909 7.78275 32.8953 8.03897 33.8253L8.04714 33.8621C8.2901 34.9595 8.92404 35.5679 9.64985 35.5924C10.3869 35.6179 11.1107 35.0554 11.4812 34.0346L12.8481 34.5338C12.2152 36.2774 10.8595 37.093 9.59983 37.0501C8.33195 37.0073 7.05897 36.1069 6.63125 34.1918Z" fill="#B60000"/>
<path fill-rule="evenodd" clip-rule="evenodd" d="M31.1904 30.7812L31.1884 30.7822L31.1619 29.3234C32.982 29.2897 34.6347 29.3234 36.6989 29.3132L36.706 30.771C35.2095 30.7791 33.9293 30.7628 32.6451 30.7669C32.6482 31.2365 32.6533 31.6999 32.6594 32.1644C34.0488 32.1491 34.9042 32.1736 36.6989 32.1644L36.706 33.6222C34.9175 33.6324 34.0661 33.6068 32.6809 33.6232C32.6911 34.2438 32.7023 34.8778 32.7135 35.5393C33.9712 35.5362 35.2013 35.5515 36.6989 35.5444L36.706 37.0021C34.6501 37.0134 33.0984 36.9787 31.2844 37.0123L31.2803 36.7776H31.2782C31.2742 36.5101 31.2701 36.2477 31.266 35.9905L31.2578 35.5546H31.2588C31.2303 33.8651 31.2027 32.3533 31.1904 30.7812Z" fill="#B60000"/>
<path fill-rule="evenodd" clip-rule="evenodd" d="M18.0167 34.154C18.0167 34.154 18.8089 36.7592 21.2895 36.553C21.3232 36.5499 21.3569 36.5448 21.3885 36.5366C23.9988 35.9098 24.6848 33.4639 23.8426 30.8965C23.5537 30.0156 22.8013 29.3265 21.9153 29.0029C21.0098 28.6721 19.9798 28.7232 19.1743 29.2785C18.2076 29.9451 17.4869 31.4223 18.0034 34.1009L18.0167 34.154ZM21.1292 35.3208C22.93 34.8584 23.2097 33.0699 22.6186 31.2712C22.4481 30.7485 21.9867 30.3545 21.461 30.1615C20.9526 29.9757 20.3718 29.9757 19.9195 30.2871C19.2121 30.7751 18.8875 31.8939 19.2601 33.8467C19.3234 34.054 19.7878 35.4004 21.1292 35.3208Z" fill="white"/>
<path fill-rule="evenodd" clip-rule="evenodd" d="M13.1811 36.0375C13.1698 33.6691 13.0994 31.1558 13.1045 28.7967L14.4061 28.7998C14.402 30.8884 14.4571 33.0975 14.4765 35.2188C15.6107 35.2259 16.7785 35.2045 17.832 35.2453L17.783 36.5489C16.3314 36.4938 14.6643 36.554 13.1637 36.4989L13.1811 36.0375Z" fill="white"/>
<path fill-rule="evenodd" clip-rule="evenodd" d="M29.8073 31.2467C29.7266 30.2759 29.2356 29.5286 28.4363 29.0784C26.9785 28.2567 25.1512 29.3388 24.9818 30.9609C24.8021 32.6799 26.0567 33.1342 27.393 33.465C27.6768 33.5354 27.9585 33.6028 28.2076 33.6987C28.3995 33.7722 28.5731 33.8519 28.6752 33.9989C28.767 34.1316 28.7742 34.3123 28.7282 34.5603C28.6241 35.1238 28.2178 35.429 27.7574 35.4944C27 35.6005 26.1149 35.1095 26.02 34.0969L24.7939 34.2122C25.0828 37.3023 29.4173 37.6126 29.94 34.7849C30.0512 34.1826 29.9532 33.7396 29.7542 33.3986C29.4745 32.9209 28.9538 32.6269 28.325 32.4349C27.8677 32.2961 27.3501 32.2053 26.905 32.045C26.6437 31.9511 26.4028 31.8469 26.2793 31.6275C26.2037 31.4917 26.1833 31.3161 26.2068 31.0905C26.2884 30.3167 27.1378 29.7634 27.833 30.1554C28.2719 30.4025 28.5353 30.8169 28.5802 31.3498L29.8073 31.2467Z" fill="white"/>
<path fill-rule="evenodd" clip-rule="evenodd" d="M37.6687 28.8886C38.5405 28.8079 39.5593 28.7211 40.4504 28.91C41.1793 29.0641 41.8286 29.3939 42.3033 29.9941C42.6473 30.431 42.88 31.0803 42.9556 31.6254C43.074 32.4798 43.075 33.5609 42.7779 34.4695C42.5523 35.1616 42.1563 35.7547 41.5509 36.1324C41.1273 36.3968 40.6383 36.5223 40.1085 36.5693C39.597 36.6152 39.0417 36.5836 38.4874 36.5856L38.2893 36.5877C38.2118 36.5887 38.1352 36.5918 38.0576 36.5948V36.5897L37.3716 36.5969C37.343 33.8508 37.3869 31.46 37.3645 28.8916L37.6687 28.8886ZM38.6681 35.28C39.0203 35.2831 39.3704 35.2943 39.7063 35.2831C40.1309 35.2688 40.5321 35.2269 40.8618 35.0217C41.3049 34.7451 41.5182 34.2459 41.6305 33.713C41.7643 33.074 41.7418 32.3757 41.6632 31.8051C41.6173 31.4733 41.4897 31.0721 41.2804 30.8067C40.921 30.3524 40.378 30.1922 39.8032 30.1309C39.4347 30.0921 39.0509 30.0962 38.6752 30.1187C38.6793 31.8255 38.6619 33.4905 38.6681 35.28Z" fill="white"/>
<path fill-rule="evenodd" clip-rule="evenodd" d="M6.14443 33.7048C5.76774 32.3124 6.03418 31.1119 6.6038 30.2218C7.45212 28.8957 8.98745 28.2679 10.2584 28.6058C11.1332 28.8396 11.9254 29.5092 12.296 30.7802L10.9005 31.1885C10.7076 30.527 10.3411 30.137 9.88476 30.0156C9.15895 29.8226 8.31268 30.2514 7.82778 31.0088C7.44803 31.6029 7.29695 32.4074 7.55216 33.3373L7.56135 33.3741C7.80328 34.4725 8.43722 35.0809 9.16303 35.1054C9.90007 35.1299 10.6238 34.5675 10.9944 33.5476L12.3613 34.0468C11.7284 35.7894 10.3727 36.605 9.11403 36.5622C7.84514 36.5193 6.57216 35.6199 6.14443 33.7048Z" fill="white"/>
<path fill-rule="evenodd" clip-rule="evenodd" d="M30.7036 30.2942H30.7016L30.675 28.8365C32.4952 28.8018 34.1479 28.8365 36.212 28.8253L36.2202 30.284C34.7227 30.2912 33.4425 30.2759 32.1583 30.2789C32.1624 30.7485 32.1665 31.212 32.1726 31.6775C33.562 31.6611 34.4174 31.6856 36.212 31.6765L36.2202 33.1352C34.4307 33.1444 33.5793 33.1199 32.1951 33.1352C32.2043 33.7569 32.2155 34.3909 32.2267 35.0524C33.4844 35.0483 34.7145 35.0646 36.212 35.0564L36.2202 36.5142C34.1632 36.5254 32.6126 36.4907 30.7986 36.5254L30.7935 36.2896H30.7914C30.7873 36.0221 30.7833 35.7598 30.7792 35.5025L30.771 35.0666H30.772C30.7434 33.3772 30.7169 31.8663 30.7036 30.2942Z" fill="white"/>
</g>
<defs>
<clipPath id="clip0_271_8119">
<rect width="49" height="49" fill="white"/>
</clipPath>
</defs>
</svg>
