<svg xmlns="http://www.w3.org/2000/svg" width="83" height="83" viewBox="0 0 113 113">
  <g id="Group_1992" transform="translate(-53.67 -99)">
    <g id="Layer_45" transform="translate(82.745 127.635)">
      <path id="Path_11981" d="M14.476,13.52v1.913a.956.956,0,0,1-.956.956H11.607a.956.956,0,0,1-.956-.956V13.52a.956.956,0,0,1,.956-.956H13.52A.956.956,0,0,1,14.476,13.52Zm2.869,2.869H28.821a.956.956,0,0,0,.956-.956V13.52a.956.956,0,0,0-.956-.956H17.345a.956.956,0,0,0-.956.956v1.913A.956.956,0,0,0,17.345,16.389ZM13.52,20.214H11.607a.956.956,0,0,0-.956.956v1.913a.956.956,0,0,0,.956.956H13.52a.956.956,0,0,0,.956-.956V21.17A.956.956,0,0,0,13.52,20.214Zm3.825,3.825H28.821a.956.956,0,0,0,.956-.956V21.17a.956.956,0,0,0-.956-.956H17.345a.956.956,0,0,0-.956.956v1.913A.956.956,0,0,0,17.345,24.039ZM13.52,27.865H11.607a.956.956,0,0,0-.956.956v1.913a.956.956,0,0,0,.956.956H13.52a.956.956,0,0,0,.956-.956V28.821A.956.956,0,0,0,13.52,27.865Zm7.651,0H17.345a.956.956,0,0,0-.956.956v1.913a.956.956,0,0,0,.956.956H21.17a.956.956,0,0,0,.956-.956V28.821A.956.956,0,0,0,21.17,27.865Zm30.36-1.276L50.1,25.315a.956.956,0,0,0-1.35.077l-3.9,4.371A13.347,13.347,0,0,0,37.428,26.1V8.738A5.744,5.744,0,0,0,31.69,3H8.738A5.744,5.744,0,0,0,3,8.738V35.515a5.744,5.744,0,0,0,5.738,5.738H22.28a13.38,13.38,0,1,0,24.939-8.4l4.388-4.914A.956.956,0,0,0,51.53,26.589Zm-44.7,8.927V8.738A1.914,1.914,0,0,1,8.738,6.825H31.69A1.914,1.914,0,0,1,33.6,8.738V26.1A13.4,13.4,0,0,0,22.28,37.428H8.738A1.914,1.914,0,0,1,6.825,35.515Zm38.253,3.825A9.585,9.585,0,1,1,42.3,32.616l-5.575,6.243-2.942-3.767a.956.956,0,0,0-1.342-.165L30.937,36.1a.956.956,0,0,0-.165,1.342l4.35,5.571a1.914,1.914,0,0,0,1.444.734c.022,0,.043,0,.063,0a1.915,1.915,0,0,0,1.427-.639l6.379-7.143A9.469,9.469,0,0,1,45.079,39.341Z" transform="translate(0 0)" fill="#4cb643"/>
    </g>
  </g>
</svg>
