<svg xmlns="http://www.w3.org/2000/svg" xmlns:xlink="http://www.w3.org/1999/xlink" width="393" height="399" viewBox="0 0 393 399">
  <defs>
    <style>
      .cls-1 {
        clip-path: url(#clip-My_Store_2);
      }

      .cls-2 {
        fill: #cccccc;
      }
    </style>
    <clipPath id="clip-My_Store_2">
      <rect width="393" height="399"/>
    </clipPath>
  </defs>
  <g id="My_Store_2" class="cls-1">
    <g id="Group_19529" transform="translate(20.024 20)">
      <path id="Path_2625" class="cls-2" d="M174.937,0H78.114C31.1,1.1,15.956,26.314,10.378,42.395A163.667,163.667,0,0,0,3.6,78.211,287.433,287.433,0,0,0,.018,125.356c6.056,30.115,29.884,44.953,41.04,48.608,10.519,5.263,28.821,5.36,36.657,4.751,24.863-3.8,40.908-18.4,45.822-25.217,8.287,11.11,21.25,18.273,26.7,20.466,14.344,6.432,32.8,5.36,40.243,4.02,19.444-3.508,34.4-17.056,39.446-23.39a97.855,97.855,0,0,0,15.938,13.522c18.169,12.865,44.493,11.7,55.385,9.5,24.226-6.432,37.985-21.44,41.837-28.141,11.475-16.08,10.625-39.836,8.766-49.7C349.617,72,345.872,54.09,344.278,48.607,333.122,5.482,294.87,0,273.753,0Z" transform="translate(0)"/>
      <path id="Path_2626" class="cls-2" d="M317.279,233.994c-40.8,13.707-73.314-4.117-84.471-14.743-9.881,9.244-21.383,13.945-25.9,15.141-18.806,5.738-38.384,3.984-45.821,2.391-18.488-4.144-31.344-13.415-35.462-17.532-7.65,6.694-19.125,12.086-23.907,13.945-25.5,9.244-49.142,4.649-57.775,1.2-20.719-4.144-24.305,11.289-23.508,19.524v49.009c0,36.259,22.313,60.166,43.431,72.518,19.444,9.244,34.4,10.493,39.447,9.961,7.65.956,9.828-5.446,9.961-8.766V333.208c-.956-20.082,8.9-35.462,13.945-40.642,13.707-17.85,35.2-21.516,44.228-21.117h15.141c26.138,0,43.032,17,48.212,25.5,7.65,10.519,10.36,28.555,10.758,36.259v43.431c-.637,7.013,5.844,9.032,9.164,9.165a95.693,95.693,0,0,0,19.524-2.391c21.357-5.1,38.119-19.923,43.83-26.7,16.894-19.763,20.852-44.891,20.719-54.985v-51.8C336.246,232.719,323.388,232.135,317.279,233.994Z" transform="translate(-2.486 -26.803)"/>
      <path id="Path_2627" class="cls-2" d="M145.71,334.172v36.856c-.825,8.116,4.7,9.468,7.564,9.13h70.133c5.5-.271,6.417-6.2,6.188-9.13V334.172c-.275-18.665-12.491-29.192-18.565-32.122-20.353-8.656-39.651-3.607-46.756,0C148.6,311.788,145.366,327.522,145.71,334.172Z" transform="translate(-10.984 -21.546)"/>
    </g>
  </g>
</svg>
