<svg width="24"
    height="24"
    viewBox="0 0 24 24"
    fill="none"
    xmlns="http://www.w3.org/2000/svg">
<path d="M9.533 11.15C9.19173 11.4918 9.00003 11.955 9 12.438V15H11.578C12.061 15 12.525 14.808 12.867 14.466L20.467 6.862C20.6362 6.6928 20.7705 6.49193 20.8621 6.27085C20.9537 6.04976 21.0008 5.8128 21.0008 5.5735C21.0008 5.33419 20.9537 5.09723 20.8621 4.87615C20.7705 4.65507 20.6362 4.45419 20.467 4.285L19.716 3.534C19.5468 3.36461 19.3459 3.23024 19.1247 3.13856C18.9035 3.04688 18.6664 2.99969 18.427 2.99969C18.1876 2.99969 17.9505 3.04688 17.7293 3.13856C17.5081 3.23024 17.3072 3.36461 17.138 3.534L9.533 11.15Z" stroke="black" stroke-width="1.5" stroke-linecap="round" stroke-linejoin="round"/>
<path d="M21 12C21 16.243 21 18.364 19.682 19.682C18.364 21 16.242 21 12 21C7.757 21 5.636 21 4.318 19.682C3 18.364 3 16.242 3 12C3 7.757 3 5.636 4.318 4.318C5.636 3 7.758 3 12 3" stroke="black" stroke-width="1.5" stroke-linecap="round" stroke-linejoin="round"/>
</svg>
