<svg xmlns="http://www.w3.org/2000/svg" width="113" height="113" viewBox="0 0 113 113">
  <g id="Group_1992" transform="translate(-54.5 -99)">
    <path id="budget" d="M29.034,14.727H14.494a.8.8,0,1,1,0-1.6h14.54a.8.8,0,0,1,0,1.6Zm-4.262,12.2a1.608,1.608,0,0,1-1.606,1.606H5.468a1.608,1.608,0,0,1-1.606-1.606V23.771a1.608,1.608,0,0,1,1.606-1.606h17.7a1.608,1.608,0,0,1,1.606,1.606v3.158Zm-1.6-3.158-17.7,0h0l0,3.16,17.7,0Zm-12.348,8.6v1.046a1.608,1.608,0,0,1-1.606,1.606H6.207A1.608,1.608,0,0,1,4.6,33.415V32.369a1.608,1.608,0,0,1,1.606-1.606H9.214A1.608,1.608,0,0,1,10.82,32.369Zm-1.6,0-3.009,0h0l0,1.048,3.009,0Zm8.21,0v1.046a1.608,1.608,0,0,1-1.606,1.606H12.813a1.608,1.608,0,0,1-1.606-1.606V32.369a1.608,1.608,0,0,1,1.606-1.606H15.82A1.608,1.608,0,0,1,17.426,32.369Zm-1.6,0-3.009,0h0l0,1.048,3.009,0Zm8.21,0v1.046a1.608,1.608,0,0,1-1.606,1.606H19.42a1.608,1.608,0,0,1-1.606-1.606V32.369a1.608,1.608,0,0,1,1.606-1.606h3.007A1.608,1.608,0,0,1,24.033,32.369Zm-1.6,0-3.009,0h0l0,1.048,3.009,0ZM10.82,38.01v1.046a1.608,1.608,0,0,1-1.606,1.606H6.207A1.608,1.608,0,0,1,4.6,39.056V38.01A1.608,1.608,0,0,1,6.207,36.4H9.214A1.608,1.608,0,0,1,10.82,38.01Zm-1.6,0-3.009,0h0l0,1.048,3.009,0Zm8.21,0v1.046a1.608,1.608,0,0,1-1.606,1.606H12.813a1.608,1.608,0,0,1-1.606-1.606V38.01A1.608,1.608,0,0,1,12.813,36.4H15.82A1.608,1.608,0,0,1,17.426,38.01Zm-1.6,0-3.009,0h0l0,1.048,3.009,0Zm8.21,0v1.046a1.608,1.608,0,0,1-1.606,1.606H19.42a1.608,1.608,0,0,1-1.606-1.606V38.01A1.608,1.608,0,0,1,19.42,36.4h3.007A1.608,1.608,0,0,1,24.033,38.01Zm-1.6,0-3.009,0h0l0,1.048,3.009,0ZM10.82,43.651V44.7A1.608,1.608,0,0,1,9.214,46.3H6.207A1.608,1.608,0,0,1,4.6,44.7V43.651a1.608,1.608,0,0,1,1.606-1.606H9.214A1.608,1.608,0,0,1,10.82,43.651Zm-1.6,0-3.009,0h0l0,1.048,3.009,0Zm8.21,0V44.7A1.608,1.608,0,0,1,15.82,46.3H12.813A1.608,1.608,0,0,1,11.207,44.7V43.651a1.608,1.608,0,0,1,1.606-1.606H15.82A1.608,1.608,0,0,1,17.426,43.651Zm-1.6,0-3.009,0h0l0,1.048,3.009,0Zm8.21,0V44.7A1.608,1.608,0,0,1,22.427,46.3H19.42A1.608,1.608,0,0,1,17.813,44.7V43.651a1.608,1.608,0,0,1,1.606-1.606h3.007A1.608,1.608,0,0,1,24.033,43.651Zm-1.6,0-3.009,0h0l0,1.048,3.009,0Zm28.9-5.658A13.348,13.348,0,0,1,37.993,51.326H4.3a4.306,4.306,0,0,1-4.3-4.3V21.443a4.306,4.306,0,0,1,4.3-4.3H6.708V6.168a.8.8,0,0,1,.8-.8h4.564V.8a.8.8,0,0,1,.8-.8H41.554a.8.8,0,0,1,.567.235L47.666,5.78a.8.8,0,0,1,.235.567V29.082A13.279,13.279,0,0,1,51.326,37.993ZM42.356,5.545h2.807L42.356,2.738ZM13.678,5.366H36.188a.8.8,0,0,1,.567.235L42.3,11.145a.8.8,0,0,1,.235.567V25.458A13.331,13.331,0,0,1,46.3,27.57V7.149H41.554a.8.8,0,0,1-.8-.8V1.6H13.678ZM36.99,10.911H39.8L36.99,8.1ZM8.312,17.142h16.02a4.3,4.3,0,0,1,3.6,1.95h6.818a.8.8,0,0,1,0,1.6H28.567a4.307,4.307,0,0,1,.066.747v3.618h6.11a13.36,13.36,0,0,1,6.188-.074V12.515H36.188a.8.8,0,0,1-.8-.8V6.97H8.312ZM28.633,28.508a13.429,13.429,0,0,1,2.336-1.843H28.633v1.843Zm-4.3,21.214a2.7,2.7,0,0,0,2.7-2.7V45.57a13.3,13.3,0,0,1,0-15.154V21.443a2.681,2.681,0,0,0-.262-1.158c-.01-.018-.019-.037-.028-.056a2.7,2.7,0,0,0-2.408-1.484H4.3a2.7,2.7,0,0,0-2.7,2.7V47.025a2.7,2.7,0,0,0,2.7,2.7Zm7.326,0a13.412,13.412,0,0,1-3.046-2.265,4.281,4.281,0,0,1-.932,2.265ZM49.722,37.993A11.729,11.729,0,1,0,37.993,49.722,11.742,11.742,0,0,0,49.722,37.993Zm-11.59-.826c-2.033-.334-2.073-1.155-2.088-1.464a1.58,1.58,0,0,1,1.4-1.547,2.214,2.214,0,0,1,2.626,1.24.8.8,0,0,0,1.479-.621A3.635,3.635,0,0,0,38.8,32.564v-.626a.8.8,0,1,0-1.6,0v.633l-.1.021a3.151,3.151,0,0,0-2.649,3.189c.054,1.106.692,2.519,3.43,2.969,1.977.325,2.309,1.015,2.378,1.58a1.025,1.025,0,0,1-.237.849,2.716,2.716,0,0,1-1.914.714,2.26,2.26,0,0,1-2.4-1.52.8.8,0,1,0-1.556.388,3.658,3.658,0,0,0,3.046,2.667v.62a.8.8,0,0,0,1.6,0V43.44a3.978,3.978,0,0,0,2.431-1.212,2.628,2.628,0,0,0,.616-2.092C41.55,37.729,38.977,37.306,38.132,37.168Zm10.232.826a10.37,10.37,0,1,1-10.37-10.37A10.382,10.382,0,0,1,48.364,37.993Zm-1.6,0a8.767,8.767,0,1,0-8.767,8.767A8.776,8.776,0,0,0,46.76,37.993Z" transform="translate(85.5 130)" fill="#c3ce1c"/>
  </g>
</svg>
