<svg width="19" height="15" viewBox="0 0 19 15" fill="none" xmlns="http://www.w3.org/2000/svg">
<path d="M6.62498 8.9375C7.26248 8.93734 7.88196 9.14907 8.38599 9.53939C8.89003 9.92971 9.25004 10.4765 9.40942 11.0938H17.4062C17.5858 11.0934 17.7591 11.1603 17.8918 11.2814C18.0245 11.4024 18.1071 11.5687 18.1234 11.7476C18.1396 11.9264 18.0883 12.1049 17.9795 12.2478C17.8707 12.3907 17.7123 12.4878 17.5356 12.5197L17.4062 12.5312L9.40942 12.5327C9.25058 13.1505 8.8908 13.6979 8.38671 14.0888C7.88262 14.4796 7.26286 14.6918 6.62498 14.6918C5.98711 14.6918 5.36734 14.4796 4.86325 14.0888C4.35917 13.6979 3.99939 13.1505 3.84054 12.5327L1.59373 12.5312C1.41412 12.5316 1.2409 12.4647 1.10817 12.3436C0.97544 12.2226 0.892827 12.0563 0.876599 11.8774C0.86037 11.6986 0.911702 11.5201 1.02049 11.3772C1.12927 11.2343 1.28762 11.1372 1.46436 11.1053L1.59373 11.0938H3.84054C3.99992 10.4765 4.35993 9.92971 4.86397 9.53939C5.36801 9.14907 5.98748 8.93734 6.62498 8.9375ZM6.62498 10.375C6.24373 10.375 5.8781 10.5265 5.60852 10.796C5.33893 11.0656 5.18748 11.4313 5.18748 11.8125C5.18748 12.1937 5.33893 12.5594 5.60852 12.829C5.8781 13.0985 6.24373 13.25 6.62498 13.25C7.00623 13.25 7.37186 13.0985 7.64145 12.829C7.91103 12.5594 8.06248 12.1937 8.06248 11.8125C8.06248 11.4313 7.91103 11.0656 7.64145 10.796C7.37186 10.5265 7.00623 10.375 6.62498 10.375ZM12.375 0.3125C13.0125 0.312338 13.632 0.524065 14.136 0.914389C14.64 1.30471 15 1.85149 15.1594 2.46875H17.4062C17.5858 2.46842 17.7591 2.53535 17.8918 2.65636C18.0245 2.77736 18.1071 2.94368 18.1234 3.12256C18.1396 3.30143 18.0883 3.4799 17.9795 3.62282C17.8707 3.76574 17.7123 3.86275 17.5356 3.89475L17.4062 3.90625L15.1594 3.90769C15.0006 4.52547 14.6408 5.07289 14.1367 5.46376C13.6326 5.85464 13.0129 6.06677 12.375 6.06677C11.7371 6.06677 11.1173 5.85464 10.6133 5.46376C10.1092 5.07289 9.74938 4.52547 9.59054 3.90769L1.59373 3.90625C1.41412 3.90658 1.2409 3.83965 1.10817 3.71864C0.97544 3.59764 0.892827 3.43132 0.876599 3.25244C0.86037 3.07357 0.911702 2.8951 1.02049 2.75218C1.12927 2.60926 1.28762 2.51225 1.46436 2.48025L1.59373 2.46875H9.59054C9.74992 1.85149 10.1099 1.30471 10.614 0.914389C11.118 0.524065 11.7375 0.312338 12.375 0.3125ZM12.375 1.75C11.9937 1.75 11.6281 1.90145 11.3585 2.17103C11.0889 2.44062 10.9375 2.80625 10.9375 3.1875C10.9375 3.56875 11.0889 3.93438 11.3585 4.20397C11.6281 4.47355 11.9937 4.625 12.375 4.625C12.7562 4.625 13.1219 4.47355 13.3914 4.20397C13.661 3.93438 13.8125 3.56875 13.8125 3.1875C13.8125 2.80625 13.661 2.44062 13.3914 2.17103C13.1219 1.90145 12.7562 1.75 12.375 1.75Z" fill="#1C1C1E"/>
</svg>
