<svg width="44" height="44" viewBox="0 0 44 44" fill="none" xmlns="http://www.w3.org/2000/svg">
<path fill-rule="evenodd" clip-rule="evenodd" d="M17.9025 5.49631C18.4184 4.92017 19.05 4.4593 19.756 4.14377C20.462 3.82825 21.2267 3.66516 22 3.66516C22.7734 3.66516 23.538 3.82825 24.244 4.14377C24.9501 4.4593 25.5817 4.92017 26.0975 5.49631L27.3809 6.92997C27.5643 7.13514 27.7915 7.29638 28.0457 7.40175C28.2999 7.50711 28.5746 7.5539 28.8494 7.53864L30.7744 7.43231C31.5463 7.38991 32.3185 7.51073 33.0406 7.78687C33.7626 8.06302 34.4184 8.48829 34.965 9.03494C35.5117 9.5816 35.937 10.2374 36.2131 10.9594C36.4893 11.6815 36.6101 12.4537 36.5677 13.2256L36.4614 15.1506C36.4464 15.4251 36.4933 15.6994 36.5987 15.9533C36.704 16.2072 36.8651 16.4341 37.07 16.6173L38.5055 17.9006C39.082 18.4165 39.5431 19.0482 39.8588 19.7544C40.1745 20.4606 40.3377 21.2255 40.3377 21.9991C40.3377 22.7726 40.1745 23.5375 39.8588 24.2437C39.5431 24.9499 39.082 25.5816 38.5055 26.0975L37.07 27.3808C36.8649 27.5642 36.7036 27.7914 36.5982 28.0457C36.4929 28.2999 36.4461 28.5745 36.4614 28.8493L36.5677 30.7743C36.6101 31.5462 36.4893 32.3184 36.2131 33.0405C35.937 33.7626 35.5117 34.4184 34.965 34.965C34.4184 35.5117 33.7626 35.9369 33.0406 36.2131C32.3185 36.4892 31.5463 36.61 30.7744 36.5676L28.8494 36.4613C28.5749 36.4463 28.3006 36.4932 28.0467 36.5986C27.7928 36.704 27.5659 36.8651 27.3827 37.07L26.0994 38.5055C25.5835 39.0819 24.9518 39.543 24.2456 39.8588C23.5394 40.1745 22.7745 40.3376 22.0009 40.3376C21.2274 40.3376 20.4625 40.1745 19.7563 39.8588C19.0501 39.543 18.4184 39.0819 17.9025 38.5055L16.6192 37.07C16.4358 36.8648 16.2086 36.7036 15.9543 36.5982C15.7001 36.4928 15.4254 36.446 15.1507 36.4613L13.2257 36.5676C12.4538 36.61 11.6816 36.4892 10.9595 36.2131C10.2374 35.9369 9.58165 35.5117 9.03499 34.965C8.48834 34.4184 8.06307 33.7626 7.78692 33.0405C7.51078 32.3184 7.38996 31.5462 7.43235 30.7743L7.53869 28.8493C7.55367 28.5748 7.50675 28.3005 7.40139 28.0467C7.29603 27.7928 7.13493 27.5658 6.93002 27.3826L5.49635 26.0993C4.91992 25.5834 4.45878 24.9518 4.14308 24.2455C3.82737 23.5393 3.66418 22.7745 3.66418 22.0009C3.66418 21.2273 3.82737 20.4625 4.14308 19.7562C4.45878 19.05 4.91992 18.4184 5.49635 17.9025L6.93002 16.6191C7.13518 16.4357 7.29643 16.2085 7.40179 15.9543C7.50716 15.7001 7.55395 15.4254 7.53869 15.1506L7.43235 13.2256C7.38996 12.4537 7.51078 11.6815 7.78692 10.9594C8.06307 10.2374 8.48834 9.5816 9.03499 9.03494C9.58165 8.48829 10.2374 8.06302 10.9595 7.78687C11.6816 7.51073 12.4538 7.38991 13.2257 7.43231L15.1507 7.53864C15.4251 7.55362 15.6995 7.5067 15.9533 7.40134C16.2072 7.29598 16.4341 7.13489 16.6174 6.92997L17.9025 5.49631ZM28.7962 15.2038C29.1399 15.5476 29.333 16.0138 29.333 16.5C29.333 16.9861 29.1399 17.4523 28.7962 17.7961L17.7962 28.7961C17.4504 29.1301 16.9873 29.3149 16.5066 29.3107C16.0259 29.3065 15.5661 29.1137 15.2262 28.7738C14.8863 28.4339 14.6935 27.9741 14.6893 27.4934C14.6851 27.0127 14.8699 26.5496 15.2039 26.2038L26.2039 15.2038C26.5477 14.8601 27.0139 14.667 27.5 14.667C27.9862 14.667 28.4524 14.8601 28.7962 15.2038ZM17.4167 14.6666C16.6873 14.6666 15.9879 14.9564 15.4721 15.4721C14.9564 15.9878 14.6667 16.6873 14.6667 17.4166V17.435C14.6667 18.1643 14.9564 18.8638 15.4721 19.3795C15.9879 19.8952 16.6873 20.185 17.4167 20.185H17.435C18.1644 20.185 18.8638 19.8952 19.3796 19.3795C19.8953 18.8638 20.185 18.1643 20.185 17.435V17.4166C20.185 16.6873 19.8953 15.9878 19.3796 15.4721C18.8638 14.9564 18.1644 14.6666 17.435 14.6666H17.4167ZM26.5834 23.8333C25.854 23.8333 25.1545 24.123 24.6388 24.6388C24.1231 25.1545 23.8334 25.854 23.8334 26.5833V26.6016C23.8334 27.331 24.1231 28.0305 24.6388 28.5462C25.1545 29.0619 25.854 29.3516 26.5834 29.3516H26.6017C27.331 29.3516 28.0305 29.0619 28.5462 28.5462C29.062 28.0305 29.3517 27.331 29.3517 26.6016V26.5833C29.3517 25.854 29.062 25.1545 28.5462 24.6388C28.0305 24.123 27.331 23.8333 26.6017 23.8333H26.5834Z" fill="#1C1C1E"/>
</svg>
