<svg width="36" height="36" viewBox="0 0 36 36" fill="none" xmlns="http://www.w3.org/2000/svg">
<path d="M31.5 17.25L33.75 19.5L23.265 30L16.5 23.25L18.75 21L23.265 25.5L31.5 17.25Z" fill="#1C1C1E"/>
<path opacity="0.3" d="M25.5 7.5V12H10.5V7.5H7.5V28.5H17.52L12.255 23.25L18.75 16.755L23.265 21.255L28.5 16.005V7.5H25.5Z" fill="#1C1C1E"/>
<path d="M7.5 28.5V7.5H10.5V12H25.5V7.5H28.5V16.005L31.5 13.005V7.5C31.5 5.85 30.15 4.5 28.5 4.5H22.23C21.6 2.76 19.95 1.5 18 1.5C16.05 1.5 14.4 2.76 13.77 4.5H7.5C5.85 4.5 4.5 5.85 4.5 7.5V28.5C4.5 30.15 5.85 31.5 7.5 31.5H20.52L17.52 28.5H7.5ZM18 4.5C18.825 4.5 19.5 5.175 19.5 6C19.5 6.825 18.825 7.5 18 7.5C17.175 7.5 16.5 6.825 16.5 6C16.5 5.175 17.175 4.5 18 4.5Z" fill="#1C1C1E"/>
</svg>
