<svg width="28" height="28" viewBox="0 0 28 28" fill="none" xmlns="http://www.w3.org/2000/svg">
<path d="M25.095 17.0217L23.6367 15.4817C23.823 14.3593 23.7992 13.2121 23.5667 12.0984L24.99 10.5584C25.1005 10.4353 25.1744 10.2837 25.2032 10.1209C25.2321 9.95799 25.2148 9.79029 25.1534 9.63672C24.5631 8.17784 23.6909 6.84971 22.5867 5.72838C22.4788 5.62049 22.3442 5.54313 22.1966 5.5042C22.049 5.46526 21.8938 5.46613 21.7467 5.50672L19.6 6.05505C18.9391 5.5798 18.222 5.18795 17.465 4.88839L16.94 2.88172C16.901 2.71896 16.8149 2.5713 16.6925 2.45718C16.5701 2.34306 16.4168 2.26754 16.2517 2.24005C15.5247 2.10363 14.7863 2.03722 14.0467 2.04172C13.1212 2.0456 12.1999 2.16713 11.305 2.40338C11.1557 2.44093 11.0193 2.51825 10.9104 2.62713C10.8016 2.73602 10.7242 2.87238 10.6867 3.02172L10.1267 5.08672C9.50065 5.36471 8.90616 5.70889 8.35336 6.11338L6.23003 5.58838C6.08094 5.54941 5.92408 5.55162 5.77616 5.59476C5.62823 5.63791 5.49478 5.72038 5.39003 5.83338C4.23009 7.0384 3.34282 8.47872 2.78836 10.0567C2.73459 10.2092 2.72356 10.3736 2.75646 10.5319C2.78936 10.6902 2.86494 10.8366 2.97503 10.9551L4.44503 12.4834C4.37059 12.9738 4.3316 13.469 4.32836 13.9651C4.32836 14.3151 4.32836 14.6651 4.38669 15.0151L2.85836 16.7184C2.75551 16.8316 2.68415 16.9699 2.65139 17.1193C2.61864 17.2687 2.62564 17.4242 2.67169 17.5701C3.15112 19.1126 3.94567 20.5389 5.00503 21.7584C5.11157 21.8837 5.25126 21.9764 5.40809 22.0259C5.56491 22.0754 5.73252 22.0798 5.89169 22.0384L7.89836 21.5251C8.6005 22.1167 9.38692 22.6003 10.2317 22.9601L10.815 25.0484C10.86 25.1998 10.944 25.3367 11.0587 25.4452C11.1734 25.5538 11.3147 25.6302 11.4684 25.6667C12.3095 25.8569 13.1705 25.9549 14.035 25.9584C14.7234 25.9514 15.4094 25.8849 16.0884 25.76C16.2494 25.7316 16.3993 25.6586 16.5209 25.5493C16.6426 25.44 16.7312 25.2988 16.7767 25.1417L17.325 23.1701C18.3323 22.8097 19.2712 22.2811 20.1017 21.6067L22.155 22.0734C22.309 22.1092 22.4699 22.102 22.6201 22.0526C22.7702 22.0032 22.904 21.9136 23.0067 21.7934C24.0294 20.6578 24.8218 19.3344 25.34 17.8967C25.3819 17.7423 25.3813 17.5795 25.3381 17.4254C25.295 17.2714 25.211 17.1319 25.095 17.0217ZM14.14 18.5034C13.5504 18.5144 12.9645 18.408 12.4165 18.1904C11.8684 17.9728 11.3691 17.6483 10.9477 17.2358C10.5262 16.8233 10.1911 16.3311 9.96174 15.7879C9.7324 15.2446 9.61346 14.6611 9.61183 14.0714C9.61021 13.4817 9.72593 12.8976 9.95227 12.3531C10.1786 11.8085 10.511 11.3145 10.9302 10.8997C11.3493 10.4849 11.8468 10.1576 12.3937 9.93701C12.9406 9.71638 13.5259 9.60676 14.1155 9.61455C15.2944 9.61146 16.4262 10.0768 17.262 10.9082C18.0978 11.7396 18.5691 12.869 18.5722 14.0479C18.5753 15.2268 18.1099 16.3586 17.2785 17.1944C16.4471 18.0302 15.3177 18.5015 14.1389 18.5046" fill="#1C1C1E"/>
</svg>
