<svg width="38" height="38" viewBox="0 0 38 38" fill="none" xmlns="http://www.w3.org/2000/svg">
<path d="M21.9346 4.982C22.083 5.13046 22.1664 5.33178 22.1664 5.54171C22.1664 5.75163 22.083 5.95295 21.9346 6.10141L20.1193 7.91671L21.9346 9.732C22.0788 9.88131 22.1586 10.0813 22.1568 10.2889C22.155 10.4964 22.0718 10.695 21.925 10.8418C21.7782 10.9886 21.5796 11.0718 21.3721 11.0736C21.1645 11.0754 20.9645 10.9956 20.8152 10.8514L18.9999 9.03612L17.1846 10.8514C17.1111 10.9249 17.0238 10.9832 16.9277 11.023C16.8316 11.0627 16.7286 11.0832 16.6246 11.0831C16.5207 11.0831 16.4177 11.0626 16.3216 11.0228C16.2256 10.9829 16.1383 10.9246 16.0648 10.851C15.9913 10.7775 15.933 10.6902 15.8933 10.5941C15.8535 10.498 15.8331 10.395 15.8331 10.291C15.8331 10.187 15.8536 10.0841 15.8935 9.98803C15.9333 9.89198 15.9917 9.80471 16.0652 9.73121L17.8805 7.91671L16.0652 6.10141C15.9917 6.02786 15.9334 5.94055 15.8937 5.84447C15.8539 5.74838 15.8335 5.64541 15.8335 5.54143C15.8335 5.43744 15.854 5.33448 15.8939 5.23843C15.9337 5.14237 15.9921 5.0551 16.0656 4.9816C16.1392 4.9081 16.2265 4.8498 16.3226 4.81005C16.4186 4.77029 16.5216 4.74984 16.6256 4.74988C16.7296 4.74991 16.8325 4.77043 16.9286 4.81026C17.0246 4.85009 17.1119 4.90844 17.1854 4.982L18.9999 6.79729L20.8152 4.982C20.9637 4.83358 21.165 4.75021 21.3749 4.75021C21.5848 4.75021 21.7862 4.83358 21.9346 4.982ZM15.1983 25.9097C15.7284 26.0863 16.2995 26.0986 16.8366 25.9449C17.3737 25.7912 17.8519 25.4787 18.2083 25.0484V33.2682L8.70825 29.6875V23.7469L15.1983 25.9097Z" fill="#1C1C1E"/>
<path fill-rule="evenodd" clip-rule="evenodd" d="M29.2916 29.6875L19.7916 33.2682V25.0483C20.148 25.4786 20.6261 25.7911 21.1633 25.9448C21.7004 26.0985 22.2715 26.0863 22.8016 25.9096L29.2916 23.7468V29.6875ZM26.3751 28.0638C26.5744 27.9974 26.7391 27.8546 26.8331 27.6668C26.9271 27.479 26.9426 27.2616 26.8763 27.0623C26.8099 26.8631 26.6671 26.6983 26.4793 26.6043C26.2915 26.5104 26.0741 26.4948 25.8748 26.5612L22.3123 27.7487C22.1131 27.815 21.9483 27.9578 21.8543 28.1456C21.7604 28.3334 21.7448 28.5509 21.8112 28.7501C21.8775 28.9494 22.0203 29.1141 22.2081 29.2081C22.3959 29.3021 22.6134 29.3176 22.8126 29.2513L26.3751 28.0638ZM19.2588 11.9185C19.0911 11.8605 18.9088 11.8605 18.7411 11.9185L8.45102 15.481L8.43281 15.4866C8.29438 15.5379 8.17314 15.627 8.08289 15.7439L4.92414 19.6927C4.84436 19.7922 4.78982 19.9096 4.76517 20.0348C4.74051 20.16 4.74648 20.2892 4.78255 20.4116C4.81863 20.534 4.88374 20.6458 4.97235 20.7376C5.06096 20.8294 5.17045 20.8984 5.29147 20.9388L15.979 24.5013C16.1408 24.5551 16.3157 24.5552 16.4776 24.5015C16.6395 24.4479 16.7798 24.3434 16.8775 24.2036L19 21.1715L21.1216 24.2036C21.2194 24.3436 21.3598 24.4482 21.5219 24.5018C21.6839 24.5554 21.859 24.5553 22.021 24.5013L32.7085 20.9388C32.8296 20.8985 32.9391 20.8296 33.0278 20.7378C33.1165 20.6461 33.1817 20.5342 33.2179 20.4118C33.254 20.2895 33.2601 20.1602 33.2355 20.0349C33.2109 19.9097 33.1564 19.7923 33.0766 19.6927L29.9178 15.7439C29.8234 15.6217 29.6951 15.53 29.5489 15.4802L19.2588 11.9185ZM19 18.9541L26.8715 16.2291L19 13.5042L11.1284 16.2291L19 18.9541Z" fill="#1C1C1E"/>
</svg>
