<svg width="24" height="24" viewBox="0 0 24 24" fill="none" xmlns="http://www.w3.org/2000/svg">
<path d="M12.325 2.132L12.651 1.457L12.326 2.132H12.325ZM21 10.234L20.253 10.17C20.2702 9.97791 20.3608 9.79984 20.5058 9.67277C20.6509 9.5457 20.8394 9.4794 21.032 9.48763C21.2247 9.49587 21.4068 9.57802 21.5405 9.71701C21.6742 9.856 21.7492 10.0411 21.75 10.234H21ZM3.764 12.057L4.47 16.137L2.991 16.393L2.286 12.313L3.764 12.057ZM10.755 21.25H15.404V22.75H10.755V21.25ZM16.315 20.412L17.127 11.02L18.622 11.149L17.809 20.542L16.315 20.412ZM4.47 16.137C4.977 19.067 7.619 21.25 10.755 21.25V22.75C6.929 22.75 3.629 20.081 2.991 16.393L4.47 16.137ZM10.745 5.1L11.408 9.145L9.928 9.387L9.265 5.343L10.745 5.1ZM16.812 10.246L15.373 9.006L16.353 7.869L17.792 9.109L16.812 10.246ZM12.756 4.972L12.28 3.138L13.732 2.762L14.208 4.595L12.756 4.972ZM11.562 2.778L11.417 2.825L10.958 1.397L11.103 1.35L11.562 2.778ZM13.477 6.816C13.165 6.232 12.922 5.613 12.756 4.972L14.208 4.595C14.3447 5.12164 14.5434 5.6302 14.8 6.11L13.476 6.816H13.477ZM11.417 2.825C11.2743 2.86824 11.1449 2.94683 11.0407 3.05347C10.9365 3.16012 10.8609 3.29135 10.821 3.435L9.369 3.059C9.47233 2.67051 9.67218 2.31443 9.94999 2.02386C10.2278 1.7333 10.5745 1.51766 10.958 1.397L11.417 2.825ZM12.28 3.138C12.2602 3.06592 12.2249 2.99903 12.1765 2.94203C12.1281 2.88503 12.0679 2.83928 12 2.808L12.651 1.457C12.9152 1.58292 13.1487 1.7649 13.3354 1.99027C13.5221 2.21565 13.6575 2.479 13.732 2.762L12.28 3.138ZM12 2.808C11.8631 2.74263 11.7065 2.7319 11.562 2.778L11.103 1.35C11.6137 1.18632 12.1677 1.22461 12.651 1.457L12.001 2.808H12ZM9.846 10.984H4.666V9.484H9.846V10.984ZM19.281 21.406L20.253 10.17L21.747 10.299L20.777 21.535L19.281 21.406ZM20.25 21.513V10.234H21.75V21.513H20.25ZM20.777 21.535C20.7801 21.4987 20.7745 21.4621 20.7627 21.4276C20.7508 21.3931 20.7319 21.3614 20.7072 21.3346C20.6825 21.3078 20.6524 21.2865 20.619 21.2719C20.5856 21.2573 20.5495 21.2499 20.513 21.25V22.75C19.787 22.75 19.219 22.128 19.281 21.406L20.776 21.536L20.777 21.535ZM9.265 5.343C9.14 4.583 9.175 3.805 9.369 3.059L10.821 3.436C10.681 3.979 10.654 4.546 10.745 5.1L9.265 5.343ZM15.404 21.25C15.6331 21.2496 15.8538 21.1633 16.0225 21.0082C16.1911 20.853 16.2955 20.6403 16.315 20.412L17.809 20.542C17.757 21.1442 17.4811 21.7049 17.0359 22.1137C16.5907 22.5225 16.0084 22.7495 15.404 22.75V21.25ZM15.373 9.006C14.693 8.42 13.961 7.723 13.476 6.816L14.8 6.109C15.146 6.758 15.697 7.305 16.353 7.869L15.373 9.006ZM2.286 12.313C2.22579 11.966 2.24219 11.61 2.33403 11.27C2.42587 10.93 2.59093 10.6142 2.81767 10.3447C3.0444 10.0751 3.32732 9.85847 3.6466 9.7098C3.96588 9.56113 4.3138 9.48406 4.666 9.484V10.984C4.53246 10.9841 4.40054 11.0133 4.2795 11.0697C4.15845 11.1262 4.05121 11.2084 3.96528 11.3106C3.87935 11.4128 3.8168 11.5326 3.78204 11.6615C3.74727 11.7905 3.74111 11.9254 3.764 12.057L2.286 12.313ZM20.513 21.25C20.4432 21.25 20.3764 21.2777 20.327 21.327C20.2777 21.3764 20.25 21.4432 20.25 21.513H21.75C21.75 22.195 21.197 22.75 20.513 22.75V21.25ZM11.408 9.145C11.4453 9.37158 11.4328 9.60356 11.3715 9.82484C11.3101 10.0461 11.2014 10.2514 11.0528 10.4265C10.9042 10.6015 10.7193 10.7421 10.5109 10.8386C10.3025 10.935 10.0756 10.984 9.846 10.984V9.484C9.896 9.484 9.936 9.439 9.928 9.387L11.408 9.145ZM17.127 11.02C17.1394 10.8752 17.1182 10.7295 17.0632 10.5949C17.0083 10.4604 16.9222 10.3408 16.812 10.246L17.792 9.109C18.082 9.35903 18.3084 9.67436 18.4527 10.029C18.597 10.3837 18.6551 10.7675 18.622 11.149L17.127 11.019V11.02Z" fill="#8DC63F"/>
<path d="M3.025 12.185L3.764 12.057M3.764 12.057L4.47 16.137M3.764 12.057L2.286 12.313M3.764 12.057C3.74111 11.9254 3.74727 11.7905 3.78204 11.6615C3.8168 11.5326 3.87935 11.4128 3.96528 11.3106C4.05121 11.2084 4.15846 11.1262 4.2795 11.0697C4.40054 11.0133 4.53246 10.9841 4.666 10.984M3.73 16.265L4.47 16.137M4.47 16.137L2.991 16.393M4.47 16.137C4.977 19.067 7.619 21.25 10.755 21.25M17.062 20.477L17.809 20.542M17.809 20.542L18.622 11.149M17.809 20.542L16.315 20.412M17.809 20.542C17.757 21.1442 17.4811 21.7049 17.0359 22.1137C16.5907 22.5225 16.0084 22.7495 15.404 22.75M17.874 11.084L17.127 11.02M17.127 11.02L16.315 20.412M17.127 11.02L18.622 11.149M17.127 11.02C17.1394 10.8752 17.1182 10.7295 17.0632 10.5949C17.0083 10.4604 16.9222 10.3408 16.812 10.246M17.127 11.02V11.019L18.622 11.149M10.005 5.221L9.265 5.343M9.265 5.343L9.928 9.387M9.265 5.343L10.745 5.1M9.265 5.343C9.14 4.583 9.175 3.805 9.369 3.059M10.668 9.266L9.928 9.387M9.928 9.387L11.408 9.145M9.928 9.387C9.936 9.439 9.896 9.484 9.846 9.484M17.302 9.678L17.792 9.109M17.792 9.109L16.353 7.869M17.792 9.109L16.812 10.246M17.792 9.109C18.082 9.35903 18.3084 9.67436 18.4527 10.029C18.597 10.3837 18.6551 10.7675 18.622 11.149M15.863 8.438L15.373 9.006M15.373 9.006L16.812 10.246M15.373 9.006L16.353 7.869M15.373 9.006C14.693 8.42 13.961 7.723 13.476 6.816M13.482 4.784L14.208 4.595M14.208 4.595L13.732 2.762M14.208 4.595L12.756 4.972M14.208 4.595C14.3447 5.12164 14.5434 5.6302 14.8 6.11L13.476 6.816M13.006 2.95L12.28 3.138M12.28 3.138L12.756 4.972M12.28 3.138L13.732 2.762M12.28 3.138C12.2602 3.06592 12.2249 2.99903 12.1765 2.94203C12.1281 2.88503 12.0679 2.83928 12 2.808M11.332 2.064L11.562 2.778M11.562 2.778L11.417 2.825M11.562 2.778L11.103 1.35M11.562 2.778C11.7065 2.7319 11.8631 2.74263 12 2.808M11.187 2.111L10.958 1.397M10.958 1.397L11.417 2.825M10.958 1.397L11.103 1.35M10.958 1.397C10.5745 1.51766 10.2278 1.7333 9.94999 2.02386C9.67218 2.31443 9.47233 2.6705 9.369 3.059M14.138 6.463L13.476 6.816M13.476 6.816H13.477C13.165 6.232 12.922 5.613 12.756 4.972M13.476 6.816L14.8 6.109C15.146 6.758 15.697 7.305 16.353 7.869M10.095 3.247L10.821 3.436M10.821 3.436L9.369 3.059M10.821 3.436C10.681 3.979 10.654 4.546 10.745 5.1M12.651 1.457L12.325 2.132H12.326L12.651 1.457ZM12.651 1.457L12 2.808M12.651 1.457C12.9152 1.58292 13.1487 1.7649 13.3354 1.99027C13.5221 2.21565 13.6575 2.479 13.732 2.762M12.651 1.457C12.1677 1.22461 11.6137 1.18632 11.103 1.35M12.651 1.457L12.001 2.808H12M20.029 21.471L20.777 21.535M20.777 21.535L21.747 10.299L20.253 10.17M20.777 21.535L19.281 21.406M20.777 21.535C20.7801 21.4987 20.7745 21.4621 20.7627 21.4276C20.7508 21.3931 20.7319 21.3614 20.7072 21.3346C20.6825 21.3078 20.6524 21.2865 20.619 21.2719C20.5856 21.2573 20.5495 21.2499 20.513 21.25M20.777 21.535L20.776 21.536L19.281 21.406M20.253 10.17L21 10.234H21.75M20.253 10.17C20.2702 9.97791 20.3608 9.79984 20.5058 9.67277C20.6509 9.5457 20.8394 9.4794 21.032 9.48763C21.2247 9.49587 21.4068 9.57802 21.5405 9.71701C21.6742 9.85599 21.7492 10.0411 21.75 10.234M20.253 10.17L19.281 21.406M21.75 10.234H20.25V21.513M21.75 10.234V21.513M2.991 16.393L2.286 12.313M2.991 16.393C3.629 20.081 6.929 22.75 10.755 22.75M2.286 12.313C2.22579 11.966 2.24219 11.61 2.33403 11.27C2.42587 10.93 2.59093 10.6142 2.81767 10.3447C3.0444 10.0751 3.32732 9.85847 3.6466 9.7098C3.96588 9.56113 4.3138 9.48406 4.666 9.484M10.755 21.25H15.404M10.755 21.25V22.75M15.404 21.25V22.75M15.404 21.25C15.6331 21.2496 15.8538 21.1633 16.0225 21.0082C16.1911 20.853 16.2955 20.6403 16.315 20.412M15.404 22.75H10.755M10.745 5.1L11.408 9.145M11.408 9.145C11.4453 9.37158 11.4328 9.60356 11.3715 9.82484C11.3101 10.0461 11.2014 10.2514 11.0528 10.4265C10.9042 10.6015 10.7193 10.7421 10.5109 10.8386C10.3025 10.935 10.0756 10.984 9.846 10.984M11.417 2.825C11.2743 2.86824 11.1449 2.94683 11.0407 3.05347C10.9365 3.16012 10.8609 3.29135 10.821 3.435L9.369 3.059M9.846 10.984H4.666M9.846 10.984V9.484M4.666 10.984V9.484M4.666 9.484H9.846M19.281 21.406C19.219 22.128 19.787 22.75 20.513 22.75M20.25 21.513H21.75M20.25 21.513C20.25 21.4432 20.2777 21.3764 20.327 21.327C20.3764 21.2777 20.4432 21.25 20.513 21.25M21.75 21.513C21.75 22.195 21.197 22.75 20.513 22.75M20.513 21.25V22.75" stroke="#8DC63F" stroke-width="1.5"/>
</svg>
