<svg width="27" height="27" viewBox="0 0 27 27" fill="none" xmlns="http://www.w3.org/2000/svg">
<path opacity="0.3" d="M6.75 22.5H20.25V11.25H6.75V22.5ZM13.5 14.625C14.7375 14.625 15.75 15.6375 15.75 16.875C15.75 18.1125 14.7375 19.125 13.5 19.125C12.2625 19.125 11.25 18.1125 11.25 16.875C11.25 15.6375 12.2625 14.625 13.5 14.625Z" fill="black"/>
<path d="M20.25 9H19.125V6.75C19.125 3.645 16.605 1.125 13.5 1.125C10.395 1.125 7.875 3.645 7.875 6.75H10.125C10.125 4.8825 11.6325 3.375 13.5 3.375C15.3675 3.375 16.875 4.8825 16.875 6.75V9H6.75C5.5125 9 4.5 10.0125 4.5 11.25V22.5C4.5 23.7375 5.5125 24.75 6.75 24.75H20.25C21.4875 24.75 22.5 23.7375 22.5 22.5V11.25C22.5 10.0125 21.4875 9 20.25 9ZM20.25 22.5H6.75V11.25H20.25V22.5ZM13.5 19.125C14.7375 19.125 15.75 18.1125 15.75 16.875C15.75 15.6375 14.7375 14.625 13.5 14.625C12.2625 14.625 11.25 15.6375 11.25 16.875C11.25 18.1125 12.2625 19.125 13.5 19.125Z" fill="black"/>
</svg>
