<svg xmlns="http://www.w3.org/2000/svg" width="393.472" height="253.899" viewBox="0 0 393.472 253.899">
  <g id="Group_1970" transform="translate(-26.313 -50.266)" opacity="0.76">
    <circle id="Ellipse_93" cx="115.858" cy="115.858" r="115.858" transform="translate(117.001 50.266)" fill="#eaedf5"/>
    <path id="Path_194" d="M463.233,178.512V167.263c0-4.467-4.544-8.088-10.149-8.088H409.468c-5.605,0-10.149-3.621-10.149-8.088V139.838c0-4.467,4.544-8.088,10.149-8.088h16.72c5.605,0,10.149-3.621,10.149-8.088V112.412c0-4.467-4.544-8.088-10.149-8.088H126.951c-5.605,0-10.149,3.621-10.149,8.088v11.249c0,4.467,4.544,8.088,10.149,8.088h0c5.605,0,10.149,3.621,10.149,8.088v11.249c0,4.467-4.544,8.088-10.149,8.088H79.91c-5.605,0-10.149,3.621-10.149,8.088v11.249c0,4.467,4.543,8.088,10.148,8.088h46.577c5.605,0,10.149,3.621,10.149,8.088v11.249c.249,10.294-27.927,8.088-33.532,8.088h-.037c-5.605,0-10.149,3.621-10.149,8.088v11.249c0,4.467,4.544,8.088,10.149,8.088h25.611c5.605,0,10.149,3.621,10.149,8.088v11.249c0,4.467-4.544,8.088-10.149,8.088H99.906c-5.605,0-10.149,3.621-10.149,8.088v11.249c0,4.467,4.544,8.088,10.149,8.088H423.842c5.605,0,10.149-3.621,10.149-8.088V276.965c0-4.467-4.544-8.088-10.149-8.088H407.248c-5.605,0-10.149-3.621-10.149-8.088V249.54c0-4.467,4.544-8.088,10.149-8.088h28.543c5.605,0,10.149-3.621,10.149-8.088V222.114c0-4.467-4.544-8.088-10.149-8.088H421.7c-5.605,0-10.149-3.621-10.149-8.088V194.689c0-4.467,4.544-8.088,10.149-8.088h31.382c5.6,0,10.148-3.621,10.148-8.088Z" transform="translate(-43.449 -12.895)" fill="rgba(215,219,236,0.5)"/>
    <circle id="Ellipse_94" cx="29.169" cy="29.169" r="29.169" transform="translate(205.372 89.731)" fill="#303856"/>
    <path id="Path_195" d="M324.053,132.408q0-.054,0-.108a10.327,10.327,0,1,1,10.477,10.326V152" transform="translate(-99.838 -19.581)" fill="none" stroke="#d7dbec" stroke-linecap="round" stroke-linejoin="round" stroke-width="4"/>
    <line id="Line_48" x2="20.066" transform="translate(283.608 99.265)" fill="none" stroke="#303856" stroke-linecap="round" stroke-width="3"/>
    <line id="Line_49" x2="20.066" transform="translate(283.608 105.048)" fill="none" stroke="#303856" stroke-linecap="round" stroke-width="3"/>
    <line id="Line_50" x2="20.066" transform="translate(283.608 110.831)" fill="none" stroke="#303856" stroke-linecap="round" stroke-width="3"/>
    <line id="Line_51" x2="20.066" transform="translate(96.937 209.102)" fill="none" stroke="#303856" stroke-linecap="round" stroke-width="3"/>
    <line id="Line_52" x2="20.066" transform="translate(96.937 214.885)" fill="none" stroke="#303856" stroke-linecap="round" stroke-width="3"/>
    <line id="Line_53" x2="20.066" transform="translate(96.937 220.669)" fill="none" stroke="#303856" stroke-linecap="round" stroke-width="3"/>
    <line id="Line_54" x2="20.066" transform="translate(322.103 250.344)" fill="none" stroke="#303856" stroke-linecap="round" stroke-width="3"/>
    <line id="Line_55" x2="20.066" transform="translate(322.103 256.128)" fill="none" stroke="#303856" stroke-linecap="round" stroke-width="3"/>
    <line id="Line_56" x2="20.066" transform="translate(322.103 261.911)" fill="none" stroke="#303856" stroke-linecap="round" stroke-width="3"/>
    <circle id="Ellipse_95" cx="8.577" cy="8.577" r="8.577" transform="translate(337.713 204.708)" fill="#b7c3e8"/>
    <circle id="Ellipse_96" cx="4.447" cy="4.447" r="4.447" transform="translate(319.21 215.028)" fill="#b7c3e8"/>
    <circle id="Ellipse_97" cx="6.353" cy="6.353" r="6.353" transform="translate(328.596 185.946)" fill="#b7c3e8"/>
    <circle id="Ellipse_98" cx="10.205" cy="10.205" r="10.205" transform="translate(140.923 258.475)" fill="#b7c3e8"/>
    <circle id="Ellipse_99" cx="5.315" cy="5.315" r="5.315" transform="translate(126.313 256.096)" fill="#b7c3e8"/>
    <circle id="Ellipse_100" cx="3.066" cy="3.066" r="3.066" transform="translate(133.444 240.277)" fill="#b7c3e8"/>
    <circle id="Ellipse_101" cx="7.35" cy="7.35" r="7.35" transform="translate(146.133 238.162)" fill="#b7c3e8"/>
    <circle id="Ellipse_102" cx="10.205" cy="10.205" r="10.205" transform="translate(148.396 105.285)" fill="#b7c3e8"/>
    <circle id="Ellipse_103" cx="5.315" cy="5.315" r="5.315" transform="translate(153.699 89.368)" fill="#b7c3e8"/>
    <circle id="Ellipse_104" cx="4.6" cy="4.6" r="4.6" transform="translate(189.818 93.189)" fill="#b7c3e8"/>
    <circle id="Ellipse_105" cx="3.066" cy="3.066" r="3.066" transform="translate(174.616 90.253)" fill="#b7c3e8"/>
    <circle id="Ellipse_106" cx="7.35" cy="7.35" r="7.35" transform="translate(173.895 102.705)" fill="#b7c3e8"/>
    <path id="Path_196" d="M372.017,224.53H199.185l-5.636-14.287H372.017a1.691,1.691,0,0,1,1.691,1.691v10.906a1.691,1.691,0,0,1-1.69,1.69Z" transform="translate(-50.4 -53.021)" fill="#303856"/>
    <path id="Path_197" d="M350.275,308.309H232.752a2.818,2.818,0,0,1-2.638-1.828l-27.492-73.238H369.436l-16.412,72.868A2.818,2.818,0,0,1,350.275,308.309Z" transform="translate(-53.837 -61.734)" fill="#d7dbec"/>
    <path id="Path_198" d="M369.575,292.533c-12.023.771-24.046,1.175-36.068,1.449-6.011.172-12.023.21-18.034.311l-18.034.1q-18.034.016-36.068-.408c-12.023-.273-24.046-.678-36.068-1.454,12.023-.776,24.046-1.181,36.068-1.454s24.046-.406,36.068-.408l18.034.1c6.011.1,12.023.139,18.034.311C345.53,291.359,357.552,291.762,369.575,292.533Z" transform="translate(-62.429 -83.489)" fill="#7e84a3"/>
    <path id="Path_199" d="M408.019,233.243c-.685,6.551-1.732,13.02-2.887,19.465q-1.756,9.662-3.919,19.232T396.513,291c-.857,3.159-1.745,6.312-2.693,9.451-.49,1.566-.957,3.137-1.467,4.7l-.393,1.186a3.055,3.055,0,0,1-.734,1.155,2.9,2.9,0,0,1-2.369.822,2.716,2.716,0,0,0,1.938-1.186,2.431,2.431,0,0,0,.393-1l.157-1.2c.209-1.629.461-3.249.689-4.874.49-3.242,1.039-6.471,1.619-9.693q1.756-9.662,3.924-19.231t4.7-19.055C404,245.748,405.829,239.455,408.019,233.243Z" transform="translate(-124.388 -61.734)" fill="#7e84a3"/>
    <path id="Path_200" d="M293.211,308.309a2.908,2.908,0,0,1-2.438-.906,4.16,4.16,0,0,1-.718-1.169l-.557-1.154c-.742-1.538-1.442-3.092-2.164-4.638-1.415-3.1-2.772-6.226-4.1-9.361q-3.97-9.41-7.55-18.967t-6.8-19.248c-2.122-6.471-4.137-12.981-5.8-19.624,3.118,6.1,5.885,12.325,8.545,18.594s5.162,12.6,7.545,18.969,4.654,12.787,6.8,19.25c1.062,3.235,2.1,6.48,3.071,9.748.473,1.639.969,3.27,1.422,4.916l.34,1.235a3.657,3.657,0,0,0,.414,1.1A2.715,2.715,0,0,0,293.211,308.309Z" transform="translate(-76.74 -61.734)" fill="#7e84a3"/>
    <circle id="Ellipse_107" cx="11.643" cy="11.643" r="11.643" transform="translate(196.454 280.88)" fill="#303856"/>
    <circle id="Ellipse_108" cx="5.374" cy="5.374" r="5.374" transform="translate(202.723 287.149)" fill="#d7dbec"/>
    <circle id="Ellipse_109" cx="11.643" cy="11.643" r="11.643" transform="translate(263.614 280.88)" fill="#303856"/>
    <circle id="Ellipse_110" cx="5.374" cy="5.374" r="5.374" transform="translate(269.883 287.149)" fill="#d7dbec"/>
    <path id="Path_201" d="M342.861,233.243c1.143,6.21,1.915,12.441,2.576,18.68q.968,9.359,1.52,18.743t.721,18.79c.086,6.273.057,12.552-.345,18.854-1.147-6.209-1.921-12.441-2.581-18.679s-1.15-12.487-1.515-18.743-.609-12.519-.716-18.79C342.438,245.824,342.464,239.544,342.861,233.243Z" transform="translate(-106.82 -61.734)" fill="#7e84a3"/>
    <path id="Path_202" d="M314.6,299.827H209.282a1.864,1.864,0,0,1-1.74-1.2l-61-159.006h-32.31a1.864,1.864,0,0,1,0-3.727h33.59a1.864,1.864,0,0,1,1.74,1.2l61,159.006H314.6a1.864,1.864,0,0,1,0,3.727Z" transform="translate(-19.647 -24.857)" fill="#303856"/>
    <rect id="Rectangle_476" width="24.598" height="11.405" rx="2" transform="translate(87.436 107.532)" fill="#303856"/>
    <circle id="Ellipse_111" cx="1.677" cy="1.677" r="1.677" transform="translate(232.864 136.511)" fill="#d7dbec"/>
  </g>
</svg>
