<svg width="32" height="32" viewBox="0 0 32 32" fill="none" xmlns="http://www.w3.org/2000/svg">
<g clip-path="url(#clip0_265_7656)">
<circle cx="16" cy="16" r="15" stroke="#979797" stroke-width="2"/>
<path d="M11.5789 8C12.0489 8 12.5143 8.09257 12.9486 8.27243C13.3828 8.45229 13.7773 8.71591 14.1096 9.04825C14.442 9.38059 14.7056 9.77513 14.8855 10.2093C15.0653 10.6436 15.1579 11.109 15.1579 11.5789V15.1579H11.5789C10.6298 15.1579 9.71943 14.7808 9.04825 14.1096C8.37707 13.4385 8 12.5281 8 11.5789C8 10.6298 8.37707 9.71943 9.04825 9.04825C9.71943 8.37707 10.6298 8 11.5789 8ZM11.5789 16.8421H15.1579V20.4211C15.1579 21.1289 14.948 21.8209 14.5547 22.4094C14.1615 22.998 13.6025 23.4567 12.9486 23.7276C12.2946 23.9984 11.575 24.0693 10.8807 23.9312C10.1865 23.7931 9.54878 23.4523 9.04825 22.9517C8.54773 22.4512 8.20686 21.8135 8.06877 21.1193C7.93068 20.425 8.00155 19.7054 8.27243 19.0514C8.54331 18.3975 9.00204 17.8385 9.59059 17.4453C10.1791 17.052 10.8711 16.8421 11.5789 16.8421ZM20.4211 8C21.3702 8 22.2806 8.37707 22.9518 9.04825C23.6229 9.71943 24 10.6298 24 11.5789C24 12.5281 23.6229 13.4385 22.9518 14.1096C22.2806 14.7808 21.3702 15.1579 20.4211 15.1579H16.8421V11.5789C16.8421 10.6298 17.2192 9.71943 17.8904 9.04825C18.5615 8.37707 19.4719 8 20.4211 8ZM16.8421 16.8421H20.4211C21.1289 16.8421 21.8209 17.052 22.4094 17.4453C22.998 17.8385 23.4567 18.3975 23.7276 19.0514C23.9985 19.7054 24.0693 20.425 23.9312 21.1193C23.7931 21.8135 23.4523 22.4512 22.9518 22.9517C22.4512 23.4523 21.8135 23.7931 21.1193 23.9312C20.425 24.0693 19.7054 23.9984 19.0514 23.7276C18.3975 23.4567 17.8385 22.998 17.4453 22.4094C17.052 21.8209 16.8421 21.1289 16.8421 20.4211V16.8421Z" fill="#979797"/>
</g>
<defs>
<clipPath id="clip0_265_7656">
<rect width="32" height="32" fill="white"/>
</clipPath>
</defs>
</svg>
