<svg width="28" height="26" viewBox="0 0 28 26" fill="none" xmlns="http://www.w3.org/2000/svg">
<path d="M10.5 25.5C7.14583 22.6458 4.64083 19.995 2.985 17.5475C1.32917 15.1 0.500833 12.8342 0.5 10.75C0.5 7.625 1.50542 5.13542 3.51625 3.28125C5.52708 1.42708 7.855 0.5 10.5 0.5C13.1458 0.5 15.4742 1.42708 17.485 3.28125C19.4958 5.13542 20.5008 7.625 20.5 10.75V11.2812C20.5 11.4688 20.4792 11.6562 20.4375 11.8438C19.3125 12.0729 18.3279 12.5054 17.4837 13.1412C16.6396 13.7771 15.9575 14.5425 15.4375 15.4375C14.9167 16.3333 14.5887 17.3021 14.4538 18.3438C14.3188 19.3854 14.4175 20.4375 14.75 21.5C14.1458 22.1458 13.4896 22.8021 12.7812 23.4688C12.0729 24.1354 11.3125 24.8125 10.5 25.5ZM10.5 16.75C11.6667 16.75 12.7188 16.4637 13.6562 15.8912C14.5938 15.3187 15.3333 14.5633 15.875 13.625C15.1458 13.0208 14.3229 12.5575 13.4062 12.235C12.4896 11.9125 11.5208 11.7508 10.5 11.75C9.47917 11.75 8.51042 11.9117 7.59375 12.235C6.67708 12.5583 5.85417 13.0217 5.125 13.625C5.66667 14.5625 6.40625 15.3179 7.34375 15.8912C8.28125 16.4646 9.33333 16.7508 10.5 16.75ZM10.5 10.5C11.1875 10.5 11.7762 10.2554 12.2663 9.76625C12.7563 9.27708 13.0008 8.68833 13 8C13 7.3125 12.7554 6.72417 12.2663 6.235C11.7771 5.74583 11.1883 5.50083 10.5 5.5C9.8125 5.5 9.22417 5.745 8.735 6.235C8.24583 6.725 8.00083 7.31333 8 8C8 8.6875 8.245 9.27625 8.735 9.76625C9.225 10.2563 9.81333 10.5008 10.5 10.5ZM22.0625 24.25L20.3125 22.5L22.2812 20.5H17.0625V18H22.2812L20.3125 16L22.0625 14.25L27.0625 19.25L22.0625 24.25Z" fill="#1C1C1E"/>
</svg>
