<svg xmlns="http://www.w3.org/2000/svg" width="113" height="113" viewBox="0 0 113 113">
  <g id="Group_1992" transform="translate(-53.67 -99)">
    <path id="Path_223" d="M90.366,19.982a10.056,10.056,0,0,1-1.455-2.476,10.587,10.587,0,0,1-.305-2.98c-.023-1.666-.047-3.391-1.033-4.74S84.945,7.861,83.35,7.333a10.536,10.536,0,0,1-2.71-1.2A9.964,9.964,0,0,1,78.7,3.954C77.694,2.6,76.661,1.2,75.03.668c-1.561-.5-3.192,0-4.764.481a10.623,10.623,0,0,1-2.98.634,10.623,10.623,0,0,1-2.98-.634c-1.584-.493-3.215-1-4.764-.481-1.631.528-2.664,1.924-3.673,3.285a10.571,10.571,0,0,1-1.936,2.182,10.358,10.358,0,0,1-2.71,1.2C49.639,7.873,48,8.424,47,9.785s-1.009,3.074-1.033,4.74a10.683,10.683,0,0,1-.305,2.98,9.9,9.9,0,0,1-1.455,2.476C43.221,21.366,42.2,22.8,42.2,24.534s1.021,3.168,2.006,4.553a10.057,10.057,0,0,1,1.455,2.476,10.587,10.587,0,0,1,.305,2.98c.023,1.666.047,3.391,1.033,4.74s2.628,1.924,4.224,2.452a10.536,10.536,0,0,1,2.71,1.2,9.963,9.963,0,0,1,1.936,2.182c.411.551.821,1.1,1.279,1.607V57.177a3.225,3.225,0,0,0,4.822,2.8l4.6-2.617a1.464,1.464,0,0,1,1.455,0l4.6,2.617a3.248,3.248,0,0,0,1.6.422,3.251,3.251,0,0,0,3.227-3.238V46.711c.458-.5.868-1.056,1.279-1.608a10.571,10.571,0,0,1,1.936-2.182,10.358,10.358,0,0,1,2.71-1.2c1.584-.54,3.227-1.091,4.224-2.452s1.009-3.074,1.033-4.74a10.683,10.683,0,0,1,.305-2.98,9.9,9.9,0,0,1,1.455-2.476c.986-1.385,2.006-2.816,2.006-4.553C92.373,22.8,91.352,21.366,90.366,19.982Zm-14.69,37.2a1.471,1.471,0,0,1-2.194,1.279l-4.6-2.617a3.225,3.225,0,0,0-3.192,0l-4.6,2.617A1.471,1.471,0,0,1,58.9,57.177V48.142a5.139,5.139,0,0,0,.634.27,4.385,4.385,0,0,0,1.4.211,11.876,11.876,0,0,0,3.379-.692,10.623,10.623,0,0,1,2.98-.634,10.623,10.623,0,0,1,2.98.634c1.584.493,3.215,1,4.764.481a3.809,3.809,0,0,0,.634-.27v9.035Zm13.259-29.1a11.254,11.254,0,0,0-1.69,2.945,11.989,11.989,0,0,0-.387,3.5c-.023,1.455-.035,2.84-.692,3.731-.669.915-1.971,1.361-3.368,1.83a11.994,11.994,0,0,0-3.18,1.431,11.477,11.477,0,0,0-2.312,2.558c-.88,1.185-1.713,2.3-2.8,2.664-1.033.329-2.323-.07-3.708-.493a12.129,12.129,0,0,0-3.508-.716,12.209,12.209,0,0,0-3.508.716c-1.373.422-2.675.833-3.708.493-1.091-.352-1.924-1.478-2.8-2.664a12.075,12.075,0,0,0-2.312-2.558,11.827,11.827,0,0,0-3.18-1.431c-1.385-.469-2.7-.915-3.368-1.83-.657-.892-.669-2.276-.692-3.731a11.989,11.989,0,0,0-.387-3.5,11.4,11.4,0,0,0-1.69-2.945c-.868-1.209-1.678-2.358-1.678-3.544s.81-2.323,1.678-3.544a11.254,11.254,0,0,0,1.69-2.945,11.989,11.989,0,0,0,.387-3.5c.023-1.455.035-2.84.692-3.731.669-.915,1.971-1.361,3.368-1.83a11.994,11.994,0,0,0,3.18-1.431A11.476,11.476,0,0,0,57.266,5c.88-1.185,1.713-2.3,2.8-2.664a2.889,2.889,0,0,1,.845-.129,10.357,10.357,0,0,1,2.851.622,12.129,12.129,0,0,0,3.508.716,12.208,12.208,0,0,0,3.508-.716c1.373-.422,2.675-.833,3.708-.493,1.091.352,1.924,1.478,2.8,2.664a12.074,12.074,0,0,0,2.311,2.558,11.828,11.828,0,0,0,3.18,1.431c1.385.469,2.7.915,3.368,1.83.657.892.669,2.276.692,3.731a11.989,11.989,0,0,0,.387,3.5,11.4,11.4,0,0,0,1.69,2.945c.868,1.209,1.678,2.358,1.678,3.544S89.8,26.869,88.935,28.078ZM67.286,6.253A18.281,18.281,0,1,0,85.567,24.534,18.3,18.3,0,0,0,67.286,6.253Zm0,34.8A16.521,16.521,0,1,1,83.807,24.534,16.545,16.545,0,0,1,67.286,41.055ZM73.2,17.388,60.833,29.744a.885.885,0,0,0,0,1.244.878.878,0,0,0,1.244,0L74.444,18.632A.879.879,0,1,0,73.2,17.388Zm-4.212,8.847a3.307,3.307,0,0,0-.974,2.37,3.356,3.356,0,0,0,.974,2.37,3.307,3.307,0,0,0,2.37.974,3.356,3.356,0,0,0,2.37-.974,3.307,3.307,0,0,0,.974-2.37,3.344,3.344,0,0,0-5.714-2.37Zm3.485,3.485h0a1.554,1.554,0,0,1-1.115.469,1.534,1.534,0,0,1-1.115-.469,1.6,1.6,0,0,1-.469-1.115,1.534,1.534,0,0,1,.469-1.115,1.586,1.586,0,0,1,2.229,0,1.554,1.554,0,0,1,.469,1.115A1.534,1.534,0,0,1,72.473,29.72Zm-9.258-5.9a3.377,3.377,0,0,0,2.37-.974,3.307,3.307,0,0,0,.974-2.37,3.356,3.356,0,0,0-.974-2.37,3.308,3.308,0,0,0-2.37-.974,3.344,3.344,0,0,0,0,6.688ZM62.1,19.348a1.554,1.554,0,0,1,1.115-.469,1.534,1.534,0,0,1,1.115.469,1.554,1.554,0,0,1,.469,1.115,1.534,1.534,0,0,1-.469,1.115h0a1.554,1.554,0,0,1-1.115.469,1.534,1.534,0,0,1-1.115-.469A1.565,1.565,0,0,1,62.1,19.348Z" transform="translate(44.067 125.642)" fill="#0e9925"/>
  </g>
</svg>
