<svg width="36" height="36" viewBox="0 0 36 36" fill="none" xmlns="http://www.w3.org/2000/svg">
<g clip-path="url(#clip0_271_7880)">
<mask id="mask0_271_7880" style="mask-type:luminance" maskUnits="userSpaceOnUse" x="0" y="0" width="36" height="32">
<path d="M0 0.517502H35.904V31.68H0V0.517502Z" fill="white"/>
</mask>
<g mask="url(#mask0_271_7880)">
<path d="M1.14233 17.5133L18.0001 1.51726L34.9831 17.5133" stroke="#4D3E40" stroke-width="1.5" stroke-miterlimit="10"/>
</g>
<path d="M0.267822 16.764H35.7323V35.2598H0.267822V16.764Z" fill="#99C99E"/>
<mask id="mask1_271_7880" style="mask-type:luminance" maskUnits="userSpaceOnUse" x="0" y="16" width="36" height="20">
<path d="M0 16.512H35.904V35.5095H0V16.512Z" fill="white"/>
</mask>
<g mask="url(#mask1_271_7880)">
<path d="M35.4826 17.0137V35.0092H0.517566V17.0137H35.4826ZM35.9821 16.5135H0.0180664V35.5095H35.9821V16.5135Z" fill="#5E9C76"/>
</g>
<path d="M13.005 21.6855C13.497 21.5805 14.16 21.513 14.8245 21.513C15.8602 21.513 16.6837 21.66 17.2545 22.2053C17.7862 22.6703 18.0247 23.4143 18.0247 24.171C18.0247 25.1415 17.733 25.8323 17.268 26.3243C16.71 26.9228 15.8205 27.1883 15.0907 27.1883C14.9707 27.1883 14.73 27.1883 14.6107 27.1748V30.5108H13.005V21.6855ZM14.6107 25.7655C14.703 25.7805 14.9302 25.7805 15.0367 25.7805C15.9135 25.7805 16.2982 25.155 16.2982 24.318C16.2982 23.5335 15.9795 22.9215 15.1695 22.9215C15.0097 22.9215 14.7165 22.9493 14.6107 22.9875V25.7655ZM11.0782 25.8548C11.0782 29.1675 9.82648 30.5108 8.04673 30.5108C5.91898 30.5108 5.08423 28.398 5.08423 25.986C5.08423 23.586 6.09973 21.513 8.18548 21.513C10.4385 21.513 11.0782 23.847 11.0782 25.8548ZM6.70198 26.0115C6.70198 28.1408 7.20523 29.2253 8.12473 29.2253C9.09523 29.2253 9.45973 27.8348 9.45973 25.929C9.45973 24.2873 9.14773 22.7985 8.10673 22.7985C7.20598 22.7978 6.70198 23.994 6.70198 26.0115ZM23.088 26.559H20.6047V28.989H23.376V30.5108H18.999V21.513H23.217V23.0348H20.6047V25.104H23.088V26.559ZM24.993 30.5108V21.513H26.7907L28.35 25.0373C28.665 25.731 29.1435 26.8928 29.4292 27.6675H29.4585C29.3985 26.7188 29.2635 25.1573 29.2635 23.502V21.513H30.987V30.5108H29.1892L27.6465 27.093C27.3007 26.3325 26.8515 25.1835 26.613 24.3825H26.5815C26.6415 25.29 26.7165 26.6798 26.7165 28.4955V30.5108H24.993Z" fill="white"/>
<path d="M18 0.767258C17.9182 0.767258 17.8365 0.775508 17.7562 0.791258C17.676 0.807758 17.598 0.831008 17.5222 0.862508C17.4465 0.894008 17.3745 0.932258 17.3062 0.978008C17.238 1.02376 17.175 1.07551 17.1172 1.13326C17.0587 1.19176 17.007 1.25476 16.962 1.32301C16.9162 1.39126 16.878 1.46326 16.8465 1.53901C16.815 1.61476 16.791 1.69276 16.7752 1.77301C16.7595 1.85401 16.7512 1.93501 16.7512 2.01751C16.7512 2.09926 16.7595 2.18026 16.7752 2.26126C16.791 2.34151 16.815 2.41951 16.8465 2.49526C16.878 2.57101 16.9162 2.64301 16.962 2.71126C17.007 2.77951 17.0587 2.84251 17.1172 2.90101C17.175 2.95876 17.238 3.01051 17.3062 3.05626C17.3745 3.10201 17.4465 3.14026 17.5222 3.17176C17.598 3.20326 17.676 3.22651 17.7562 3.24301C17.8365 3.25876 17.9182 3.26701 18 3.26701C18.0817 3.26701 18.1635 3.25876 18.2437 3.24301C18.324 3.22651 18.402 3.20326 18.4777 3.17176C18.5535 3.14026 18.6255 3.10201 18.6937 3.05626C18.762 3.01051 18.825 2.95876 18.8827 2.90101C18.9412 2.84251 18.993 2.77951 19.038 2.71126C19.0837 2.64301 19.122 2.57101 19.1535 2.49526C19.185 2.41951 19.209 2.34151 19.2247 2.26126C19.2405 2.18026 19.2487 2.09926 19.2487 2.01751C19.2487 1.93501 19.2405 1.85401 19.2247 1.77301C19.209 1.69276 19.185 1.61476 19.1535 1.53901C19.122 1.46326 19.0837 1.39126 19.038 1.32301C18.993 1.25476 18.9412 1.19176 18.8827 1.13326C18.825 1.07551 18.762 1.02376 18.6937 0.978008C18.6255 0.932258 18.5535 0.894008 18.4777 0.862508C18.402 0.831008 18.324 0.807758 18.2437 0.791258C18.1635 0.775508 18.0817 0.767258 18 0.767258Z" fill="#735F63"/>
<mask id="mask2_271_7880" style="mask-type:luminance" maskUnits="userSpaceOnUse" x="16" y="0" width="4" height="4">
<path d="M16.3201 0.517502H19.5841V3.648H16.3201V0.517502Z" fill="white"/>
</mask>
<g mask="url(#mask2_271_7880)">
<path d="M18 1.01775C18.5512 1.01775 18.999 1.4655 18.999 2.0175C18.999 2.56875 18.5512 3.01725 18 3.01725C17.4487 3.01725 17.001 2.56875 17.001 2.0175C17.001 1.4655 17.4487 1.01775 18 1.01775ZM18 0.517502C17.172 0.517502 16.5015 1.18875 16.5015 2.0175C16.5015 2.8455 17.172 3.51675 18 3.51675C18.828 3.51675 19.4985 2.8455 19.4985 2.0175C19.4985 1.18875 18.828 0.517502 18 0.517502Z" fill="#4D3E40"/>
</g>
</g>
<defs>
<clipPath id="clip0_271_7880">
<rect width="36" height="36" fill="white"/>
</clipPath>
</defs>
</svg>
