<svg xmlns="http://www.w3.org/2000/svg" width="113" height="113" viewBox="0 0 113 113">
  <g id="Group_1992" transform="translate(-54 -99)">
    <path id="Path_11982" d="M2.478,33.308c-.144-.43-.276-.871-.391-1.31A.717.717,0,0,0,.7,32.364c.124.469.264.94.418,1.4a.717.717,0,1,0,1.36-.455Zm1.037,2.528a.717.717,0,0,0-1.288.63c.213.435.443.869.684,1.289a.717.717,0,1,0,1.244-.713c-.225-.393-.441-.8-.64-1.206ZM.943,30.118a.717.717,0,0,0,.621-.8l0-.027c-.056-.443-.1-.892-.127-1.335A.717.717,0,1,0,0,28.044c.03.473.076.953.136,1.425l0,.027a.717.717,0,0,0,.8.621ZM9.512,43.184c-.359-.277-.714-.571-1.054-.871a.717.717,0,1,0-.948,1.075c.364.321.743.634,1.126.93a.717.717,0,1,0,.877-1.134ZM.673,25.887a.716.716,0,0,0,.763-.667c.03-.453.076-.911.137-1.36a.717.717,0,0,0-1.421-.19c-.064.481-.113.97-.146,1.454a.717.717,0,0,0,.667.763Zm4.992,13.43a.717.717,0,1,0-1.14.87c.294.385.6.766.924,1.131a.717.717,0,0,0,1.08-.943c-.3-.342-.589-.7-.864-1.058Zm-1.7-24.153a.717.717,0,0,0-.98.259c-.244.419-.478.852-.694,1.287a.717.717,0,1,0,1.284.639c.2-.407.421-.812.649-1.2A.717.717,0,0,0,3.963,15.164Zm4.212-4.1a.714.714,0,0,0,.38-.171c.341-.3.7-.589,1.058-.865a.717.717,0,0,0-.871-1.139c-.385.295-.766.606-1.13.924a.717.717,0,0,0,.563,1.251ZM19.611,5.919l.041-.005c.438-.056.883-.1,1.322-.127l.045,0a.717.717,0,0,0-.137-1.427c-.468.03-.943.076-1.416.136l-.036,0a.717.717,0,1,0,.181,1.422Zm4.1-.129c.453.03.911.076,1.36.136A.717.717,0,0,0,25.257,4.5c-.48-.064-.97-.113-1.454-.145a.717.717,0,1,0-.1,1.431ZM15.481,6.867a.716.716,0,0,0,.138-.032c.43-.144.871-.276,1.31-.392a.717.717,0,1,0-.366-1.386c-.469.124-.94.265-1.4.419a.717.717,0,0,0,.318,1.391ZM11.62,8.6a.715.715,0,0,0,.266-.09c.393-.226.8-.441,1.205-.641a.717.717,0,1,0-.631-1.288c-.434.213-.868.443-1.288.685A.717.717,0,0,0,11.62,8.6Zm1.363,36.758c-.406-.2-.811-.421-1.2-.65a.717.717,0,1,0-.722,1.239c.419.245.852.478,1.286.695a.717.717,0,1,0,.64-1.283ZM1.235,21.684a.716.716,0,0,0,.88-.5c.119-.438.254-.879.4-1.309a.717.717,0,0,0-1.356-.466c-.158.459-.3.93-.43,1.4a.717.717,0,0,0,.5.88Zm3.508-7.678a.717.717,0,0,0,1.006-.129c.277-.36.57-.714.87-1.055a.717.717,0,1,0-1.076-.948c-.321.364-.633.743-.93,1.127a.717.717,0,0,0,.129,1.006Zm39.17,13.429a.717.717,0,0,0-.764.666c-.031.452-.078.91-.138,1.36a.717.717,0,0,0,1.421.192c.065-.481.115-.97.148-1.454a.717.717,0,0,0-.666-.764Zm-1.948,8.214a.717.717,0,0,0-.962.321c-.2.406-.422.811-.651,1.2a.717.717,0,1,0,1.238.723c.245-.419.479-.852.7-1.286a.717.717,0,0,0-.321-.962Zm2.484-11.825-.007-.055a.717.717,0,0,0-.8-.619h0a.717.717,0,0,0-.619.8l.007.053c.058.451.1.91.129,1.362a.717.717,0,0,0,.76.671l.047,0a.717.717,0,0,0,.624-.756c-.03-.483-.076-.972-.138-1.456Zm-1.1,7.815a.717.717,0,0,0-.88.5c-.12.439-.255.879-.4,1.308a.717.717,0,1,0,1.355.468c.158-.459.3-.929.431-1.4a.717.717,0,0,0-.5-.88ZM38.335,0A10.619,10.619,0,0,0,27.728,10.607c0,.007,0,.013,0,.02A16.863,16.863,0,1,0,38.315,21.213h.02A10.607,10.607,0,0,0,38.335,0Zm-16,42.038a15.431,15.431,0,1,1,5.512-29.845,10.631,10.631,0,0,0,8.9,8.9A15.432,15.432,0,0,1,22.335,42.038Zm16-22.259a9.173,9.173,0,1,1,9.173-9.173,9.173,9.173,0,0,1-9.173,9.173Zm3.2-11.159V6.162h.86a.717.717,0,1,0,0-1.434H34.272a.717.717,0,1,0,0,1.434h.86V8.621a1.677,1.677,0,0,0,.837,1.449l.931.537-.931.537a1.677,1.677,0,0,0-.837,1.449v2.459h-.86a.717.717,0,0,0,0,1.434H42.4a.717.717,0,1,0,0-1.434h-.86V12.592a1.677,1.677,0,0,0-.837-1.449l-.931-.537.931-.537a1.677,1.677,0,0,0,.837-1.449Zm-1.553,3.765h0a.239.239,0,0,1,.119.207v2.459H36.566V12.592a.24.24,0,0,1,.12-.207l1.649-.951Zm.12-3.765a.24.24,0,0,1-.12.207l-1.649.951-1.649-.951a.24.24,0,0,1-.12-.207V6.162H40.1ZM27.55,19.5a.717.717,0,0,0-.717-.717h-9a.717.717,0,0,0,0,1.434H19.5a4.159,4.159,0,0,1,4.1,3.474H17.836a.717.717,0,0,0,0,1.434h5.744a4.159,4.159,0,0,1-4.083,3.4H17.911a.717.717,0,0,0-.27.053l-.048.019a.717.717,0,0,0-.249,1.159l6.514,6.82a.717.717,0,1,0,1.037-.99l-5.375-5.628a5.594,5.594,0,0,0,5.511-4.833h1.8a.717.717,0,0,0,0-1.434H25.041a5.579,5.579,0,0,0-1.812-3.474h3.6a.717.717,0,0,0,.717-.717Zm5.127,25.294c-.394.225-.8.44-1.206.639A.717.717,0,1,0,32.1,46.72c.435-.212.868-.442,1.289-.683a.717.717,0,0,0-.712-1.244Zm-7.729,2.586-.014,0c-.446.057-.9.1-1.349.128a.717.717,0,1,0,.09,1.431c.479-.03.963-.076,1.439-.137l.014,0a.717.717,0,0,0-.181-1.422Zm14.88-8.068a.717.717,0,0,0-1.006.128c-.278.359-.571.714-.872,1.054a.717.717,0,0,0,1.075.949c.321-.363.634-.742.931-1.125a.717.717,0,0,0-.128-1.006ZM28.942,46.467c-.429.144-.87.275-1.31.391a.717.717,0,0,0,.272,1.4A.733.733,0,0,0,28,48.244c.47-.124.941-.264,1.4-.417a.717.717,0,1,0-.455-1.36ZM20.853,47.5c-.452-.031-.91-.077-1.36-.137a.717.717,0,1,0-.191,1.421c.481.065.97.114,1.454.147a.717.717,0,0,0,.1-1.431Zm15.159-5.083c-.342.3-.7.589-1.059.864a.717.717,0,0,0,.869,1.14c.385-.294.766-.6,1.132-.923a.717.717,0,0,0-.942-1.081Zm-19.2,4.4c-.439-.119-.879-.255-1.308-.4a.717.717,0,1,0-.467,1.356c.459.158.929.3,1.4.43a.717.717,0,0,0,.376-1.383Z" transform="translate(86.029 131.029)" fill="#8589f0"/>
  </g>
</svg>
