<svg width="12" height="23" viewBox="0 0 12 23" fill="none" xmlns="http://www.w3.org/2000/svg">
<path d="M4.77 6C4.77 5.65533 4.88867 5.364 5.126 5.126C5.364 4.888 5.65533 4.769 6 4.769C6.34467 4.769 6.636 4.888 6.874 5.126C7.112 5.364 7.231 5.65533 7.231 6C7.231 6.34467 7.112 6.636 6.874 6.874C6.636 7.112 6.34467 7.231 6 7.231C5.65533 7.231 5.364 7.112 5.126 6.874C4.888 6.636 4.769 6.34467 4.769 6H4.77ZM1 6C1 4.61533 1.48733 3.436 2.462 2.462C3.436 1.48733 4.61533 1 6 1C7.38467 1 8.564 1.48733 9.538 2.462C10.5127 3.436 11 4.61533 11 6C11 7.02667 10.7217 7.95267 10.165 8.778C9.609 9.60267 8.88733 10.205 8 10.585L8 19.788L6 21.788L2.846 18.596L4.135 16.885L2.808 15.077L4 13.298V10.585C3.12533 10.205 2.40667 9.60267 1.844 8.778C1.28133 7.95267 1 7.02667 1 6ZM2 6C2 6.98467 2.296 7.82467 2.888 8.52C3.48067 9.21533 4.18467 9.66067 5 9.856V13.616L4.033 15.046L5.365 16.904L4.145 18.525L6 20.381L7 19.381L7 9.856C7.81533 9.66067 8.51933 9.21533 9.112 8.52C9.704 7.82467 10 6.98467 10 6C10 4.9 9.60833 3.95833 8.825 3.175C8.04167 2.39167 7.1 2 6 2C4.9 2 3.95833 2.39167 3.175 3.175C2.39167 3.95833 2 4.9 2 6Z" fill="#1C1C1E" stroke="#1C1C1E" stroke-width="0.75"/>
</svg>
