<svg xmlns="http://www.w3.org/2000/svg" width="113" height="113" viewBox="0 0 113 113">
  <g id="Group_2010" transform="translate(-49.34 -98)">
    <g id="Group_1992" transform="translate(49.34 98)">
    </g>
    <g id="Layer_1" transform="translate(81.84 129.5)">
      <path id="Path_11976" d="M25,1a23.913,23.913,0,0,0-8.348,1.492l.7,1.875A22.086,22.086,0,1,1,11,8.042V15h2V5H3V7H9.126A24,24,0,1,0,25,1Z" fill="#f99600"/>
      <path id="Path_11977" d="M19,33H17v2H33V33H31V29.586L26.414,25,31,20.414V17h2V15H17v2h2v3.414L23.586,25,19,29.586Zm2-13.414V17h8v2.586l-4,4Zm4,6.828,4,4V33H21V30.414l4-4Z" fill="#f99600"/>
      <path id="Path_11978" d="M19,39h2v2H19Z" fill="#f99600"/>
      <path id="Path_11979" d="M24,39h2v2H24Z" fill="#f99600"/>
      <path id="Path_11980" d="M29,39h2v2H29Z" fill="#f99600"/>
    </g>
  </g>
</svg>
