<svg width="320" height="178" viewBox="0 0 320 178" fill="none" xmlns="http://www.w3.org/2000/svg">
<rect x="0.5" y="0.5" width="319" height="177" rx="7.5" fill="white" stroke="#E4E4E4"/>
<path d="M17.233 28V17.8182H20.6733C21.4721 17.8182 22.125 17.9624 22.6321 18.2507C23.1425 18.5357 23.5204 18.9219 23.7656 19.4091C24.0109 19.8963 24.1335 20.4399 24.1335 21.0398C24.1335 21.6397 24.0109 22.1849 23.7656 22.6754C23.5237 23.166 23.1491 23.5571 22.642 23.8487C22.1349 24.1371 21.4853 24.2812 20.6932 24.2812H18.2273V23.1875H20.6534C21.2003 23.1875 21.6394 23.093 21.9709 22.9041C22.3023 22.7152 22.5426 22.46 22.6918 22.1385C22.8442 21.8137 22.9205 21.4474 22.9205 21.0398C22.9205 20.6321 22.8442 20.2675 22.6918 19.946C22.5426 19.6245 22.3007 19.3726 21.9659 19.1903C21.6312 19.0047 21.187 18.9119 20.6335 18.9119H18.4659V28H17.233ZM34.7106 22.9091C34.7106 23.983 34.5167 24.911 34.1289 25.6932C33.7411 26.4754 33.2092 27.0786 32.533 27.5028C31.8569 27.9271 31.0846 28.1392 30.2163 28.1392C29.3479 28.1392 28.5756 27.9271 27.8995 27.5028C27.2234 27.0786 26.6914 26.4754 26.3036 25.6932C25.9158 24.911 25.7219 23.983 25.7219 22.9091C25.7219 21.8352 25.9158 20.9072 26.3036 20.125C26.6914 19.3428 27.2234 18.7396 27.8995 18.3153C28.5756 17.8911 29.3479 17.679 30.2163 17.679C31.0846 17.679 31.8569 17.8911 32.533 18.3153C33.2092 18.7396 33.7411 19.3428 34.1289 20.125C34.5167 20.9072 34.7106 21.8352 34.7106 22.9091ZM33.5174 22.9091C33.5174 22.0275 33.3699 21.2834 33.0749 20.6768C32.7833 20.0703 32.3872 19.6113 31.8867 19.2997C31.3896 18.9882 30.8327 18.8324 30.2163 18.8324C29.5998 18.8324 29.0413 18.9882 28.5408 19.2997C28.0437 19.6113 27.6476 20.0703 27.3526 20.6768C27.061 21.2834 26.9151 22.0275 26.9151 22.9091C26.9151 23.7907 27.061 24.5348 27.3526 25.1413C27.6476 25.7479 28.0437 26.2069 28.5408 26.5185C29.0413 26.83 29.5998 26.9858 30.2163 26.9858C30.8327 26.9858 31.3896 26.83 31.8867 26.5185C32.3872 26.2069 32.7833 25.7479 33.0749 25.1413C33.3699 24.5348 33.5174 23.7907 33.5174 22.9091ZM42.3519 20.3636C42.2923 19.8598 42.0503 19.4688 41.6261 19.1903C41.2018 18.9119 40.6815 18.7727 40.065 18.7727C39.6142 18.7727 39.2198 18.8456 38.8817 18.9915C38.547 19.1373 38.2852 19.3378 38.0962 19.593C37.9106 19.8482 37.8178 20.1383 37.8178 20.4631C37.8178 20.7348 37.8825 20.9685 38.0117 21.1641C38.1443 21.3563 38.3133 21.517 38.5188 21.6463C38.7243 21.7723 38.9397 21.8767 39.1651 21.9595C39.3905 22.0391 39.5977 22.1037 39.7866 22.1534L40.8207 22.4318C41.0858 22.5014 41.3808 22.5975 41.7056 22.7202C42.0337 22.8428 42.3469 23.0102 42.6452 23.2223C42.9469 23.4311 43.1954 23.6996 43.391 24.0277C43.5865 24.3558 43.6843 24.7585 43.6843 25.2358C43.6843 25.786 43.5401 26.2831 43.2518 26.7273C42.9667 27.1714 42.5491 27.5244 41.9989 27.7862C41.4521 28.0481 40.7875 28.179 40.0053 28.179C39.2762 28.179 38.6448 28.0613 38.1112 27.826C37.5808 27.5907 37.1632 27.2625 36.8583 26.8416C36.5567 26.4207 36.386 25.9318 36.3462 25.375H37.619C37.6521 25.7595 37.7814 26.0777 38.0067 26.3295C38.2354 26.5781 38.5238 26.7637 38.8718 26.8864C39.2231 27.0057 39.601 27.0653 40.0053 27.0653C40.476 27.0653 40.8986 26.9891 41.2731 26.8366C41.6476 26.6809 41.9442 26.4654 42.163 26.1903C42.3817 25.9119 42.4911 25.5871 42.4911 25.2159C42.4911 24.8778 42.3967 24.6027 42.2077 24.3906C42.0188 24.1785 41.7702 24.0062 41.462 23.8736C41.1538 23.741 40.8207 23.625 40.4627 23.5256L39.2099 23.1676C38.4144 22.9389 37.7847 22.6125 37.3207 22.1882C36.8567 21.764 36.6246 21.2088 36.6246 20.5227C36.6246 19.9527 36.7788 19.4555 37.087 19.0312C37.3986 18.6037 37.8162 18.2723 38.3398 18.0369C38.8668 17.7983 39.4551 17.679 40.1048 17.679C40.761 17.679 41.3443 17.7966 41.8548 18.032C42.3652 18.264 42.7695 18.5821 43.0678 18.9865C43.3694 19.3909 43.5285 19.8499 43.5451 20.3636H42.3519ZM53.0495 17.8182V28H51.8166V19.1108H51.7569L49.2711 20.7614V19.5085L51.8166 17.8182H53.0495Z" fill="#1C1C1E"/>
<g clip-path="url(#clip0_265_7577)">
<path d="M64 21L69 26L74 21H64Z" fill="#1C1C1E"/>
</g>
<path d="M291.625 23.9375C292.262 23.9373 292.882 24.1491 293.386 24.5394C293.89 24.9297 294.25 25.4765 294.409 26.0938H302.406C302.586 26.0934 302.759 26.1603 302.892 26.2814C303.025 26.4024 303.107 26.5687 303.123 26.7476C303.14 26.9264 303.088 27.1049 302.979 27.2478C302.871 27.3907 302.712 27.4878 302.536 27.5197L302.406 27.5312L294.409 27.5327C294.251 28.1505 293.891 28.6979 293.387 29.0888C292.883 29.4796 292.263 29.6918 291.625 29.6918C290.987 29.6918 290.367 29.4796 289.863 29.0888C289.359 28.6979 288.999 28.1505 288.841 27.5327L286.594 27.5312C286.414 27.5316 286.241 27.4647 286.108 27.3436C285.975 27.2226 285.893 27.0563 285.877 26.8774C285.86 26.6986 285.912 26.5201 286.02 26.3772C286.129 26.2343 286.288 26.1372 286.464 26.1053L286.594 26.0938H288.841C289 25.4765 289.36 24.9297 289.864 24.5394C290.368 24.1491 290.987 23.9373 291.625 23.9375ZM291.625 25.375C291.244 25.375 290.878 25.5265 290.609 25.796C290.339 26.0656 290.187 26.4313 290.187 26.8125C290.187 27.1937 290.339 27.5594 290.609 27.829C290.878 28.0985 291.244 28.25 291.625 28.25C292.006 28.25 292.372 28.0985 292.641 27.829C292.911 27.5594 293.062 27.1937 293.062 26.8125C293.062 26.4313 292.911 26.0656 292.641 25.796C292.372 25.5265 292.006 25.375 291.625 25.375ZM297.375 15.3125C298.012 15.3123 298.632 15.5241 299.136 15.9144C299.64 16.3047 300 16.8515 300.159 17.4688H302.406C302.586 17.4684 302.759 17.5353 302.892 17.6564C303.025 17.7774 303.107 17.9437 303.123 18.1226C303.14 18.3014 303.088 18.4799 302.979 18.6228C302.871 18.7657 302.712 18.8628 302.536 18.8948L302.406 18.9062L300.159 18.9077C300.001 19.5255 299.641 20.0729 299.137 20.4638C298.633 20.8546 298.013 21.0668 297.375 21.0668C296.737 21.0668 296.117 20.8546 295.613 20.4638C295.109 20.0729 294.749 19.5255 294.591 18.9077L286.594 18.9062C286.414 18.9066 286.241 18.8397 286.108 18.7186C285.975 18.5976 285.893 18.4313 285.877 18.2524C285.86 18.0736 285.912 17.8951 286.02 17.7522C286.129 17.6093 286.288 17.5122 286.464 17.4803L286.594 17.4688H294.591C294.75 16.8515 295.11 16.3047 295.614 15.9144C296.118 15.5241 296.737 15.3123 297.375 15.3125ZM297.375 16.75C296.994 16.75 296.628 16.9015 296.359 17.171C296.089 17.4406 295.937 17.8063 295.937 18.1875C295.937 18.5687 296.089 18.9344 296.359 19.204C296.628 19.4735 296.994 19.625 297.375 19.625C297.756 19.625 298.122 19.4735 298.391 19.204C298.661 18.9344 298.812 18.5687 298.812 18.1875C298.812 17.8063 298.661 17.4406 298.391 17.171C298.122 16.9015 297.756 16.75 297.375 16.75Z" fill="#1C1C1E"/>
<path d="M70 84C70 76.8392 67.1554 69.9716 62.0919 64.9081C57.0284 59.8446 50.1608 57 43 57C35.8392 57 28.9716 59.8446 23.9081 64.9081C18.8446 69.9716 16 76.8392 16 84H18.9792C18.9792 77.6293 21.5099 71.5195 26.0147 67.0147C30.5195 62.5099 36.6293 59.9792 43 59.9792C49.3707 59.9792 55.4805 62.5099 59.9853 67.0147C64.4901 71.5195 67.0208 77.6293 67.0208 84H70Z" fill="#D9D9D9"/>
<path d="M34.0071 83.1293C33.3731 83.1293 32.813 83.0169 32.3267 82.7923C31.8435 82.5645 31.4665 82.2521 31.1957 81.8551C30.9248 81.455 30.791 80.9995 30.794 80.4886C30.791 80.0885 30.8694 79.7192 31.0295 79.3807C31.1895 79.0391 31.408 78.7544 31.685 78.5266C31.9651 78.2958 32.2775 78.1496 32.6222 78.0881V78.0327C32.1697 77.9157 31.8097 77.6618 31.5419 77.271C31.2741 76.877 31.1418 76.4292 31.1449 75.9276C31.1418 75.4474 31.2634 75.0181 31.5096 74.6396C31.7558 74.261 32.0943 73.9625 32.5252 73.744C32.9592 73.5254 33.4531 73.4162 34.0071 73.4162C34.5549 73.4162 35.0443 73.5254 35.4751 73.744C35.906 73.9625 36.2446 74.261 36.4908 74.6396C36.7401 75.0181 36.8662 75.4474 36.8693 75.9276C36.8662 76.4292 36.7293 76.877 36.4585 77.271C36.1907 77.6618 35.8352 77.9157 35.392 78.0327V78.0881C35.7337 78.1496 36.0414 78.2958 36.3153 78.5266C36.5893 78.7544 36.8078 79.0391 36.9709 79.3807C37.134 79.7192 37.2171 80.0885 37.2202 80.4886C37.2171 80.9995 37.0786 81.455 36.8047 81.8551C36.5339 82.2521 36.1568 82.5645 35.6737 82.7923C35.1935 83.0169 34.638 83.1293 34.0071 83.1293ZM34.0071 82.1136C34.4349 82.1136 34.8042 82.0444 35.1151 81.9059C35.4259 81.7674 35.666 81.572 35.8352 81.3196C36.0045 81.0672 36.0907 80.7718 36.0938 80.4332C36.0907 80.0762 35.9983 79.7608 35.8168 79.4869C35.6352 79.2129 35.3874 78.9975 35.0735 78.8406C34.7627 78.6836 34.4072 78.6051 34.0071 78.6051C33.6039 78.6051 33.2438 78.6836 32.9268 78.8406C32.6129 78.9975 32.3652 79.2129 32.1836 79.4869C32.0051 79.7608 31.9174 80.0762 31.9205 80.4332C31.9174 80.7718 31.9989 81.0672 32.1651 81.3196C32.3344 81.572 32.576 81.7674 32.8899 81.9059C33.2038 82.0444 33.5762 82.1136 34.0071 82.1136ZM34.0071 77.6264C34.3456 77.6264 34.6457 77.5587 34.9073 77.4233C35.172 77.2879 35.3797 77.0986 35.5305 76.8555C35.6813 76.6123 35.7583 76.3277 35.7614 76.0014C35.7583 75.6813 35.6829 75.4028 35.5352 75.1658C35.3874 74.9258 35.1828 74.7411 34.9212 74.6119C34.6596 74.4795 34.3549 74.4134 34.0071 74.4134C33.6532 74.4134 33.3439 74.4795 33.0792 74.6119C32.8145 74.7411 32.6098 74.9258 32.4652 75.1658C32.3205 75.4028 32.2498 75.6813 32.2528 76.0014C32.2498 76.3277 32.3221 76.6123 32.4698 76.8555C32.6206 77.0986 32.8284 77.2879 33.093 77.4233C33.3577 77.5587 33.6624 77.6264 34.0071 77.6264ZM41.9994 73.4162C42.3872 73.4193 42.7749 73.4931 43.1627 73.6378C43.5505 73.7824 43.9044 74.0225 44.2245 74.358C44.5446 74.6903 44.8016 75.1443 44.9955 75.7198C45.1894 76.2953 45.2863 77.017 45.2863 77.8849C45.2863 78.7251 45.2063 79.4715 45.0463 80.1239C44.8893 80.7733 44.6615 81.3211 44.363 81.7674C44.0676 82.2137 43.7075 82.5522 43.2828 82.783C42.8611 83.0138 42.3841 83.1293 41.8517 83.1293C41.3223 83.1293 40.8499 83.0246 40.4344 82.8153C40.022 82.603 39.6834 82.3091 39.4188 81.9336C39.1572 81.555 38.9894 81.1165 38.9156 80.6179H40.042C40.1436 81.0518 40.3451 81.4104 40.6468 81.6935C40.9514 81.9736 41.3531 82.1136 41.8517 82.1136C42.5811 82.1136 43.1566 81.7951 43.5782 81.158C44.0029 80.521 44.2153 79.6207 44.2153 78.4574H44.1414C43.9691 78.7159 43.7644 78.939 43.5274 79.1268C43.2905 79.3145 43.0273 79.4592 42.738 79.5607C42.4487 79.6623 42.141 79.7131 41.8147 79.7131C41.2731 79.7131 40.776 79.5792 40.3236 79.3114C39.8743 79.0406 39.5142 78.6697 39.2433 78.1989C38.9756 77.7249 38.8417 77.1832 38.8417 76.5739C38.8417 75.9953 38.971 75.4659 39.2295 74.9858C39.4911 74.5026 39.8573 74.1179 40.3282 73.8317C40.8022 73.5455 41.3592 73.407 41.9994 73.4162ZM41.9994 74.4318C41.6116 74.4318 41.2623 74.5288 40.9514 74.7227C40.6437 74.9135 40.399 75.172 40.2174 75.4982C40.0389 75.8214 39.9497 76.1799 39.9497 76.5739C39.9497 76.9678 40.0358 77.3263 40.2082 77.6495C40.3836 77.9696 40.6221 78.225 40.9237 78.4158C41.2284 78.6036 41.5747 78.6974 41.9624 78.6974C42.2548 78.6974 42.5272 78.6405 42.7796 78.5266C43.0319 78.4097 43.252 78.2512 43.4397 78.0511C43.6305 77.848 43.7798 77.6187 43.8875 77.3633C43.9952 77.1048 44.0491 76.8355 44.0491 76.5554C44.0491 76.1861 43.9598 75.8398 43.7813 75.5167C43.6059 75.1935 43.3628 74.9319 43.0519 74.7319C42.7442 74.5318 42.3933 74.4318 41.9994 74.4318ZM51.9213 81.2273V80.7287C51.9213 80.384 51.9921 80.0685 52.1337 79.7823C52.2784 79.493 52.4876 79.2622 52.7615 79.0898C53.0385 78.9144 53.374 78.8267 53.7679 78.8267C54.168 78.8267 54.5035 78.9144 54.7743 79.0898C55.0452 79.2622 55.2498 79.493 55.3883 79.7823C55.5268 80.0685 55.5961 80.384 55.5961 80.7287V81.2273C55.5961 81.572 55.5253 81.889 55.3837 82.1783C55.2452 82.4645 55.039 82.6953 54.7651 82.8707C54.4943 83.0431 54.1619 83.1293 53.7679 83.1293C53.3678 83.1293 53.0308 83.0431 52.7569 82.8707C52.483 82.6953 52.2753 82.4645 52.1337 82.1783C51.9921 81.889 51.9213 81.572 51.9213 81.2273ZM52.8631 80.7287V81.2273C52.8631 81.5135 52.9308 81.7705 53.0662 81.9982C53.2016 82.2229 53.4355 82.3352 53.7679 82.3352C54.0911 82.3352 54.3188 82.2229 54.4512 81.9982C54.5866 81.7705 54.6543 81.5135 54.6543 81.2273V80.7287C54.6543 80.4425 54.5897 80.187 54.4604 79.9624C54.3311 79.7346 54.1003 79.6207 53.7679 79.6207C53.4448 79.6207 53.2124 79.7346 53.0708 79.9624C52.9324 80.187 52.8631 80.4425 52.8631 80.7287ZM47.2125 75.8168V75.3182C47.2125 74.9735 47.2833 74.658 47.4249 74.3718C47.5695 74.0825 47.7788 73.8517 48.0527 73.6793C48.3297 73.5039 48.6652 73.4162 49.0591 73.4162C49.4592 73.4162 49.7947 73.5039 50.0655 73.6793C50.3364 73.8517 50.541 74.0825 50.6795 74.3718C50.818 74.658 50.8873 74.9735 50.8873 75.3182V75.8168C50.8873 76.1615 50.8165 76.4785 50.6749 76.7678C50.5364 77.054 50.3302 77.2848 50.0563 77.4602C49.7855 77.6326 49.4531 77.7188 49.0591 77.7188C48.659 77.7188 48.322 77.6326 48.0481 77.4602C47.7742 77.2848 47.5665 77.054 47.4249 76.7678C47.2833 76.4785 47.2125 76.1615 47.2125 75.8168ZM48.1543 75.3182V75.8168C48.1543 76.103 48.222 76.36 48.3574 76.5877C48.4928 76.8124 48.7267 76.9247 49.0591 76.9247C49.3823 76.9247 49.61 76.8124 49.7424 76.5877C49.8778 76.36 49.9455 76.103 49.9455 75.8168V75.3182C49.9455 75.032 49.8809 74.7765 49.7516 74.5518C49.6223 74.3241 49.3915 74.2102 49.0591 74.2102C48.736 74.2102 48.5036 74.3241 48.362 74.5518C48.2235 74.7765 48.1543 75.032 48.1543 75.3182ZM47.5634 83L54.0634 73.5455H55.1159L48.6159 83H47.5634Z" fill="#1C1C1E"/>
<path d="M43 98L56 111L43 124L30 111L43 98Z" fill="#D9D9D9"/>
<path d="M38.7656 114.011V112.768L43.1655 105.818H44.1449V107.648H43.5234L40.3764 112.629V112.709H46.407V114.011H38.7656ZM43.593 116V113.634L43.603 113.067V105.818H45.0597V116H43.593Z" fill="#1C1C1E"/>
<path d="M29.9631 137.909C29.9631 138.996 29.7642 139.931 29.3665 140.713C28.9688 141.492 28.4235 142.092 27.7308 142.513C27.0414 142.93 26.2576 143.139 25.3793 143.139C24.4976 143.139 23.7105 142.93 23.0178 142.513C22.3284 142.092 21.7848 141.49 21.3871 140.708C20.9893 139.926 20.7905 138.993 20.7905 137.909C20.7905 136.822 20.9893 135.889 21.3871 135.11C21.7848 134.328 22.3284 133.728 23.0178 133.31C23.7105 132.889 24.4976 132.679 25.3793 132.679C26.2576 132.679 27.0414 132.889 27.7308 133.31C28.4235 133.728 28.9688 134.328 29.3665 135.11C29.7642 135.889 29.9631 136.822 29.9631 137.909ZM28.4418 137.909C28.4418 137.08 28.3075 136.383 28.0391 135.816C27.7739 135.246 27.4093 134.815 26.9453 134.523C26.4846 134.228 25.9626 134.081 25.3793 134.081C24.7926 134.081 24.2689 134.228 23.8082 134.523C23.3475 134.815 22.983 135.246 22.7145 135.816C22.4493 136.383 22.3168 137.08 22.3168 137.909C22.3168 138.738 22.4493 139.437 22.7145 140.007C22.983 140.574 23.3475 141.005 23.8082 141.3C24.2689 141.591 24.7926 141.737 25.3793 141.737C25.9626 141.737 26.4846 141.591 26.9453 141.3C27.4093 141.005 27.7739 140.574 28.0391 140.007C28.3075 139.437 28.4418 138.738 28.4418 137.909ZM31.7591 143V135.364H33.1958V136.577H33.2754C33.4146 136.166 33.6599 135.843 34.0112 135.607C34.3658 135.369 34.7669 135.249 35.2143 135.249C35.3071 135.249 35.4165 135.253 35.5424 135.259C35.6717 135.266 35.7728 135.274 35.8457 135.284V136.706C35.786 136.689 35.68 136.671 35.5275 136.651C35.3751 136.628 35.2226 136.616 35.0701 136.616C34.7188 136.616 34.4056 136.691 34.1305 136.84C33.8587 136.986 33.6433 137.19 33.4842 137.452C33.3251 137.71 33.2456 138.005 33.2456 138.337V143H31.7591ZM39.7173 143.149C39.1009 143.149 38.5507 142.992 38.0668 142.677C37.5862 142.359 37.2083 141.906 36.9332 141.32C36.6615 140.73 36.5256 140.022 36.5256 139.197C36.5256 138.371 36.6631 137.665 36.9382 137.079C37.2166 136.492 37.5978 136.043 38.0817 135.732C38.5656 135.42 39.1141 135.264 39.7273 135.264C40.2012 135.264 40.5824 135.344 40.8707 135.503C41.1624 135.659 41.3878 135.841 41.5469 136.05C41.7093 136.259 41.8352 136.442 41.9247 136.602H42.0142V132.818H43.5007V143H42.049V141.812H41.9247C41.8352 141.974 41.706 142.16 41.5369 142.369C41.3712 142.577 41.1425 142.76 40.8509 142.915C40.5592 143.071 40.1813 143.149 39.7173 143.149ZM40.0455 141.881C40.473 141.881 40.8343 141.769 41.1293 141.543C41.4276 141.315 41.6529 140.998 41.8054 140.594C41.9612 140.189 42.0391 139.719 42.0391 139.182C42.0391 138.652 41.9628 138.187 41.8104 137.79C41.6579 137.392 41.4342 137.082 41.1392 136.86C40.8442 136.638 40.4796 136.527 40.0455 136.527C39.598 136.527 39.2251 136.643 38.9268 136.875C38.6286 137.107 38.4032 137.424 38.2507 137.825C38.1016 138.226 38.027 138.678 38.027 139.182C38.027 139.692 38.1032 140.151 38.2557 140.559C38.4081 140.967 38.6335 141.29 38.9318 141.528C39.2334 141.764 39.6046 141.881 40.0455 141.881ZM48.9135 143.154C48.1612 143.154 47.5132 142.993 46.9696 142.672C46.4294 142.347 46.0118 141.891 45.7168 141.305C45.4251 140.715 45.2793 140.024 45.2793 139.232C45.2793 138.449 45.4251 137.76 45.7168 137.163C46.0118 136.567 46.4228 136.101 46.9498 135.766C47.4801 135.432 48.0998 135.264 48.8091 135.264C49.24 135.264 49.6576 135.335 50.062 135.478C50.4663 135.621 50.8292 135.844 51.1507 136.149C51.4722 136.454 51.7258 136.85 51.9114 137.337C52.097 137.821 52.1898 138.41 52.1898 139.102V139.629H46.1195V138.516H50.7331C50.7331 138.125 50.6536 137.778 50.4945 137.477C50.3354 137.172 50.1117 136.931 49.8233 136.756C49.5383 136.58 49.2035 136.492 48.8191 136.492C48.4015 136.492 48.0369 136.595 47.7253 136.8C47.4171 137.003 47.1784 137.268 47.0094 137.596C46.8437 137.921 46.7608 138.274 46.7608 138.655V139.525C46.7608 140.035 46.8503 140.469 47.0293 140.827C47.2116 141.185 47.4651 141.459 47.79 141.648C48.1148 141.833 48.4943 141.926 48.9284 141.926C49.2102 141.926 49.467 141.886 49.699 141.807C49.931 141.724 50.1316 141.601 50.3006 141.439C50.4696 141.277 50.5989 141.076 50.6884 140.837L52.0953 141.091C51.9827 141.505 51.7805 141.868 51.4888 142.18C51.2005 142.488 50.8375 142.728 50.4 142.901C49.9658 143.07 49.4703 143.154 48.9135 143.154ZM53.8391 143V135.364H55.2759V136.577H55.3555C55.4947 136.166 55.7399 135.843 56.0913 135.607C56.4459 135.369 56.8469 135.249 57.2944 135.249C57.3872 135.249 57.4966 135.253 57.6225 135.259C57.7518 135.266 57.8529 135.274 57.9258 135.284V136.706C57.8661 136.689 57.7601 136.671 57.6076 136.651C57.4551 136.628 57.3027 136.616 57.1502 136.616C56.7989 136.616 56.4857 136.691 56.2106 136.84C55.9388 136.986 55.7234 137.19 55.5643 137.452C55.4052 137.71 55.3256 138.005 55.3256 138.337V143H53.8391ZM64.9345 137.228L63.5872 137.467C63.5308 137.294 63.4413 137.13 63.3187 136.974C63.1994 136.819 63.037 136.691 62.8315 136.592C62.626 136.492 62.3691 136.442 62.0609 136.442C61.64 136.442 61.2886 136.537 61.0069 136.726C60.7252 136.911 60.5843 137.152 60.5843 137.447C60.5843 137.702 60.6788 137.907 60.8677 138.063C61.0566 138.219 61.3616 138.347 61.7825 138.446L62.9956 138.724C63.6982 138.887 64.2219 139.137 64.5666 139.475C64.9113 139.813 65.0836 140.252 65.0836 140.793C65.0836 141.25 64.9511 141.658 64.6859 142.016C64.4241 142.37 64.0578 142.649 63.5872 142.851C63.1199 143.053 62.5779 143.154 61.9615 143.154C61.1064 143.154 60.4087 142.972 59.8684 142.607C59.3282 142.239 58.9967 141.717 58.8741 141.041L60.3109 140.822C60.4004 141.197 60.5843 141.48 60.8627 141.673C61.1412 141.862 61.5041 141.956 61.9515 141.956C62.4387 141.956 62.8282 141.855 63.1199 141.653C63.4115 141.447 63.5574 141.197 63.5574 140.902C63.5574 140.663 63.4679 140.463 63.2889 140.3C63.1132 140.138 62.8431 140.015 62.4785 139.933L61.1859 139.649C60.4733 139.487 59.9463 139.228 59.6049 138.874C59.2669 138.519 59.0978 138.07 59.0978 137.526C59.0978 137.076 59.2238 136.681 59.4757 136.343C59.7276 136.005 60.0756 135.741 60.5197 135.553C60.9638 135.36 61.4726 135.264 62.046 135.264C62.8713 135.264 63.5209 135.443 63.9949 135.801C64.4688 136.156 64.782 136.631 64.9345 137.228Z" fill="#1C1C1E"/>
<path d="M128 84C128 76.8392 125.155 69.9716 120.092 64.9081C115.028 59.8446 108.161 57 101 57C93.8392 57 86.9716 59.8446 81.9081 64.9081C76.8446 69.9716 74 76.8392 74 84H76.9792C76.9792 77.6293 79.5099 71.5195 84.0147 67.0147C88.5195 62.5099 94.6293 59.9792 101 59.9792C107.371 59.9792 113.481 62.5099 117.985 67.0147C122.49 71.5195 125.021 77.6293 125.021 84H128Z" fill="#D9D9D9"/>
<path d="M92.0071 83.1293C91.3731 83.1293 90.813 83.0169 90.3267 82.7923C89.8435 82.5645 89.4665 82.2521 89.1957 81.8551C88.9248 81.455 88.791 80.9995 88.794 80.4886C88.791 80.0885 88.8694 79.7192 89.0295 79.3807C89.1895 79.0391 89.408 78.7544 89.685 78.5266C89.9651 78.2958 90.2775 78.1496 90.6222 78.0881V78.0327C90.1697 77.9157 89.8097 77.6618 89.5419 77.271C89.2741 76.877 89.1418 76.4292 89.1449 75.9276C89.1418 75.4474 89.2634 75.0181 89.5096 74.6396C89.7558 74.261 90.0943 73.9625 90.5252 73.744C90.9592 73.5254 91.4531 73.4162 92.0071 73.4162C92.5549 73.4162 93.0443 73.5254 93.4751 73.744C93.906 73.9625 94.2446 74.261 94.4908 74.6396C94.7401 75.0181 94.8662 75.4474 94.8693 75.9276C94.8662 76.4292 94.7293 76.877 94.4585 77.271C94.1907 77.6618 93.8352 77.9157 93.392 78.0327V78.0881C93.7337 78.1496 94.0414 78.2958 94.3153 78.5266C94.5893 78.7544 94.8078 79.0391 94.9709 79.3807C95.134 79.7192 95.2171 80.0885 95.2202 80.4886C95.2171 80.9995 95.0786 81.455 94.8047 81.8551C94.5339 82.2521 94.1568 82.5645 93.6737 82.7923C93.1935 83.0169 92.638 83.1293 92.0071 83.1293ZM92.0071 82.1136C92.4349 82.1136 92.8042 82.0444 93.1151 81.9059C93.4259 81.7674 93.666 81.572 93.8352 81.3196C94.0045 81.0672 94.0907 80.7718 94.0938 80.4332C94.0907 80.0762 93.9983 79.7608 93.8168 79.4869C93.6352 79.2129 93.3874 78.9975 93.0735 78.8406C92.7627 78.6836 92.4072 78.6051 92.0071 78.6051C91.6039 78.6051 91.2438 78.6836 90.9268 78.8406C90.6129 78.9975 90.3652 79.2129 90.1836 79.4869C90.0051 79.7608 89.9174 80.0762 89.9205 80.4332C89.9174 80.7718 89.9989 81.0672 90.1651 81.3196C90.3344 81.572 90.576 81.7674 90.8899 81.9059C91.2038 82.0444 91.5762 82.1136 92.0071 82.1136ZM92.0071 77.6264C92.3456 77.6264 92.6457 77.5587 92.9073 77.4233C93.172 77.2879 93.3797 77.0986 93.5305 76.8555C93.6813 76.6123 93.7583 76.3277 93.7614 76.0014C93.7583 75.6813 93.6829 75.4028 93.5352 75.1658C93.3874 74.9258 93.1828 74.7411 92.9212 74.6119C92.6596 74.4795 92.3549 74.4134 92.0071 74.4134C91.6532 74.4134 91.3439 74.4795 91.0792 74.6119C90.8145 74.7411 90.6098 74.9258 90.4652 75.1658C90.3205 75.4028 90.2498 75.6813 90.2528 76.0014C90.2498 76.3277 90.3221 76.6123 90.4698 76.8555C90.6206 77.0986 90.8284 77.2879 91.093 77.4233C91.3577 77.5587 91.6624 77.6264 92.0071 77.6264ZM99.9994 73.4162C100.387 73.4193 100.775 73.4931 101.163 73.6378C101.551 73.7824 101.904 74.0225 102.225 74.358C102.545 74.6903 102.802 75.1443 102.995 75.7198C103.189 76.2953 103.286 77.017 103.286 77.8849C103.286 78.7251 103.206 79.4715 103.046 80.1239C102.889 80.7733 102.662 81.3211 102.363 81.7674C102.068 82.2137 101.707 82.5522 101.283 82.783C100.861 83.0138 100.384 83.1293 99.8517 83.1293C99.3223 83.1293 98.8499 83.0246 98.4344 82.8153C98.022 82.603 97.6834 82.3091 97.4188 81.9336C97.1572 81.555 96.9894 81.1165 96.9156 80.6179H98.042C98.1436 81.0518 98.3451 81.4104 98.6468 81.6935C98.9514 81.9736 99.3531 82.1136 99.8517 82.1136C100.581 82.1136 101.157 81.7951 101.578 81.158C102.003 80.521 102.215 79.6207 102.215 78.4574H102.141C101.969 78.7159 101.764 78.939 101.527 79.1268C101.29 79.3145 101.027 79.4592 100.738 79.5607C100.449 79.6623 100.141 79.7131 99.8147 79.7131C99.2731 79.7131 98.776 79.5792 98.3236 79.3114C97.8743 79.0406 97.5142 78.6697 97.2433 78.1989C96.9756 77.7249 96.8417 77.1832 96.8417 76.5739C96.8417 75.9953 96.971 75.4659 97.2295 74.9858C97.4911 74.5026 97.8573 74.1179 98.3282 73.8317C98.8022 73.5455 99.3592 73.407 99.9994 73.4162ZM99.9994 74.4318C99.6116 74.4318 99.2623 74.5288 98.9514 74.7227C98.6437 74.9135 98.399 75.172 98.2174 75.4982C98.0389 75.8214 97.9497 76.1799 97.9497 76.5739C97.9497 76.9678 98.0358 77.3263 98.2082 77.6495C98.3836 77.9696 98.6221 78.225 98.9237 78.4158C99.2284 78.6036 99.5747 78.6974 99.9624 78.6974C100.255 78.6974 100.527 78.6405 100.78 78.5266C101.032 78.4097 101.252 78.2512 101.44 78.0511C101.631 77.848 101.78 77.6187 101.888 77.3633C101.995 77.1048 102.049 76.8355 102.049 76.5554C102.049 76.1861 101.96 75.8398 101.781 75.5167C101.606 75.1935 101.363 74.9319 101.052 74.7319C100.744 74.5318 100.393 74.4318 99.9994 74.4318ZM109.921 81.2273V80.7287C109.921 80.384 109.992 80.0685 110.134 79.7823C110.278 79.493 110.488 79.2622 110.762 79.0898C111.039 78.9144 111.374 78.8267 111.768 78.8267C112.168 78.8267 112.503 78.9144 112.774 79.0898C113.045 79.2622 113.25 79.493 113.388 79.7823C113.527 80.0685 113.596 80.384 113.596 80.7287V81.2273C113.596 81.572 113.525 81.889 113.384 82.1783C113.245 82.4645 113.039 82.6953 112.765 82.8707C112.494 83.0431 112.162 83.1293 111.768 83.1293C111.368 83.1293 111.031 83.0431 110.757 82.8707C110.483 82.6953 110.275 82.4645 110.134 82.1783C109.992 81.889 109.921 81.572 109.921 81.2273ZM110.863 80.7287V81.2273C110.863 81.5135 110.931 81.7705 111.066 81.9982C111.202 82.2229 111.436 82.3352 111.768 82.3352C112.091 82.3352 112.319 82.2229 112.451 81.9982C112.587 81.7705 112.654 81.5135 112.654 81.2273V80.7287C112.654 80.4425 112.59 80.187 112.46 79.9624C112.331 79.7346 112.1 79.6207 111.768 79.6207C111.445 79.6207 111.212 79.7346 111.071 79.9624C110.932 80.187 110.863 80.4425 110.863 80.7287ZM105.213 75.8168V75.3182C105.213 74.9735 105.283 74.658 105.425 74.3718C105.57 74.0825 105.779 73.8517 106.053 73.6793C106.33 73.5039 106.665 73.4162 107.059 73.4162C107.459 73.4162 107.795 73.5039 108.066 73.6793C108.336 73.8517 108.541 74.0825 108.68 74.3718C108.818 74.658 108.887 74.9735 108.887 75.3182V75.8168C108.887 76.1615 108.816 76.4785 108.675 76.7678C108.536 77.054 108.33 77.2848 108.056 77.4602C107.785 77.6326 107.453 77.7188 107.059 77.7188C106.659 77.7188 106.322 77.6326 106.048 77.4602C105.774 77.2848 105.566 77.054 105.425 76.7678C105.283 76.4785 105.213 76.1615 105.213 75.8168ZM106.154 75.3182V75.8168C106.154 76.103 106.222 76.36 106.357 76.5877C106.493 76.8124 106.727 76.9247 107.059 76.9247C107.382 76.9247 107.61 76.8124 107.742 76.5877C107.878 76.36 107.945 76.103 107.945 75.8168V75.3182C107.945 75.032 107.881 74.7765 107.752 74.5518C107.622 74.3241 107.392 74.2102 107.059 74.2102C106.736 74.2102 106.504 74.3241 106.362 74.5518C106.224 74.7765 106.154 75.032 106.154 75.3182ZM105.563 83L112.063 73.5455H113.116L106.616 83H105.563Z" fill="#1C1C1E"/>
<path d="M101 98L114 111L101 124L88 111L101 98Z" fill="#D9D9D9"/>
<path d="M96.7656 114.011V112.768L101.165 105.818H102.145V107.648H101.523L98.3764 112.629V112.709H104.407V114.011H96.7656ZM101.593 116V113.634L101.603 113.067V105.818H103.06V116H101.593Z" fill="#1C1C1E"/>
<path d="M78.4148 143H75.1186V132.818H78.5192C79.5168 132.818 80.3736 133.022 81.0895 133.43C81.8054 133.834 82.3539 134.416 82.7351 135.175C83.1196 135.93 83.3118 136.837 83.3118 137.894C83.3118 138.955 83.1179 139.866 82.7301 140.629C82.3456 141.391 81.7888 141.978 81.0597 142.388C80.3305 142.796 79.4489 143 78.4148 143ZM76.6548 141.658H78.3303C79.1058 141.658 79.7505 141.512 80.2642 141.22C80.7779 140.925 81.1624 140.499 81.4176 139.942C81.6728 139.382 81.8004 138.7 81.8004 137.894C81.8004 137.095 81.6728 136.418 81.4176 135.861C81.1657 135.304 80.7895 134.881 80.2891 134.593C79.7886 134.305 79.1671 134.161 78.4247 134.161H76.6548V141.658ZM85.1028 143V135.364H86.5893V143H85.1028ZM85.8535 134.185C85.595 134.185 85.3729 134.099 85.1873 133.927C85.005 133.751 84.9139 133.542 84.9139 133.3C84.9139 133.055 85.005 132.846 85.1873 132.674C85.3729 132.498 85.595 132.411 85.8535 132.411C86.112 132.411 86.3324 132.498 86.5147 132.674C86.7003 132.846 86.7931 133.055 86.7931 133.3C86.7931 133.542 86.7003 133.751 86.5147 133.927C86.3324 134.099 86.112 134.185 85.8535 134.185ZM94.3114 137.228L92.9641 137.467C92.9078 137.294 92.8183 137.13 92.6957 136.974C92.5763 136.819 92.4139 136.691 92.2085 136.592C92.003 136.492 91.7461 136.442 91.4379 136.442C91.0169 136.442 90.6656 136.537 90.3839 136.726C90.1022 136.911 89.9613 137.152 89.9613 137.447C89.9613 137.702 90.0558 137.907 90.2447 138.063C90.4336 138.219 90.7385 138.347 91.1594 138.446L92.3725 138.724C93.0752 138.887 93.5988 139.137 93.9435 139.475C94.2882 139.813 94.4606 140.252 94.4606 140.793C94.4606 141.25 94.328 141.658 94.0629 142.016C93.801 142.37 93.4348 142.649 92.9641 142.851C92.4968 143.053 91.9549 143.154 91.3384 143.154C90.4833 143.154 89.7856 142.972 89.2454 142.607C88.7051 142.239 88.3737 141.717 88.2511 141.041L89.6879 140.822C89.7773 141.197 89.9613 141.48 90.2397 141.673C90.5181 141.862 90.881 141.956 91.3285 141.956C91.8157 141.956 92.2051 141.855 92.4968 141.653C92.7885 141.447 92.9343 141.197 92.9343 140.902C92.9343 140.663 92.8448 140.463 92.6658 140.3C92.4902 140.138 92.2201 140.015 91.8555 139.933L90.5629 139.649C89.8503 139.487 89.3233 139.228 88.9819 138.874C88.6438 138.519 88.4748 138.07 88.4748 137.526C88.4748 137.076 88.6007 136.681 88.8526 136.343C89.1045 136.005 89.4525 135.741 89.8967 135.553C90.3408 135.36 90.8496 135.264 91.4229 135.264C92.2482 135.264 92.8978 135.443 93.3718 135.801C93.8458 136.156 94.159 136.631 94.3114 137.228ZM99.3116 143.154C98.5725 143.154 97.9361 142.987 97.4025 142.652C96.8722 142.314 96.4645 141.848 96.1795 141.255C95.8945 140.662 95.752 139.982 95.752 139.217C95.752 138.441 95.8978 137.757 96.1895 137.163C96.4811 136.567 96.8921 136.101 97.4224 135.766C97.9527 135.432 98.5775 135.264 99.2967 135.264C99.8767 135.264 100.394 135.372 100.848 135.587C101.302 135.799 101.668 136.098 101.947 136.482C102.228 136.867 102.396 137.316 102.449 137.83H101.002C100.922 137.472 100.74 137.163 100.455 136.905C100.173 136.646 99.7955 136.517 99.3216 136.517C98.9073 136.517 98.5443 136.626 98.2328 136.845C97.9245 137.061 97.6842 137.369 97.5119 137.77C97.3395 138.168 97.2534 138.638 97.2534 139.182C97.2534 139.739 97.3379 140.219 97.5069 140.624C97.676 141.028 97.9146 141.341 98.2228 141.563C98.5344 141.785 98.9006 141.896 99.3216 141.896C99.6033 141.896 99.8585 141.845 100.087 141.742C100.319 141.636 100.513 141.485 100.669 141.29C100.828 141.094 100.939 140.859 101.002 140.584H102.449C102.396 141.078 102.235 141.518 101.966 141.906C101.698 142.294 101.338 142.599 100.888 142.821C100.44 143.043 99.9148 143.154 99.3116 143.154ZM107.255 143.154C106.539 143.154 105.914 142.99 105.381 142.662C104.847 142.334 104.433 141.875 104.138 141.285C103.843 140.695 103.695 140.005 103.695 139.217C103.695 138.424 103.843 137.732 104.138 137.138C104.433 136.545 104.847 136.085 105.381 135.756C105.914 135.428 106.539 135.264 107.255 135.264C107.971 135.264 108.596 135.428 109.129 135.756C109.663 136.085 110.077 136.545 110.372 137.138C110.667 137.732 110.815 138.424 110.815 139.217C110.815 140.005 110.667 140.695 110.372 141.285C110.077 141.875 109.663 142.334 109.129 142.662C108.596 142.99 107.971 143.154 107.255 143.154ZM107.26 141.906C107.724 141.906 108.108 141.784 108.413 141.538C108.718 141.293 108.944 140.967 109.089 140.559C109.239 140.151 109.313 139.702 109.313 139.212C109.313 138.724 109.239 138.277 109.089 137.869C108.944 137.458 108.718 137.129 108.413 136.88C108.108 136.631 107.724 136.507 107.26 136.507C106.793 136.507 106.405 136.631 106.097 136.88C105.792 137.129 105.565 137.458 105.415 137.869C105.27 138.277 105.197 138.724 105.197 139.212C105.197 139.702 105.27 140.151 105.415 140.559C105.565 140.967 105.792 141.293 106.097 141.538C106.405 141.784 106.793 141.906 107.26 141.906ZM117.311 139.833V135.364H118.803V143H117.341V141.678H117.262C117.086 142.085 116.804 142.425 116.416 142.697C116.032 142.965 115.553 143.099 114.98 143.099C114.489 143.099 114.055 142.992 113.677 142.776C113.302 142.558 113.008 142.234 112.792 141.807C112.58 141.379 112.474 140.851 112.474 140.221V135.364H113.96V140.042C113.96 140.562 114.105 140.977 114.393 141.285C114.681 141.593 115.056 141.747 115.517 141.747C115.795 141.747 116.072 141.678 116.347 141.538C116.625 141.399 116.856 141.189 117.038 140.907C117.223 140.625 117.315 140.267 117.311 139.833ZM122.287 138.466V143H120.8V135.364H122.227V136.607H122.321C122.497 136.202 122.772 135.877 123.147 135.632C123.525 135.387 124 135.264 124.574 135.264C125.094 135.264 125.55 135.374 125.941 135.592C126.332 135.808 126.635 136.129 126.85 136.557C127.066 136.984 127.174 137.513 127.174 138.143V143H125.687V138.322C125.687 137.768 125.543 137.336 125.255 137.024C124.966 136.709 124.57 136.552 124.066 136.552C123.722 136.552 123.415 136.626 123.147 136.776C122.882 136.925 122.671 137.143 122.515 137.432C122.363 137.717 122.287 138.062 122.287 138.466ZM132.732 135.364V136.557H128.561V135.364H132.732ZM129.679 133.534H131.166V140.758C131.166 141.046 131.209 141.263 131.295 141.409C131.381 141.552 131.492 141.649 131.628 141.702C131.767 141.752 131.918 141.777 132.081 141.777C132.2 141.777 132.304 141.769 132.394 141.752C132.483 141.736 132.553 141.722 132.603 141.712L132.871 142.94C132.785 142.973 132.662 143.007 132.503 143.04C132.344 143.076 132.145 143.096 131.907 143.099C131.516 143.106 131.151 143.036 130.813 142.891C130.475 142.745 130.201 142.519 129.993 142.214C129.784 141.91 129.679 141.527 129.679 141.066V133.534Z" fill="#1C1C1E"/>
<path d="M186 84C186 76.8392 183.155 69.9716 178.092 64.9081C173.028 59.8446 166.161 57 159 57C151.839 57 144.972 59.8446 139.908 64.9081C134.845 69.9716 132 76.8392 132 84H134.979C134.979 77.6293 137.51 71.5195 142.015 67.0147C146.519 62.5099 152.629 59.9792 159 59.9792C165.371 59.9792 171.481 62.5099 175.985 67.0147C180.49 71.5195 183.021 77.6293 183.021 84H186Z" fill="#D9D9D9"/>
<path d="M150.007 83.1293C149.373 83.1293 148.813 83.0169 148.327 82.7923C147.844 82.5645 147.467 82.2521 147.196 81.8551C146.925 81.455 146.791 80.9995 146.794 80.4886C146.791 80.0885 146.869 79.7192 147.029 79.3807C147.19 79.0391 147.408 78.7544 147.685 78.5266C147.965 78.2958 148.277 78.1496 148.622 78.0881V78.0327C148.17 77.9157 147.81 77.6618 147.542 77.271C147.274 76.877 147.142 76.4292 147.145 75.9276C147.142 75.4474 147.263 75.0181 147.51 74.6396C147.756 74.261 148.094 73.9625 148.525 73.744C148.959 73.5254 149.453 73.4162 150.007 73.4162C150.555 73.4162 151.044 73.5254 151.475 73.744C151.906 73.9625 152.245 74.261 152.491 74.6396C152.74 75.0181 152.866 75.4474 152.869 75.9276C152.866 76.4292 152.729 76.877 152.458 77.271C152.191 77.6618 151.835 77.9157 151.392 78.0327V78.0881C151.734 78.1496 152.041 78.2958 152.315 78.5266C152.589 78.7544 152.808 79.0391 152.971 79.3807C153.134 79.7192 153.217 80.0885 153.22 80.4886C153.217 80.9995 153.079 81.455 152.805 81.8551C152.534 82.2521 152.157 82.5645 151.674 82.7923C151.194 83.0169 150.638 83.1293 150.007 83.1293ZM150.007 82.1136C150.435 82.1136 150.804 82.0444 151.115 81.9059C151.426 81.7674 151.666 81.572 151.835 81.3196C152.004 81.0672 152.091 80.7718 152.094 80.4332C152.091 80.0762 151.998 79.7608 151.817 79.4869C151.635 79.2129 151.387 78.9975 151.074 78.8406C150.763 78.6836 150.407 78.6051 150.007 78.6051C149.604 78.6051 149.244 78.6836 148.927 78.8406C148.613 78.9975 148.365 79.2129 148.184 79.4869C148.005 79.7608 147.917 80.0762 147.92 80.4332C147.917 80.7718 147.999 81.0672 148.165 81.3196C148.334 81.572 148.576 81.7674 148.89 81.9059C149.204 82.0444 149.576 82.1136 150.007 82.1136ZM150.007 77.6264C150.346 77.6264 150.646 77.5587 150.907 77.4233C151.172 77.2879 151.38 77.0986 151.531 76.8555C151.681 76.6123 151.758 76.3277 151.761 76.0014C151.758 75.6813 151.683 75.4028 151.535 75.1658C151.387 74.9258 151.183 74.7411 150.921 74.6119C150.66 74.4795 150.355 74.4134 150.007 74.4134C149.653 74.4134 149.344 74.4795 149.079 74.6119C148.815 74.7411 148.61 74.9258 148.465 75.1658C148.321 75.4028 148.25 75.6813 148.253 76.0014C148.25 76.3277 148.322 76.6123 148.47 76.8555C148.621 77.0986 148.828 77.2879 149.093 77.4233C149.358 77.5587 149.662 77.6264 150.007 77.6264ZM157.999 73.4162C158.387 73.4193 158.775 73.4931 159.163 73.6378C159.551 73.7824 159.904 74.0225 160.225 74.358C160.545 74.6903 160.802 75.1443 160.995 75.7198C161.189 76.2953 161.286 77.017 161.286 77.8849C161.286 78.7251 161.206 79.4715 161.046 80.1239C160.889 80.7733 160.662 81.3211 160.363 81.7674C160.068 82.2137 159.707 82.5522 159.283 82.783C158.861 83.0138 158.384 83.1293 157.852 83.1293C157.322 83.1293 156.85 83.0246 156.434 82.8153C156.022 82.603 155.683 82.3091 155.419 81.9336C155.157 81.555 154.989 81.1165 154.916 80.6179H156.042C156.144 81.0518 156.345 81.4104 156.647 81.6935C156.951 81.9736 157.353 82.1136 157.852 82.1136C158.581 82.1136 159.157 81.7951 159.578 81.158C160.003 80.521 160.215 79.6207 160.215 78.4574H160.141C159.969 78.7159 159.764 78.939 159.527 79.1268C159.29 79.3145 159.027 79.4592 158.738 79.5607C158.449 79.6623 158.141 79.7131 157.815 79.7131C157.273 79.7131 156.776 79.5792 156.324 79.3114C155.874 79.0406 155.514 78.6697 155.243 78.1989C154.976 77.7249 154.842 77.1832 154.842 76.5739C154.842 75.9953 154.971 75.4659 155.229 74.9858C155.491 74.5026 155.857 74.1179 156.328 73.8317C156.802 73.5455 157.359 73.407 157.999 73.4162ZM157.999 74.4318C157.612 74.4318 157.262 74.5288 156.951 74.7227C156.644 74.9135 156.399 75.172 156.217 75.4982C156.039 75.8214 155.95 76.1799 155.95 76.5739C155.95 76.9678 156.036 77.3263 156.208 77.6495C156.384 77.9696 156.622 78.225 156.924 78.4158C157.228 78.6036 157.575 78.6974 157.962 78.6974C158.255 78.6974 158.527 78.6405 158.78 78.5266C159.032 78.4097 159.252 78.2512 159.44 78.0511C159.631 77.848 159.78 77.6187 159.888 77.3633C159.995 77.1048 160.049 76.8355 160.049 76.5554C160.049 76.1861 159.96 75.8398 159.781 75.5167C159.606 75.1935 159.363 74.9319 159.052 74.7319C158.744 74.5318 158.393 74.4318 157.999 74.4318ZM167.921 81.2273V80.7287C167.921 80.384 167.992 80.0685 168.134 79.7823C168.278 79.493 168.488 79.2622 168.762 79.0898C169.039 78.9144 169.374 78.8267 169.768 78.8267C170.168 78.8267 170.503 78.9144 170.774 79.0898C171.045 79.2622 171.25 79.493 171.388 79.7823C171.527 80.0685 171.596 80.384 171.596 80.7287V81.2273C171.596 81.572 171.525 81.889 171.384 82.1783C171.245 82.4645 171.039 82.6953 170.765 82.8707C170.494 83.0431 170.162 83.1293 169.768 83.1293C169.368 83.1293 169.031 83.0431 168.757 82.8707C168.483 82.6953 168.275 82.4645 168.134 82.1783C167.992 81.889 167.921 81.572 167.921 81.2273ZM168.863 80.7287V81.2273C168.863 81.5135 168.931 81.7705 169.066 81.9982C169.202 82.2229 169.436 82.3352 169.768 82.3352C170.091 82.3352 170.319 82.2229 170.451 81.9982C170.587 81.7705 170.654 81.5135 170.654 81.2273V80.7287C170.654 80.4425 170.59 80.187 170.46 79.9624C170.331 79.7346 170.1 79.6207 169.768 79.6207C169.445 79.6207 169.212 79.7346 169.071 79.9624C168.932 80.187 168.863 80.4425 168.863 80.7287ZM163.213 75.8168V75.3182C163.213 74.9735 163.283 74.658 163.425 74.3718C163.57 74.0825 163.779 73.8517 164.053 73.6793C164.33 73.5039 164.665 73.4162 165.059 73.4162C165.459 73.4162 165.795 73.5039 166.066 73.6793C166.336 73.8517 166.541 74.0825 166.68 74.3718C166.818 74.658 166.887 74.9735 166.887 75.3182V75.8168C166.887 76.1615 166.816 76.4785 166.675 76.7678C166.536 77.054 166.33 77.2848 166.056 77.4602C165.785 77.6326 165.453 77.7188 165.059 77.7188C164.659 77.7188 164.322 77.6326 164.048 77.4602C163.774 77.2848 163.566 77.054 163.425 76.7678C163.283 76.4785 163.213 76.1615 163.213 75.8168ZM164.154 75.3182V75.8168C164.154 76.103 164.222 76.36 164.357 76.5877C164.493 76.8124 164.727 76.9247 165.059 76.9247C165.382 76.9247 165.61 76.8124 165.742 76.5877C165.878 76.36 165.945 76.103 165.945 75.8168V75.3182C165.945 75.032 165.881 74.7765 165.752 74.5518C165.622 74.3241 165.392 74.2102 165.059 74.2102C164.736 74.2102 164.504 74.3241 164.362 74.5518C164.224 74.7765 164.154 75.032 164.154 75.3182ZM163.563 83L170.063 73.5455H171.116L164.616 83H163.563Z" fill="#1C1C1E"/>
<path d="M159 98L172 111L159 124L146 111L159 98Z" fill="#D9D9D9"/>
<path d="M154.766 114.011V112.768L159.165 105.818H160.145V107.648H159.523L156.376 112.629V112.709H162.407V114.011H154.766ZM159.593 116V113.634L159.603 113.067V105.818H161.06V116H159.593Z" fill="#1C1C1E"/>
<path d="M150.862 139.699H152.374L153.438 141.086L153.94 141.702L155.635 143.915H154.064L152.93 142.438L152.543 141.901L150.862 139.699ZM155.963 137.909C155.963 138.996 155.764 139.931 155.366 140.713C154.969 141.492 154.424 142.092 153.731 142.513C153.041 142.93 152.258 143.139 151.379 143.139C150.498 143.139 149.71 142.93 149.018 142.513C148.328 142.092 147.785 141.49 147.387 140.708C146.989 139.926 146.79 138.993 146.79 137.909C146.79 136.822 146.989 135.889 147.387 135.11C147.785 134.328 148.328 133.728 149.018 133.31C149.71 132.889 150.498 132.679 151.379 132.679C152.258 132.679 153.041 132.889 153.731 133.31C154.424 133.728 154.969 134.328 155.366 135.11C155.764 135.889 155.963 136.822 155.963 137.909ZM154.442 137.909C154.442 137.08 154.308 136.383 154.039 135.816C153.774 135.246 153.409 134.815 152.945 134.523C152.485 134.228 151.963 134.081 151.379 134.081C150.793 134.081 150.269 134.228 149.808 134.523C149.348 134.815 148.983 135.246 148.714 135.816C148.449 136.383 148.317 137.08 148.317 137.909C148.317 138.738 148.449 139.437 148.714 140.007C148.983 140.574 149.348 141.005 149.808 141.3C150.269 141.591 150.793 141.737 151.379 141.737C151.963 141.737 152.485 141.591 152.945 141.3C153.409 141.005 153.774 140.574 154.039 140.007C154.308 139.437 154.442 138.738 154.442 137.909ZM161.324 135.364V136.557H157.153V135.364H161.324ZM158.271 133.534H159.758V140.758C159.758 141.046 159.801 141.263 159.887 141.409C159.973 141.552 160.084 141.649 160.22 141.702C160.359 141.752 160.51 141.777 160.672 141.777C160.792 141.777 160.896 141.769 160.986 141.752C161.075 141.736 161.145 141.722 161.194 141.712L161.463 142.94C161.377 142.973 161.254 143.007 161.095 143.04C160.936 143.076 160.737 143.096 160.498 143.099C160.107 143.106 159.743 143.036 159.405 142.891C159.067 142.745 158.793 142.519 158.584 142.214C158.376 141.91 158.271 141.527 158.271 141.066V133.534ZM163.908 145.864C163.686 145.864 163.483 145.845 163.301 145.809C163.119 145.776 162.983 145.739 162.893 145.7L163.251 144.482C163.523 144.554 163.765 144.586 163.977 144.576C164.189 144.566 164.377 144.487 164.539 144.337C164.705 144.188 164.851 143.945 164.977 143.607L165.161 143.099L162.366 135.364H163.957L165.891 141.29H165.971L167.905 135.364H169.501L166.354 144.019C166.208 144.417 166.022 144.753 165.797 145.028C165.571 145.307 165.303 145.516 164.991 145.655C164.68 145.794 164.319 145.864 163.908 145.864ZM152.672 152.493C152.619 152.022 152.4 151.658 152.016 151.399C151.631 151.137 151.147 151.006 150.564 151.006C150.146 151.006 149.785 151.073 149.48 151.205C149.175 151.335 148.938 151.513 148.769 151.742C148.603 151.968 148.521 152.224 148.521 152.513C148.521 152.755 148.577 152.964 148.69 153.139C148.806 153.315 148.956 153.462 149.142 153.582C149.331 153.698 149.533 153.795 149.749 153.875C149.964 153.951 150.171 154.014 150.37 154.064L151.364 154.322C151.689 154.402 152.022 154.51 152.364 154.646C152.705 154.781 153.022 154.96 153.313 155.183C153.605 155.405 153.84 155.68 154.019 156.008C154.201 156.336 154.293 156.729 154.293 157.186C154.293 157.763 154.143 158.275 153.845 158.722C153.55 159.17 153.121 159.523 152.558 159.781C151.997 160.04 151.32 160.169 150.524 160.169C149.762 160.169 149.102 160.048 148.545 159.806C147.989 159.564 147.553 159.221 147.238 158.777C146.923 158.33 146.749 157.799 146.716 157.186H148.257C148.287 157.554 148.406 157.861 148.615 158.106C148.827 158.348 149.097 158.528 149.425 158.648C149.757 158.764 150.12 158.822 150.514 158.822C150.948 158.822 151.335 158.754 151.673 158.618C152.014 158.479 152.282 158.286 152.478 158.041C152.674 157.793 152.771 157.503 152.771 157.171C152.771 156.87 152.685 156.623 152.513 156.43C152.344 156.238 152.113 156.079 151.822 155.953C151.533 155.827 151.207 155.716 150.842 155.62L149.639 155.292C148.824 155.07 148.178 154.743 147.7 154.312C147.226 153.882 146.989 153.312 146.989 152.602C146.989 152.016 147.148 151.504 147.467 151.066C147.785 150.629 148.216 150.289 148.759 150.047C149.303 149.802 149.916 149.679 150.599 149.679C151.288 149.679 151.896 149.8 152.423 150.042C152.954 150.284 153.371 150.617 153.676 151.041C153.981 151.462 154.14 151.946 154.153 152.493H152.672ZM158.231 160.169C157.747 160.169 157.31 160.08 156.919 159.901C156.528 159.718 156.218 159.455 155.989 159.11C155.764 158.765 155.651 158.343 155.651 157.842C155.651 157.411 155.734 157.057 155.9 156.778C156.065 156.5 156.289 156.28 156.571 156.117C156.853 155.955 157.167 155.832 157.515 155.749C157.863 155.666 158.218 155.603 158.579 155.56C159.037 155.507 159.408 155.464 159.693 155.431C159.978 155.395 160.185 155.337 160.314 155.257C160.444 155.178 160.508 155.048 160.508 154.869V154.835C160.508 154.4 160.386 154.064 160.14 153.825C159.898 153.587 159.537 153.467 159.057 153.467C158.556 153.467 158.162 153.578 157.873 153.8C157.588 154.019 157.391 154.263 157.282 154.531L155.885 154.213C156.05 153.749 156.292 153.375 156.611 153.089C156.932 152.801 157.302 152.592 157.719 152.463C158.137 152.33 158.576 152.264 159.037 152.264C159.342 152.264 159.665 152.301 160.006 152.374C160.351 152.443 160.672 152.572 160.971 152.761C161.272 152.95 161.519 153.22 161.711 153.572C161.904 153.92 162 154.372 162 154.929V160H160.548V158.956H160.488C160.392 159.148 160.248 159.337 160.056 159.523C159.864 159.708 159.617 159.862 159.315 159.985C159.014 160.108 158.652 160.169 158.231 160.169ZM158.555 158.976C158.965 158.976 159.317 158.895 159.608 158.732C159.903 158.57 160.127 158.358 160.28 158.096C160.435 157.831 160.513 157.547 160.513 157.246V156.261C160.46 156.314 160.358 156.364 160.205 156.411C160.056 156.454 159.885 156.492 159.693 156.525C159.501 156.555 159.314 156.583 159.131 156.609C158.949 156.633 158.796 156.652 158.674 156.669C158.385 156.705 158.122 156.767 157.883 156.853C157.648 156.939 157.459 157.063 157.317 157.226C157.177 157.385 157.108 157.597 157.108 157.862C157.108 158.23 157.244 158.509 157.515 158.697C157.787 158.883 158.134 158.976 158.555 158.976ZM165.466 149.818V160H163.98V149.818H165.466ZM170.757 160.154C170.005 160.154 169.357 159.993 168.813 159.672C168.273 159.347 167.856 158.891 167.561 158.305C167.269 157.715 167.123 157.024 167.123 156.232C167.123 155.449 167.269 154.76 167.561 154.163C167.856 153.567 168.267 153.101 168.794 152.766C169.324 152.432 169.944 152.264 170.653 152.264C171.084 152.264 171.501 152.335 171.906 152.478C172.31 152.621 172.673 152.844 172.994 153.149C173.316 153.454 173.57 153.85 173.755 154.337C173.941 154.821 174.034 155.41 174.034 156.102V156.629H167.963V155.516H172.577C172.577 155.125 172.497 154.778 172.338 154.477C172.179 154.172 171.955 153.931 171.667 153.756C171.382 153.58 171.047 153.492 170.663 153.492C170.245 153.492 169.881 153.595 169.569 153.8C169.261 154.003 169.022 154.268 168.853 154.596C168.687 154.921 168.605 155.274 168.605 155.655V156.525C168.605 157.035 168.694 157.469 168.873 157.827C169.055 158.185 169.309 158.459 169.634 158.648C169.959 158.833 170.338 158.926 170.772 158.926C171.054 158.926 171.311 158.886 171.543 158.807C171.775 158.724 171.975 158.601 172.144 158.439C172.313 158.277 172.443 158.076 172.532 157.837L173.939 158.091C173.826 158.505 173.624 158.868 173.333 159.18C173.044 159.488 172.681 159.728 172.244 159.901C171.81 160.07 171.314 160.154 170.757 160.154Z" fill="#1C1C1E"/>
<path d="M244 84C244 76.8392 241.155 69.9716 236.092 64.9081C231.028 59.8446 224.161 57 217 57C209.839 57 202.972 59.8446 197.908 64.9081C192.845 69.9716 190 76.8392 190 84H192.979C192.979 77.6293 195.51 71.5195 200.015 67.0147C204.519 62.5099 210.629 59.9792 217 59.9792C223.371 59.9792 229.481 62.5099 233.985 67.0147C238.49 71.5195 241.021 77.6293 241.021 84H244Z" fill="#D9D9D9"/>
<path d="M208.007 83.1293C207.373 83.1293 206.813 83.0169 206.327 82.7923C205.844 82.5645 205.467 82.2521 205.196 81.8551C204.925 81.455 204.791 80.9995 204.794 80.4886C204.791 80.0885 204.869 79.7192 205.029 79.3807C205.19 79.0391 205.408 78.7544 205.685 78.5266C205.965 78.2958 206.277 78.1496 206.622 78.0881V78.0327C206.17 77.9157 205.81 77.6618 205.542 77.271C205.274 76.877 205.142 76.4292 205.145 75.9276C205.142 75.4474 205.263 75.0181 205.51 74.6396C205.756 74.261 206.094 73.9625 206.525 73.744C206.959 73.5254 207.453 73.4162 208.007 73.4162C208.555 73.4162 209.044 73.5254 209.475 73.744C209.906 73.9625 210.245 74.261 210.491 74.6396C210.74 75.0181 210.866 75.4474 210.869 75.9276C210.866 76.4292 210.729 76.877 210.458 77.271C210.191 77.6618 209.835 77.9157 209.392 78.0327V78.0881C209.734 78.1496 210.041 78.2958 210.315 78.5266C210.589 78.7544 210.808 79.0391 210.971 79.3807C211.134 79.7192 211.217 80.0885 211.22 80.4886C211.217 80.9995 211.079 81.455 210.805 81.8551C210.534 82.2521 210.157 82.5645 209.674 82.7923C209.194 83.0169 208.638 83.1293 208.007 83.1293ZM208.007 82.1136C208.435 82.1136 208.804 82.0444 209.115 81.9059C209.426 81.7674 209.666 81.572 209.835 81.3196C210.004 81.0672 210.091 80.7718 210.094 80.4332C210.091 80.0762 209.998 79.7608 209.817 79.4869C209.635 79.2129 209.387 78.9975 209.074 78.8406C208.763 78.6836 208.407 78.6051 208.007 78.6051C207.604 78.6051 207.244 78.6836 206.927 78.8406C206.613 78.9975 206.365 79.2129 206.184 79.4869C206.005 79.7608 205.917 80.0762 205.92 80.4332C205.917 80.7718 205.999 81.0672 206.165 81.3196C206.334 81.572 206.576 81.7674 206.89 81.9059C207.204 82.0444 207.576 82.1136 208.007 82.1136ZM208.007 77.6264C208.346 77.6264 208.646 77.5587 208.907 77.4233C209.172 77.2879 209.38 77.0986 209.531 76.8555C209.681 76.6123 209.758 76.3277 209.761 76.0014C209.758 75.6813 209.683 75.4028 209.535 75.1658C209.387 74.9258 209.183 74.7411 208.921 74.6119C208.66 74.4795 208.355 74.4134 208.007 74.4134C207.653 74.4134 207.344 74.4795 207.079 74.6119C206.815 74.7411 206.61 74.9258 206.465 75.1658C206.321 75.4028 206.25 75.6813 206.253 76.0014C206.25 76.3277 206.322 76.6123 206.47 76.8555C206.621 77.0986 206.828 77.2879 207.093 77.4233C207.358 77.5587 207.662 77.6264 208.007 77.6264ZM215.999 73.4162C216.387 73.4193 216.775 73.4931 217.163 73.6378C217.551 73.7824 217.904 74.0225 218.225 74.358C218.545 74.6903 218.802 75.1443 218.995 75.7198C219.189 76.2953 219.286 77.017 219.286 77.8849C219.286 78.7251 219.206 79.4715 219.046 80.1239C218.889 80.7733 218.662 81.3211 218.363 81.7674C218.068 82.2137 217.707 82.5522 217.283 82.783C216.861 83.0138 216.384 83.1293 215.852 83.1293C215.322 83.1293 214.85 83.0246 214.434 82.8153C214.022 82.603 213.683 82.3091 213.419 81.9336C213.157 81.555 212.989 81.1165 212.916 80.6179H214.042C214.144 81.0518 214.345 81.4104 214.647 81.6935C214.951 81.9736 215.353 82.1136 215.852 82.1136C216.581 82.1136 217.157 81.7951 217.578 81.158C218.003 80.521 218.215 79.6207 218.215 78.4574H218.141C217.969 78.7159 217.764 78.939 217.527 79.1268C217.29 79.3145 217.027 79.4592 216.738 79.5607C216.449 79.6623 216.141 79.7131 215.815 79.7131C215.273 79.7131 214.776 79.5792 214.324 79.3114C213.874 79.0406 213.514 78.6697 213.243 78.1989C212.976 77.7249 212.842 77.1832 212.842 76.5739C212.842 75.9953 212.971 75.4659 213.229 74.9858C213.491 74.5026 213.857 74.1179 214.328 73.8317C214.802 73.5455 215.359 73.407 215.999 73.4162ZM215.999 74.4318C215.612 74.4318 215.262 74.5288 214.951 74.7227C214.644 74.9135 214.399 75.172 214.217 75.4982C214.039 75.8214 213.95 76.1799 213.95 76.5739C213.95 76.9678 214.036 77.3263 214.208 77.6495C214.384 77.9696 214.622 78.225 214.924 78.4158C215.228 78.6036 215.575 78.6974 215.962 78.6974C216.255 78.6974 216.527 78.6405 216.78 78.5266C217.032 78.4097 217.252 78.2512 217.44 78.0511C217.631 77.848 217.78 77.6187 217.888 77.3633C217.995 77.1048 218.049 76.8355 218.049 76.5554C218.049 76.1861 217.96 75.8398 217.781 75.5167C217.606 75.1935 217.363 74.9319 217.052 74.7319C216.744 74.5318 216.393 74.4318 215.999 74.4318ZM225.921 81.2273V80.7287C225.921 80.384 225.992 80.0685 226.134 79.7823C226.278 79.493 226.488 79.2622 226.762 79.0898C227.039 78.9144 227.374 78.8267 227.768 78.8267C228.168 78.8267 228.503 78.9144 228.774 79.0898C229.045 79.2622 229.25 79.493 229.388 79.7823C229.527 80.0685 229.596 80.384 229.596 80.7287V81.2273C229.596 81.572 229.525 81.889 229.384 82.1783C229.245 82.4645 229.039 82.6953 228.765 82.8707C228.494 83.0431 228.162 83.1293 227.768 83.1293C227.368 83.1293 227.031 83.0431 226.757 82.8707C226.483 82.6953 226.275 82.4645 226.134 82.1783C225.992 81.889 225.921 81.572 225.921 81.2273ZM226.863 80.7287V81.2273C226.863 81.5135 226.931 81.7705 227.066 81.9982C227.202 82.2229 227.436 82.3352 227.768 82.3352C228.091 82.3352 228.319 82.2229 228.451 81.9982C228.587 81.7705 228.654 81.5135 228.654 81.2273V80.7287C228.654 80.4425 228.59 80.187 228.46 79.9624C228.331 79.7346 228.1 79.6207 227.768 79.6207C227.445 79.6207 227.212 79.7346 227.071 79.9624C226.932 80.187 226.863 80.4425 226.863 80.7287ZM221.213 75.8168V75.3182C221.213 74.9735 221.283 74.658 221.425 74.3718C221.57 74.0825 221.779 73.8517 222.053 73.6793C222.33 73.5039 222.665 73.4162 223.059 73.4162C223.459 73.4162 223.795 73.5039 224.066 73.6793C224.336 73.8517 224.541 74.0825 224.68 74.3718C224.818 74.658 224.887 74.9735 224.887 75.3182V75.8168C224.887 76.1615 224.816 76.4785 224.675 76.7678C224.536 77.054 224.33 77.2848 224.056 77.4602C223.785 77.6326 223.453 77.7188 223.059 77.7188C222.659 77.7188 222.322 77.6326 222.048 77.4602C221.774 77.2848 221.566 77.054 221.425 76.7678C221.283 76.4785 221.213 76.1615 221.213 75.8168ZM222.154 75.3182V75.8168C222.154 76.103 222.222 76.36 222.357 76.5877C222.493 76.8124 222.727 76.9247 223.059 76.9247C223.382 76.9247 223.61 76.8124 223.742 76.5877C223.878 76.36 223.945 76.103 223.945 75.8168V75.3182C223.945 75.032 223.881 74.7765 223.752 74.5518C223.622 74.3241 223.392 74.2102 223.059 74.2102C222.736 74.2102 222.504 74.3241 222.362 74.5518C222.224 74.7765 222.154 75.032 222.154 75.3182ZM221.563 83L228.063 73.5455H229.116L222.616 83H221.563Z" fill="#1C1C1E"/>
<path d="M217 98L230 111L217 124L204 111L217 98Z" fill="#D9D9D9"/>
<path d="M212.766 114.011V112.768L217.165 105.818H218.145V107.648H217.523L214.376 112.629V112.709H220.407V114.011H212.766ZM217.593 116V113.634L217.603 113.067V105.818H219.06V116H217.593Z" fill="#1C1C1E"/>
<path d="M196.655 132.818V143H195.119V132.818H196.655ZM200.259 138.466V143H198.773V135.364H200.2V136.607H200.294C200.47 136.202 200.745 135.877 201.119 135.632C201.497 135.387 201.973 135.264 202.546 135.264C203.067 135.264 203.522 135.374 203.913 135.592C204.304 135.808 204.608 136.129 204.823 136.557C205.039 136.984 205.146 137.513 205.146 138.143V143H203.66V138.322C203.66 137.768 203.516 137.336 203.227 137.024C202.939 136.709 202.543 136.552 202.039 136.552C201.694 136.552 201.388 136.626 201.119 136.776C200.854 136.925 200.644 137.143 200.488 137.432C200.335 137.717 200.259 138.062 200.259 138.466ZM213.399 135.364L210.63 143H209.039L206.265 135.364H207.861L209.795 141.24H209.874L211.803 135.364H213.399ZM217.753 143.154C217.037 143.154 216.412 142.99 215.879 142.662C215.345 142.334 214.931 141.875 214.636 141.285C214.341 140.695 214.193 140.005 214.193 139.217C214.193 138.424 214.341 137.732 214.636 137.138C214.931 136.545 215.345 136.085 215.879 135.756C216.412 135.428 217.037 135.264 217.753 135.264C218.469 135.264 219.094 135.428 219.627 135.756C220.161 136.085 220.575 136.545 220.87 137.138C221.165 137.732 221.313 138.424 221.313 139.217C221.313 140.005 221.165 140.695 220.87 141.285C220.575 141.875 220.161 142.334 219.627 142.662C219.094 142.99 218.469 143.154 217.753 143.154ZM217.758 141.906C218.222 141.906 218.606 141.784 218.911 141.538C219.216 141.293 219.442 140.967 219.588 140.559C219.737 140.151 219.811 139.702 219.811 139.212C219.811 138.724 219.737 138.277 219.588 137.869C219.442 137.458 219.216 137.129 218.911 136.88C218.606 136.631 218.222 136.507 217.758 136.507C217.291 136.507 216.903 136.631 216.595 136.88C216.29 137.129 216.063 137.458 215.914 137.869C215.768 138.277 215.695 138.724 215.695 139.212C215.695 139.702 215.768 140.151 215.914 140.559C216.063 140.967 216.29 141.293 216.595 141.538C216.903 141.784 217.291 141.906 217.758 141.906ZM222.972 143V135.364H224.458V143H222.972ZM223.723 134.185C223.464 134.185 223.242 134.099 223.056 133.927C222.874 133.751 222.783 133.542 222.783 133.3C222.783 133.055 222.874 132.846 223.056 132.674C223.242 132.498 223.464 132.411 223.723 132.411C223.981 132.411 224.202 132.498 224.384 132.674C224.569 132.846 224.662 133.055 224.662 133.3C224.662 133.542 224.569 133.751 224.384 133.927C224.202 134.099 223.981 134.185 223.723 134.185ZM229.675 143.154C228.936 143.154 228.299 142.987 227.766 142.652C227.235 142.314 226.828 141.848 226.543 141.255C226.258 140.662 226.115 139.982 226.115 139.217C226.115 138.441 226.261 137.757 226.553 137.163C226.844 136.567 227.255 136.101 227.786 135.766C228.316 135.432 228.941 135.264 229.66 135.264C230.24 135.264 230.757 135.372 231.211 135.587C231.665 135.799 232.031 136.098 232.31 136.482C232.592 136.867 232.759 137.316 232.812 137.83H231.365C231.286 137.472 231.103 137.163 230.818 136.905C230.537 136.646 230.159 136.517 229.685 136.517C229.271 136.517 228.908 136.626 228.596 136.845C228.288 137.061 228.048 137.369 227.875 137.77C227.703 138.168 227.617 138.638 227.617 139.182C227.617 139.739 227.701 140.219 227.87 140.624C228.039 141.028 228.278 141.341 228.586 141.563C228.898 141.785 229.264 141.896 229.685 141.896C229.967 141.896 230.222 141.845 230.45 141.742C230.682 141.636 230.876 141.485 231.032 141.29C231.191 141.094 231.302 140.859 231.365 140.584H232.812C232.759 141.078 232.598 141.518 232.33 141.906C232.061 142.294 231.702 142.599 231.251 142.821C230.803 143.043 230.278 143.154 229.675 143.154ZM237.693 143.154C236.94 143.154 236.292 142.993 235.749 142.672C235.209 142.347 234.791 141.891 234.496 141.305C234.204 140.715 234.059 140.024 234.059 139.232C234.059 138.449 234.204 137.76 234.496 137.163C234.791 136.567 235.202 136.101 235.729 135.766C236.259 135.432 236.879 135.264 237.588 135.264C238.019 135.264 238.437 135.335 238.841 135.478C239.246 135.621 239.609 135.844 239.93 136.149C240.252 136.454 240.505 136.85 240.691 137.337C240.876 137.821 240.969 138.41 240.969 139.102V139.629H234.899V138.516H239.512C239.512 138.125 239.433 137.778 239.274 137.477C239.115 137.172 238.891 136.931 238.603 136.756C238.318 136.58 237.983 136.492 237.598 136.492C237.181 136.492 236.816 136.595 236.505 136.8C236.196 137.003 235.958 137.268 235.789 137.596C235.623 137.921 235.54 138.274 235.54 138.655V139.525C235.54 140.035 235.63 140.469 235.809 140.827C235.991 141.185 236.244 141.459 236.569 141.648C236.894 141.833 237.274 141.926 237.708 141.926C237.989 141.926 238.246 141.886 238.478 141.807C238.71 141.724 238.911 141.601 239.08 141.439C239.249 141.277 239.378 141.076 239.468 140.837L240.875 141.091C240.762 141.505 240.56 141.868 240.268 142.18C239.98 142.488 239.617 142.728 239.179 142.901C238.745 143.07 238.25 143.154 237.693 143.154Z" fill="#1C1C1E"/>
<path d="M302 84C302 76.8392 299.155 69.9716 294.092 64.9081C289.028 59.8446 282.161 57 275 57C267.839 57 260.972 59.8446 255.908 64.9081C250.845 69.9716 248 76.8392 248 84H250.979C250.979 77.6293 253.51 71.5195 258.015 67.0147C262.519 62.5099 268.629 59.9792 275 59.9792C281.371 59.9792 287.481 62.5099 291.985 67.0147C296.49 71.5195 299.021 77.6293 299.021 84H302Z" fill="#D9D9D9"/>
<path d="M266.007 83.1293C265.373 83.1293 264.813 83.0169 264.327 82.7923C263.844 82.5645 263.467 82.2521 263.196 81.8551C262.925 81.455 262.791 80.9995 262.794 80.4886C262.791 80.0885 262.869 79.7192 263.029 79.3807C263.19 79.0391 263.408 78.7544 263.685 78.5266C263.965 78.2958 264.277 78.1496 264.622 78.0881V78.0327C264.17 77.9157 263.81 77.6618 263.542 77.271C263.274 76.877 263.142 76.4292 263.145 75.9276C263.142 75.4474 263.263 75.0181 263.51 74.6396C263.756 74.261 264.094 73.9625 264.525 73.744C264.959 73.5254 265.453 73.4162 266.007 73.4162C266.555 73.4162 267.044 73.5254 267.475 73.744C267.906 73.9625 268.245 74.261 268.491 74.6396C268.74 75.0181 268.866 75.4474 268.869 75.9276C268.866 76.4292 268.729 76.877 268.458 77.271C268.191 77.6618 267.835 77.9157 267.392 78.0327V78.0881C267.734 78.1496 268.041 78.2958 268.315 78.5266C268.589 78.7544 268.808 79.0391 268.971 79.3807C269.134 79.7192 269.217 80.0885 269.22 80.4886C269.217 80.9995 269.079 81.455 268.805 81.8551C268.534 82.2521 268.157 82.5645 267.674 82.7923C267.194 83.0169 266.638 83.1293 266.007 83.1293ZM266.007 82.1136C266.435 82.1136 266.804 82.0444 267.115 81.9059C267.426 81.7674 267.666 81.572 267.835 81.3196C268.004 81.0672 268.091 80.7718 268.094 80.4332C268.091 80.0762 267.998 79.7608 267.817 79.4869C267.635 79.2129 267.387 78.9975 267.074 78.8406C266.763 78.6836 266.407 78.6051 266.007 78.6051C265.604 78.6051 265.244 78.6836 264.927 78.8406C264.613 78.9975 264.365 79.2129 264.184 79.4869C264.005 79.7608 263.917 80.0762 263.92 80.4332C263.917 80.7718 263.999 81.0672 264.165 81.3196C264.334 81.572 264.576 81.7674 264.89 81.9059C265.204 82.0444 265.576 82.1136 266.007 82.1136ZM266.007 77.6264C266.346 77.6264 266.646 77.5587 266.907 77.4233C267.172 77.2879 267.38 77.0986 267.531 76.8555C267.681 76.6123 267.758 76.3277 267.761 76.0014C267.758 75.6813 267.683 75.4028 267.535 75.1658C267.387 74.9258 267.183 74.7411 266.921 74.6119C266.66 74.4795 266.355 74.4134 266.007 74.4134C265.653 74.4134 265.344 74.4795 265.079 74.6119C264.815 74.7411 264.61 74.9258 264.465 75.1658C264.321 75.4028 264.25 75.6813 264.253 76.0014C264.25 76.3277 264.322 76.6123 264.47 76.8555C264.621 77.0986 264.828 77.2879 265.093 77.4233C265.358 77.5587 265.662 77.6264 266.007 77.6264ZM273.999 73.4162C274.387 73.4193 274.775 73.4931 275.163 73.6378C275.551 73.7824 275.904 74.0225 276.225 74.358C276.545 74.6903 276.802 75.1443 276.995 75.7198C277.189 76.2953 277.286 77.017 277.286 77.8849C277.286 78.7251 277.206 79.4715 277.046 80.1239C276.889 80.7733 276.662 81.3211 276.363 81.7674C276.068 82.2137 275.707 82.5522 275.283 82.783C274.861 83.0138 274.384 83.1293 273.852 83.1293C273.322 83.1293 272.85 83.0246 272.434 82.8153C272.022 82.603 271.683 82.3091 271.419 81.9336C271.157 81.555 270.989 81.1165 270.916 80.6179H272.042C272.144 81.0518 272.345 81.4104 272.647 81.6935C272.951 81.9736 273.353 82.1136 273.852 82.1136C274.581 82.1136 275.157 81.7951 275.578 81.158C276.003 80.521 276.215 79.6207 276.215 78.4574H276.141C275.969 78.7159 275.764 78.939 275.527 79.1268C275.29 79.3145 275.027 79.4592 274.738 79.5607C274.449 79.6623 274.141 79.7131 273.815 79.7131C273.273 79.7131 272.776 79.5792 272.324 79.3114C271.874 79.0406 271.514 78.6697 271.243 78.1989C270.976 77.7249 270.842 77.1832 270.842 76.5739C270.842 75.9953 270.971 75.4659 271.229 74.9858C271.491 74.5026 271.857 74.1179 272.328 73.8317C272.802 73.5455 273.359 73.407 273.999 73.4162ZM273.999 74.4318C273.612 74.4318 273.262 74.5288 272.951 74.7227C272.644 74.9135 272.399 75.172 272.217 75.4982C272.039 75.8214 271.95 76.1799 271.95 76.5739C271.95 76.9678 272.036 77.3263 272.208 77.6495C272.384 77.9696 272.622 78.225 272.924 78.4158C273.228 78.6036 273.575 78.6974 273.962 78.6974C274.255 78.6974 274.527 78.6405 274.78 78.5266C275.032 78.4097 275.252 78.2512 275.44 78.0511C275.631 77.848 275.78 77.6187 275.888 77.3633C275.995 77.1048 276.049 76.8355 276.049 76.5554C276.049 76.1861 275.96 75.8398 275.781 75.5167C275.606 75.1935 275.363 74.9319 275.052 74.7319C274.744 74.5318 274.393 74.4318 273.999 74.4318ZM283.921 81.2273V80.7287C283.921 80.384 283.992 80.0685 284.134 79.7823C284.278 79.493 284.488 79.2622 284.762 79.0898C285.039 78.9144 285.374 78.8267 285.768 78.8267C286.168 78.8267 286.503 78.9144 286.774 79.0898C287.045 79.2622 287.25 79.493 287.388 79.7823C287.527 80.0685 287.596 80.384 287.596 80.7287V81.2273C287.596 81.572 287.525 81.889 287.384 82.1783C287.245 82.4645 287.039 82.6953 286.765 82.8707C286.494 83.0431 286.162 83.1293 285.768 83.1293C285.368 83.1293 285.031 83.0431 284.757 82.8707C284.483 82.6953 284.275 82.4645 284.134 82.1783C283.992 81.889 283.921 81.572 283.921 81.2273ZM284.863 80.7287V81.2273C284.863 81.5135 284.931 81.7705 285.066 81.9982C285.202 82.2229 285.436 82.3352 285.768 82.3352C286.091 82.3352 286.319 82.2229 286.451 81.9982C286.587 81.7705 286.654 81.5135 286.654 81.2273V80.7287C286.654 80.4425 286.59 80.187 286.46 79.9624C286.331 79.7346 286.1 79.6207 285.768 79.6207C285.445 79.6207 285.212 79.7346 285.071 79.9624C284.932 80.187 284.863 80.4425 284.863 80.7287ZM279.213 75.8168V75.3182C279.213 74.9735 279.283 74.658 279.425 74.3718C279.57 74.0825 279.779 73.8517 280.053 73.6793C280.33 73.5039 280.665 73.4162 281.059 73.4162C281.459 73.4162 281.795 73.5039 282.066 73.6793C282.336 73.8517 282.541 74.0825 282.68 74.3718C282.818 74.658 282.887 74.9735 282.887 75.3182V75.8168C282.887 76.1615 282.816 76.4785 282.675 76.7678C282.536 77.054 282.33 77.2848 282.056 77.4602C281.785 77.6326 281.453 77.7188 281.059 77.7188C280.659 77.7188 280.322 77.6326 280.048 77.4602C279.774 77.2848 279.566 77.054 279.425 76.7678C279.283 76.4785 279.213 76.1615 279.213 75.8168ZM280.154 75.3182V75.8168C280.154 76.103 280.222 76.36 280.357 76.5877C280.493 76.8124 280.727 76.9247 281.059 76.9247C281.382 76.9247 281.61 76.8124 281.742 76.5877C281.878 76.36 281.945 76.103 281.945 75.8168V75.3182C281.945 75.032 281.881 74.7765 281.752 74.5518C281.622 74.3241 281.392 74.2102 281.059 74.2102C280.736 74.2102 280.504 74.3241 280.362 74.5518C280.224 74.7765 280.154 75.032 280.154 75.3182ZM279.563 83L286.063 73.5455H287.116L280.616 83H279.563Z" fill="#1C1C1E"/>
<path d="M275 98L288 111L275 124L262 111L275 98Z" fill="#D9D9D9"/>
<path d="M270.766 114.011V112.768L275.165 105.818H276.145V107.648H275.523L272.376 112.629V112.709H278.407V114.011H270.766ZM275.593 116V113.634L275.603 113.067V105.818H277.06V116H275.593Z" fill="#1C1C1E"/>
<path d="M260.56 134.141V132.818H268.44V134.141H265.263V143H263.732V134.141H260.56ZM272.171 143.154C271.455 143.154 270.83 142.99 270.297 142.662C269.763 142.334 269.349 141.875 269.054 141.285C268.759 140.695 268.611 140.005 268.611 139.217C268.611 138.424 268.759 137.732 269.054 137.138C269.349 136.545 269.763 136.085 270.297 135.756C270.83 135.428 271.455 135.264 272.171 135.264C272.887 135.264 273.512 135.428 274.045 135.756C274.579 136.085 274.993 136.545 275.288 137.138C275.583 137.732 275.731 138.424 275.731 139.217C275.731 140.005 275.583 140.695 275.288 141.285C274.993 141.875 274.579 142.334 274.045 142.662C273.512 142.99 272.887 143.154 272.171 143.154ZM272.176 141.906C272.64 141.906 273.024 141.784 273.329 141.538C273.634 141.293 273.86 140.967 274.006 140.559C274.155 140.151 274.229 139.702 274.229 139.212C274.229 138.724 274.155 138.277 274.006 137.869C273.86 137.458 273.634 137.129 273.329 136.88C273.024 136.631 272.64 136.507 272.176 136.507C271.709 136.507 271.321 136.631 271.013 136.88C270.708 137.129 270.481 137.458 270.331 137.869C270.186 138.277 270.113 138.724 270.113 139.212C270.113 139.702 270.186 140.151 270.331 140.559C270.481 140.967 270.708 141.293 271.013 141.538C271.321 141.784 271.709 141.906 272.176 141.906ZM280.955 135.364V136.557H276.783V135.364H280.955ZM277.902 133.534H279.388V140.758C279.388 141.046 279.432 141.263 279.518 141.409C279.604 141.552 279.715 141.649 279.851 141.702C279.99 141.752 280.141 141.777 280.303 141.777C280.423 141.777 280.527 141.769 280.616 141.752C280.706 141.736 280.776 141.722 280.825 141.712L281.094 142.94C281.008 142.973 280.885 143.007 280.726 143.04C280.567 143.076 280.368 143.096 280.129 143.099C279.738 143.106 279.374 143.036 279.036 142.891C278.697 142.745 278.424 142.519 278.215 142.214C278.006 141.91 277.902 141.527 277.902 141.066V133.534ZM284.821 143.169C284.337 143.169 283.9 143.08 283.509 142.901C283.118 142.718 282.808 142.455 282.579 142.11C282.354 141.765 282.241 141.343 282.241 140.842C282.241 140.411 282.324 140.057 282.49 139.778C282.655 139.5 282.879 139.28 283.161 139.117C283.442 138.955 283.757 138.832 284.105 138.749C284.453 138.666 284.808 138.603 285.169 138.56C285.627 138.507 285.998 138.464 286.283 138.431C286.568 138.395 286.775 138.337 286.904 138.257C287.034 138.178 287.098 138.048 287.098 137.869V137.835C287.098 137.4 286.976 137.064 286.73 136.825C286.488 136.587 286.127 136.467 285.646 136.467C285.146 136.467 284.752 136.578 284.463 136.8C284.178 137.019 283.981 137.263 283.872 137.531L282.475 137.213C282.64 136.749 282.882 136.375 283.2 136.089C283.522 135.801 283.892 135.592 284.309 135.463C284.727 135.33 285.166 135.264 285.627 135.264C285.932 135.264 286.255 135.301 286.596 135.374C286.941 135.443 287.262 135.572 287.561 135.761C287.862 135.95 288.109 136.22 288.301 136.572C288.494 136.92 288.59 137.372 288.59 137.929V143H287.138V141.956H287.078C286.982 142.148 286.838 142.337 286.646 142.523C286.454 142.708 286.207 142.862 285.905 142.985C285.603 143.108 285.242 143.169 284.821 143.169ZM285.144 141.976C285.555 141.976 285.907 141.895 286.198 141.732C286.493 141.57 286.717 141.358 286.869 141.096C287.025 140.831 287.103 140.547 287.103 140.246V139.261C287.05 139.314 286.947 139.364 286.795 139.411C286.646 139.454 286.475 139.492 286.283 139.525C286.091 139.555 285.903 139.583 285.721 139.609C285.539 139.633 285.386 139.652 285.264 139.669C284.975 139.705 284.712 139.767 284.473 139.853C284.238 139.939 284.049 140.063 283.906 140.226C283.767 140.385 283.698 140.597 283.698 140.862C283.698 141.23 283.834 141.509 284.105 141.697C284.377 141.883 284.723 141.976 285.144 141.976ZM292.056 132.818V143H290.57V132.818H292.056ZM265.077 152.493C265.024 152.022 264.805 151.658 264.421 151.399C264.036 151.137 263.553 151.006 262.969 151.006C262.552 151.006 262.19 151.073 261.885 151.205C261.58 151.335 261.343 151.513 261.174 151.742C261.009 151.968 260.926 152.224 260.926 152.513C260.926 152.755 260.982 152.964 261.095 153.139C261.211 153.315 261.362 153.462 261.547 153.582C261.736 153.698 261.938 153.795 262.154 153.875C262.369 153.951 262.576 154.014 262.775 154.064L263.77 154.322C264.094 154.402 264.428 154.51 264.769 154.646C265.11 154.781 265.427 154.96 265.718 155.183C266.01 155.405 266.245 155.68 266.424 156.008C266.607 156.336 266.698 156.729 266.698 157.186C266.698 157.763 266.549 158.275 266.25 158.722C265.955 159.17 265.526 159.523 264.963 159.781C264.403 160.04 263.725 160.169 262.929 160.169C262.167 160.169 261.508 160.048 260.951 159.806C260.394 159.564 259.958 159.221 259.643 158.777C259.328 158.33 259.154 157.799 259.121 157.186H260.662C260.692 157.554 260.812 157.861 261.02 158.106C261.232 158.348 261.503 158.528 261.831 158.648C262.162 158.764 262.525 158.822 262.919 158.822C263.354 158.822 263.74 158.754 264.078 158.618C264.419 158.479 264.688 158.286 264.883 158.041C265.079 157.793 265.177 157.503 265.177 157.171C265.177 156.87 265.09 156.623 264.918 156.43C264.749 156.238 264.519 156.079 264.227 155.953C263.939 155.827 263.612 155.716 263.248 155.62L262.044 155.292C261.229 155.07 260.583 154.743 260.106 154.312C259.632 153.882 259.395 153.312 259.395 152.602C259.395 152.016 259.554 151.504 259.872 151.066C260.19 150.629 260.621 150.289 261.165 150.047C261.708 149.802 262.321 149.679 263.004 149.679C263.693 149.679 264.302 149.8 264.829 150.042C265.359 150.284 265.776 150.617 266.081 151.041C266.386 151.462 266.545 151.946 266.559 152.493H265.077ZM270.637 160.169C270.153 160.169 269.715 160.08 269.324 159.901C268.933 159.718 268.623 159.455 268.394 159.11C268.169 158.765 268.056 158.343 268.056 157.842C268.056 157.411 268.139 157.057 268.305 156.778C268.471 156.5 268.694 156.28 268.976 156.117C269.258 155.955 269.573 155.832 269.921 155.749C270.269 155.666 270.623 155.603 270.985 155.56C271.442 155.507 271.813 155.464 272.098 155.431C272.383 155.395 272.59 155.337 272.72 155.257C272.849 155.178 272.914 155.048 272.914 154.869V154.835C272.914 154.4 272.791 154.064 272.546 153.825C272.304 153.587 271.943 153.467 271.462 153.467C270.961 153.467 270.567 153.578 270.279 153.8C269.994 154.019 269.796 154.263 269.687 154.531L268.29 154.213C268.456 153.749 268.698 153.375 269.016 153.089C269.337 152.801 269.707 152.592 270.125 152.463C270.542 152.33 270.981 152.264 271.442 152.264C271.747 152.264 272.07 152.301 272.411 152.374C272.756 152.443 273.078 152.572 273.376 152.761C273.678 152.95 273.925 153.22 274.117 153.572C274.309 153.92 274.405 154.372 274.405 154.929V160H272.953V158.956H272.894C272.798 159.148 272.653 159.337 272.461 159.523C272.269 159.708 272.022 159.862 271.72 159.985C271.419 160.108 271.058 160.169 270.637 160.169ZM270.96 158.976C271.371 158.976 271.722 158.895 272.014 158.732C272.309 158.57 272.532 158.358 272.685 158.096C272.841 157.831 272.919 157.547 272.919 157.246V156.261C272.866 156.314 272.763 156.364 272.61 156.411C272.461 156.454 272.291 156.492 272.098 156.525C271.906 156.555 271.719 156.583 271.536 156.609C271.354 156.633 271.202 156.652 271.079 156.669C270.791 156.705 270.527 156.767 270.289 156.853C270.053 156.939 269.864 157.063 269.722 157.226C269.583 157.385 269.513 157.597 269.513 157.862C269.513 158.23 269.649 158.509 269.921 158.697C270.193 158.883 270.539 158.976 270.96 158.976ZM277.872 149.818V160H276.385V149.818H277.872ZM283.163 160.154C282.41 160.154 281.762 159.993 281.219 159.672C280.678 159.347 280.261 158.891 279.966 158.305C279.674 157.715 279.528 157.024 279.528 156.232C279.528 155.449 279.674 154.76 279.966 154.163C280.261 153.567 280.672 153.101 281.199 152.766C281.729 152.432 282.349 152.264 283.058 152.264C283.489 152.264 283.907 152.335 284.311 152.478C284.715 152.621 285.078 152.844 285.4 153.149C285.721 153.454 285.975 153.85 286.16 154.337C286.346 154.821 286.439 155.41 286.439 156.102V156.629H280.369V155.516H284.982C284.982 155.125 284.903 154.778 284.744 154.477C284.584 154.172 284.361 153.931 284.072 153.756C283.787 153.58 283.453 153.492 283.068 153.492C282.65 153.492 282.286 153.595 281.974 153.8C281.666 154.003 281.427 154.268 281.258 154.596C281.093 154.921 281.01 155.274 281.01 155.655V156.525C281.01 157.035 281.099 157.469 281.278 157.827C281.461 158.185 281.714 158.459 282.039 158.648C282.364 158.833 282.743 158.926 283.177 158.926C283.459 158.926 283.716 158.886 283.948 158.807C284.18 158.724 284.381 158.601 284.55 158.439C284.719 158.277 284.848 158.076 284.937 157.837L286.344 158.091C286.232 158.505 286.03 158.868 285.738 159.18C285.449 159.488 285.087 159.728 284.649 159.901C284.215 160.07 283.719 160.154 283.163 160.154ZM293.81 154.228L292.463 154.467C292.407 154.294 292.317 154.13 292.195 153.974C292.075 153.819 291.913 153.691 291.707 153.592C291.502 153.492 291.245 153.442 290.937 153.442C290.516 153.442 290.165 153.537 289.883 153.726C289.601 153.911 289.46 154.152 289.46 154.447C289.46 154.702 289.555 154.907 289.744 155.063C289.933 155.219 290.238 155.347 290.658 155.446L291.872 155.724C292.574 155.887 293.098 156.137 293.443 156.475C293.787 156.813 293.96 157.252 293.96 157.793C293.96 158.25 293.827 158.658 293.562 159.016C293.3 159.37 292.934 159.649 292.463 159.851C291.996 160.053 291.454 160.154 290.837 160.154C289.982 160.154 289.285 159.972 288.744 159.607C288.204 159.239 287.873 158.717 287.75 158.041L289.187 157.822C289.276 158.197 289.46 158.48 289.739 158.673C290.017 158.862 290.38 158.956 290.828 158.956C291.315 158.956 291.704 158.855 291.996 158.653C292.287 158.447 292.433 158.197 292.433 157.902C292.433 157.663 292.344 157.463 292.165 157.3C291.989 157.138 291.719 157.015 291.354 156.933L290.062 156.649C289.349 156.487 288.822 156.228 288.481 155.874C288.143 155.519 287.974 155.07 287.974 154.526C287.974 154.076 288.1 153.681 288.352 153.343C288.604 153.005 288.952 152.741 289.396 152.553C289.84 152.36 290.349 152.264 290.922 152.264C291.747 152.264 292.397 152.443 292.871 152.801C293.345 153.156 293.658 153.631 293.81 154.228Z" fill="#1C1C1E"/>
<defs>
<clipPath id="clip0_265_7577">
<rect width="24" height="24" fill="white" transform="translate(57 11)"/>
</clipPath>
</defs>
</svg>
