<svg width="451" height="409" viewBox="0 0 451 409" fill="none" xmlns="http://www.w3.org/2000/svg">
<g filter="url(#filter0_i_5500_235)">
<path d="M67.0738 288.553V190.494C67.0738 233.128 102.596 246.629 120.357 248.05H143.8C172.786 239.523 184.295 211.811 186.426 199.021V171.309C183.016 133.79 146.643 124.411 128.883 124.411H41.4954C9.09909 124.411 1 151.413 1 164.913V301.343C18.0507 390.023 87.6759 409.35 120.357 407.929H344.145C424.284 402.813 447.16 331.898 448.581 297.08V164.913C457.106 127.395 425.136 122.279 408.086 124.411H314.307C280.205 124.411 264.576 155.676 261.023 171.309V199.021C269.549 231.423 300.098 245.208 314.307 248.05H337.751C375.263 241.229 386.062 206.837 386.772 190.494V297.08C381.657 339.714 342.014 347.53 322.832 346.109H120.357C76.0254 340.993 66.3633 305.606 67.0738 288.553Z" fill="#CCCCCC"/>
</g>
<path d="M67.0738 288.553V190.494C67.0738 233.128 102.596 246.629 120.357 248.05H143.8C172.786 239.523 184.295 211.811 186.426 199.021V171.309C183.016 133.79 146.643 124.411 128.883 124.411H41.4954C9.09909 124.411 1 151.413 1 164.913V301.343C18.0507 390.023 87.6759 409.35 120.357 407.929H344.145C424.284 402.813 447.16 331.898 448.581 297.08V164.913C457.106 127.395 425.136 122.279 408.086 124.411H314.307C280.205 124.411 264.576 155.676 261.023 171.309V199.021C269.549 231.423 300.098 245.208 314.307 248.05H337.751C375.263 241.229 386.062 206.837 386.772 190.494V297.08C381.657 339.714 342.014 347.53 322.832 346.109H120.357C76.0254 340.993 66.3633 305.606 67.0738 288.553Z" stroke="#CCCCCC"/>
<g filter="url(#filter1_i_5500_235)">
<path d="M179.164 7.54689C99.3288 31.261 75.1233 95.0632 73 124H136.699C150.288 90.1227 179.164 73.1841 191.904 68.9494C217.384 58.7862 246.402 64.7148 257.726 68.9494C290 77.4187 312.224 109.179 319.301 124H383C371.11 54.5516 308.685 17.4278 278.959 7.54689C241.589 -4.31016 196.858 2.60645 179.164 7.54689Z" fill="#CCCCCC"/>
</g>
<path d="M179.164 7.54689C99.3288 31.261 75.1233 95.0632 73 124H136.699C150.288 90.1227 179.164 73.1841 191.904 68.9494C217.384 58.7862 246.402 64.7148 257.726 68.9494C290 77.4187 312.224 109.179 319.301 124H383C371.11 54.5516 308.685 17.4278 278.959 7.54689C241.589 -4.31016 196.858 2.60645 179.164 7.54689Z" stroke="#CCCCCC"/>
<defs>
<filter id="filter0_i_5500_235" x="0.5" y="123.5" width="0" height="285" filterUnits="userSpaceOnUse" color-interpolation-filters="sRGB">
<feFlood flood-opacity="0" result="BackgroundImageFix"/>
<feBlend mode="normal" in="SourceGraphic" in2="BackgroundImageFix" result="shape"/>
<feColorMatrix in="SourceAlpha" type="matrix" values="0 0 0 0 0 0 0 0 0 0 0 0 0 0 0 0 0 0 127 0" result="hardAlpha"/>
<feOffset dy="-26"/>
<feComposite in2="hardAlpha" operator="arithmetic" k2="-1" k3="1"/>
<feColorMatrix type="matrix" values="0 0 0 0 0.506173 0 0 0 0 0.683333 0 0 0 0 0.0455556 0 0 0 1 0"/>
<feBlend mode="normal" in2="shape" result="effect1_innerShadow_5500_235"/>
</filter>
<filter id="filter1_i_5500_235" x="72.4629" y="-3.5" width="1.131" height="128" filterUnits="userSpaceOnUse" color-interpolation-filters="sRGB">
<feFlood flood-opacity="0" result="BackgroundImageFix"/>
<feBlend mode="normal" in="SourceGraphic" in2="BackgroundImageFix" result="shape"/>
<feColorMatrix in="SourceAlpha" type="matrix" values="0 0 0 0 0 0 0 0 0 0 0 0 0 0 0 0 0 0 127 0" result="hardAlpha"/>
<feOffset dy="-20"/>
<feGaussianBlur stdDeviation="2"/>
<feComposite in2="hardAlpha" operator="arithmetic" k2="-1" k3="1"/>
<feColorMatrix type="matrix" values="0 0 0 0 0 0 0 0 0 0 0 0 0 0 0 0 0 0 0.25 0"/>
<feBlend mode="normal" in2="shape" result="effect1_innerShadow_5500_235"/>
</filter>
</defs>
</svg>
