<svg width="26" height="26" viewBox="0 0 26 26" fill="none" xmlns="http://www.w3.org/2000/svg">
<path d="M4.87867 3.71423C4.07829 3.71423 3.31069 4.03219 2.74473 4.59814C2.17877 5.1641 1.86082 5.9317 1.86082 6.73209V12.8189C2.98328 11.7412 4.47965 11.1405 6.03567 11.1428C7.17482 11.1409 8.29102 11.463 9.2541 12.0714H18.8035C18.9882 12.0714 19.1654 12.1447 19.296 12.2754C19.4266 12.406 19.5 12.5831 19.5 12.7678C19.5 12.9525 19.4266 13.1296 19.296 13.2603C19.1654 13.3909 18.9882 13.4642 18.8035 13.4642H10.7937C11.3291 14.1483 11.7099 14.9403 11.9098 15.7857H16.9464C17.1311 15.7857 17.3082 15.859 17.4388 15.9896C17.5694 16.1202 17.6428 16.2974 17.6428 16.4821C17.6428 16.6668 17.5694 16.8439 17.4388 16.9745C17.3082 17.1051 17.1311 17.1785 16.9464 17.1785H12.0714C12.0731 18.2163 11.806 19.2368 11.296 20.1407L13.441 22.2857H21.1259C21.9263 22.2857 22.6939 21.9677 23.2598 21.4018C23.8258 20.8358 24.1437 20.0682 24.1437 19.2678V6.73209C24.1437 5.9317 23.8258 5.1641 23.2598 4.59814C22.6939 4.03219 21.9263 3.71423 21.1259 3.71423H4.87867ZM6.49996 9.05352C6.49996 8.86881 6.57333 8.69168 6.70394 8.56107C6.83455 8.43046 7.01168 8.35709 7.19639 8.35709H14.1607C14.3454 8.35709 14.5225 8.43046 14.6531 8.56107C14.7837 8.69168 14.8571 8.86881 14.8571 9.05352C14.8571 9.23822 14.7837 9.41536 14.6531 9.54597C14.5225 9.67657 14.3454 9.74995 14.1607 9.74995H7.19639C7.01168 9.74995 6.83455 9.67657 6.70394 9.54597C6.57333 9.41536 6.49996 9.23822 6.49996 9.05352ZM10.1056 20.2642C10.8874 19.2329 11.2486 17.9433 11.1162 16.656C10.9837 15.3687 10.3675 14.1796 9.39207 13.3292C8.41663 12.4787 7.15471 12.0303 5.86135 12.0745C4.56799 12.1188 3.33964 12.6523 2.42456 13.5674C1.50948 14.4825 0.975915 15.7108 0.931696 17.0042C0.887477 18.2976 1.3359 19.5595 2.18635 20.5349C3.03679 21.5104 4.22583 22.1266 5.51315 22.259C6.80047 22.3915 8.09007 22.0303 9.12132 21.2484L11.8114 23.9385C11.8751 24.0069 11.952 24.0618 12.0375 24.0999C12.1229 24.138 12.2151 24.1584 12.3086 24.1601C12.4021 24.1617 12.495 24.1445 12.5817 24.1095C12.6684 24.0745 12.7472 24.0223 12.8134 23.9562C12.8795 23.8901 12.9316 23.8113 12.9666 23.7246C13.0017 23.6379 13.0189 23.545 13.0172 23.4515C13.0156 23.358 12.9951 23.2657 12.957 23.1803C12.919 23.0949 12.8641 23.018 12.7957 22.9542L10.1056 20.2642ZM9.74996 17.1785C9.74996 18.1636 9.35863 19.1084 8.66207 19.8049C7.96551 20.5015 7.02076 20.8928 6.03567 20.8928C5.05058 20.8928 4.10584 20.5015 3.40928 19.8049C2.71271 19.1084 2.32139 18.1636 2.32139 17.1785C2.32139 16.1934 2.71271 15.2487 3.40928 14.5521C4.10584 13.8556 5.05058 13.4642 6.03567 13.4642C7.02076 13.4642 7.96551 13.8556 8.66207 14.5521C9.35863 15.2487 9.74996 16.1934 9.74996 17.1785Z" fill="#1C1C1E"/>
</svg>
