<svg xmlns="http://www.w3.org/2000/svg" width="113.431" height="113" viewBox="0 0 113.431 113">
  <g id="Group_1992" transform="translate(-53.67 -99)">
    <path id="path7" d="M13.4,3a.915.915,0,0,0-.915.915V6.659H9.744A2.748,2.748,0,0,0,7,9.4v38.42a2.748,2.748,0,0,0,2.744,2.744H39.017a2.748,2.748,0,0,0,2.744-2.744V9.4a2.748,2.748,0,0,0-2.744-2.744H36.272V3.915a.915.915,0,0,0-1.83,0V6.659H30.784V3.915a.915.915,0,1,0-1.83,0V6.659H25.3V3.915a.915.915,0,1,0-1.83,0V6.659H19.807V3.915a.915.915,0,1,0-1.83,0V6.659H14.318V3.915A.915.915,0,0,0,13.4,3ZM9.744,8.489h2.744V9.4a.915.915,0,1,0,1.83,0V8.489h3.659V9.4a.915.915,0,1,0,1.83,0V8.489h3.659V9.4a.915.915,0,1,0,1.83,0V8.489h3.659V9.4a.915.915,0,1,0,1.83,0V8.489h3.659V9.4a.915.915,0,0,0,1.83,0V8.489h2.744a.916.916,0,0,1,.915.915v2.63H8.83V9.4A.916.916,0,0,1,9.744,8.489ZM8.83,13.863h31.1V47.823a.916.916,0,0,1-.915.915H9.744a.916.916,0,0,1-.915-.915Zm8.233,3.773a.915.915,0,1,0,0,1.83H31.7a.915.915,0,0,0,0-1.83ZM13.4,23.068a.915.915,0,1,0,0,1.83h3.659a.915.915,0,0,0,0-1.83Zm0,3.659a.915.915,0,1,0,0,1.83H26.21a.915.915,0,0,0,0-1.83Zm0,3.659a.915.915,0,1,0,0,1.83h5.489a.915.915,0,1,0,0-1.83Zm0,3.659a.915.915,0,1,0,0,1.83H26.21a.915.915,0,0,0,0-1.83Z" transform="translate(86.92 128.716)" fill="#fa862d"/>
  </g>
</svg>
