<svg width="17" height="17" viewBox="0 0 17 17" fill="none" xmlns="http://www.w3.org/2000/svg">
<path d="M14.875 14.875L11.6974 11.6918M13.4583 7.43752C13.4583 9.03435 12.824 10.5658 11.6948 11.6949C10.5657 12.824 9.03428 13.4584 7.43746 13.4584C5.84064 13.4584 4.30921 12.824 3.18009 11.6949C2.05096 10.5658 1.41663 9.03435 1.41663 7.43752C1.41663 5.8407 2.05096 4.30927 3.18009 3.18015C4.30921 2.05102 5.84064 1.41669 7.43746 1.41669C9.03428 1.41669 10.5657 2.05102 11.6948 3.18015C12.824 4.30927 13.4583 5.8407 13.4583 7.43752Z" stroke="#1C1C1E" stroke-opacity="0.7" stroke-width="2" stroke-linecap="round"/>
<path d="M10.7286 6.29126L7.26163 8.2279L4.66925 6.30141" stroke="#1C1C1E" stroke-opacity="0.7" stroke-width="1.5" stroke-linecap="round" stroke-linejoin="round"/>
</svg>
