<svg xmlns="http://www.w3.org/2000/svg" width="113" height="113" viewBox="0 0 113 113">
  <g id="Group_1992" transform="translate(-54 -99)">
    <g id="Group_2007" transform="translate(81.171 126.171)">
      <path id="Path_213" d="M8,36.68A23.12,23.12,0,1,0,31.12,13.56,23.12,23.12,0,0,0,8,36.68Zm24.084-21.17A21.109,21.109,0,0,1,45.4,21.037l-1.339,1.339,1.362,1.362L46.764,22.4A21.109,21.109,0,0,1,52.29,35.717h-1.9v1.927h1.9a21.109,21.109,0,0,1-5.526,13.318l-1.339-1.339-1.362,1.362L45.4,52.324A21.109,21.109,0,0,1,32.084,57.85v-1.9H30.157v1.9a21.109,21.109,0,0,1-13.318-5.526l1.339-1.339-1.362-1.362-1.339,1.339A21.109,21.109,0,0,1,9.951,37.644h1.9V35.717h-1.9A21.109,21.109,0,0,1,15.477,22.4l1.339,1.339,1.362-1.362-1.339-1.339a21.109,21.109,0,0,1,13.318-5.526v1.9h1.927ZM52.314,2a7.44,7.44,0,0,0-2.689.488.963.963,0,0,0-.2,1.69,6.732,6.732,0,0,1,0,11.057.963.963,0,0,0,.2,1.69,7.44,7.44,0,0,0,2.688.488A7.707,7.707,0,0,0,52.314,2Zm0,13.487c-.1,0-.193,0-.28-.007a8.655,8.655,0,0,0,0-11.547c.092-.007.184-.007.28-.007a5.78,5.78,0,1,1,0,11.56ZM38.545,3.246,37.183,4.608l1.246,1.246h-17.9V7.78h17.9L37.183,9.026l1.362,1.362,2.89-2.89a.963.963,0,0,0,0-1.362Z" transform="translate(-2.22 -2)" fill="#8589f0"/>
      <rect id="Rectangle_491" width="3.121" height="1.56" rx="0.78" transform="translate(43.69 3.121)" fill="#8589f0"/>
      <rect id="Rectangle_492" width="1.56" height="3.121" rx="0.78" transform="translate(42.13 6.242)" fill="#8589f0"/>
      <rect id="Rectangle_493" width="1.56" height="1.56" rx="0.78" transform="translate(46.811 6.242)" fill="#8589f0"/>
      <path id="Path_214" d="M26.76,25.817a4.8,4.8,0,0,0,1.957,3.853h-.993a3.853,3.853,0,0,0-3.853,3.853v7.615l-3.407,2.168L21.5,44.933,31.62,38.492l13.954,7.442.907-1.7-7.2-3.839V33.524a3.853,3.853,0,0,0-3.853-3.853h-.993a4.809,4.809,0,1,0-7.677-3.853Zm8.67,5.78a1.927,1.927,0,0,1,1.927,1.927v5.845l-5.326-2.841a.963.963,0,0,0-.971.037L25.8,39.913v-6.39A1.927,1.927,0,0,1,27.724,31.6Zm-3.853-8.67a2.89,2.89,0,1,1-2.89,2.89A2.89,2.89,0,0,1,31.577,22.927Z" transform="translate(-2.677 -2.696)" fill="#8589f0"/>
      <path id="Path_215" d="M9.963,2l.963,1.927H9Z" transform="translate(-2.257 -2)" fill="#8589f0"/>
      <path id="Path_216" d="M10.927,16l-.963,1.927L9,16Z" transform="translate(-2.257 -2.513)" fill="#8589f0"/>
      <path id="Path_217" d="M17.927,9.963,16,10.927V9Z" transform="translate(-2.513 -2.256)" fill="#8589f0"/>
      <path id="Path_218" d="M3.927,10.927,2,9.963,3.927,9Z" transform="translate(-2 -2.256)" fill="#8589f0"/>
      <path id="Path_219" d="M15.579,4.343,14.9,6.386,13.536,5.024Z" transform="translate(-2.423 -2.086)" fill="#8589f0"/>
      <path id="Path_220" d="M6.386,14.9l-2.043.681.681-2.043Z" transform="translate(-2.086 -2.423)" fill="#8589f0"/>
      <path id="Path_221" d="M15.579,15.579,13.536,14.9,14.9,13.536Z" transform="translate(-2.423 -2.423)" fill="#8589f0"/>
      <path id="Path_222" d="M5.024,6.386,4.343,4.343l2.043.681Z" transform="translate(-2.086 -2.086)" fill="#8589f0"/>
      <circle id="Ellipse_113" cx="3.372" cy="3.372" r="3.372" transform="translate(4.335 4.335)" fill="none" stroke="#8589f0" stroke-linejoin="round" stroke-width="2"/>
    </g>
  </g>
</svg>
