<svg width="30" height="30" viewBox="0 0 30 30" fill="none" xmlns="http://www.w3.org/2000/svg">
<g clip-path="url(#clip0_428_1250)">
<path d="M11.25 18.75V17.5H12.5V18.75H11.25Z" fill="#1C1C1E"/>
<path fill-rule="evenodd" clip-rule="evenodd" d="M22.5 2.5C23.163 2.5 23.7989 2.76339 24.2678 3.23223C24.7366 3.70107 25 4.33696 25 5V25C25 25.663 24.7366 26.2989 24.2678 26.7678C23.7989 27.2366 23.163 27.5 22.5 27.5H7.5C6.83696 27.5 6.20107 27.2366 5.73223 26.7678C5.26339 26.2989 5 25.663 5 25V5C5 4.33696 5.26339 3.70107 5.73223 3.23223C6.20107 2.76339 6.83696 2.5 7.5 2.5H22.5ZM13.125 15H10.625C10.1277 15 9.65081 15.1975 9.29917 15.5492C8.94754 15.9008 8.75 16.3777 8.75 16.875V19.375C8.75 19.8723 8.94754 20.3492 9.29917 20.7008C9.65081 21.0525 10.1277 21.25 10.625 21.25H13.125C13.6223 21.25 14.0992 21.0525 14.4508 20.7008C14.8025 20.3492 15 19.8723 15 19.375V16.875C15 16.3777 14.8025 15.9008 14.4508 15.5492C14.0992 15.1975 13.6223 15 13.125 15ZM20 16.875H17.5C17.1814 16.8754 16.875 16.9973 16.6433 17.2161C16.4116 17.4348 16.2722 17.7337 16.2535 18.0517C16.2349 18.3698 16.3383 18.683 16.5428 18.9273C16.7473 19.1716 17.0374 19.3286 17.3538 19.3662L17.5 19.375H20C20.3186 19.3746 20.625 19.2527 20.8567 19.0339C21.0884 18.8152 21.2278 18.5163 21.2465 18.1983C21.2651 17.8802 21.1617 17.567 20.9572 17.3227C20.7527 17.0784 20.4626 16.9214 20.1463 16.8837L20 16.875ZM12.6675 8.45375L10.9 10.2213L10.4575 9.77875C10.3422 9.65936 10.2043 9.56413 10.0518 9.49862C9.89925 9.43311 9.73523 9.39863 9.56925 9.39719C9.40328 9.39574 9.23868 9.42737 9.08506 9.49022C8.93144 9.55307 8.79187 9.64589 8.67451 9.76326C8.55714 9.88062 8.46432 10.0202 8.40147 10.1738C8.33862 10.3274 8.30699 10.492 8.30844 10.658C8.30988 10.824 8.34436 10.988 8.40987 11.1405C8.47538 11.293 8.57061 11.4309 8.69 11.5463L9.795 12.6513C9.9401 12.7964 10.1124 12.9115 10.302 12.9901C10.4916 13.0686 10.6948 13.109 10.9 13.109C11.1052 13.109 11.3084 13.0686 11.498 12.9901C11.6876 12.9115 11.8599 12.7964 12.005 12.6513L14.435 10.2213C14.6627 9.9855 14.7887 9.66974 14.7858 9.342C14.783 9.01425 14.6515 8.70074 14.4198 8.46898C14.188 8.23722 13.8745 8.10576 13.5468 8.10291C13.219 8.10006 12.9033 8.22605 12.6675 8.45375ZM20 10H17.5C17.1814 10.0004 16.875 10.1223 16.6433 10.3411C16.4116 10.5598 16.2722 10.8587 16.2535 11.1767C16.2349 11.4948 16.3383 11.808 16.5428 12.0523C16.7473 12.2966 17.0374 12.4536 17.3538 12.4913L17.5 12.5H20C20.3186 12.4996 20.625 12.3777 20.8567 12.1589C21.0884 11.9402 21.2278 11.6413 21.2465 11.3233C21.2651 11.0052 21.1617 10.692 20.9572 10.4477C20.7527 10.2034 20.4626 10.0464 20.1463 10.0087L20 10Z" fill="#1C1C1E"/>
</g>
<defs>
<clipPath id="clip0_428_1250">
<rect width="30" height="30" fill="white"/>
</clipPath>
</defs>
</svg>
