<svg width="27" height="27" viewBox="0 0 27 27" fill="none" xmlns="http://www.w3.org/2000/svg">
<path d="M23.625 2.53125L21.9375 1.6875L20.25 2.53125L18.5625 1.6875L16.875 2.53125L15.1875 1.6875L13.5 2.53125L11.8125 1.6875L10.125 2.53125L7.59375 1.6875V15.1901H19.4062V22.3594C19.4062 23.9904 21.1502 25.3125 22.7812 25.3125H23.4141C25.0451 25.3125 26.1562 23.9904 26.1562 22.3594V1.6875L23.625 2.53125ZM14.3701 12.6562L14.3438 10.9688H22.7549L22.7812 12.6562H14.3701ZM10.9951 8.4375L10.9688 6.75H22.7549L22.7812 8.4375H10.9951Z" fill="#1C1C1E"/>
<path d="M17.7188 22.3594V16.875H0.84375V18.5625C0.84375 21.2282 1.14855 22.3393 1.60629 23.1836C2.38307 24.6164 3.78949 25.3125 5.90625 25.3125H19.4062C19.4062 25.3125 17.7188 24.2578 17.7188 22.3594Z" fill="#1C1C1E"/>
</svg>
