<svg xmlns="http://www.w3.org/2000/svg" width="113" height="113"
    viewBox="0 0 113 113">
  <g id="Group_2010" transform="translate(-49.34 -98)">
    <g id="Group_1992" transform="translate(49.34 98)">
    </g>
    <g id="Group_2006" transform="translate(87.535 136.196)">
      <path id="Path_209" d="M10.479,15.277H14.17l1.718,30.268a1.19,1.19,0,0,0,1.187,1.122H39.6a1.19,1.19,0,0,0,1.187-1.123l1.691-30.267h3.693a1.19,1.19,0,1,0,0-2.38H41.723a1.22,1.22,0,0,0-.186.037,1.2,1.2,0,0,0-.182-.037H35.113V9.784a1.19,1.19,0,0,0-1.19-1.19h-11.2a1.19,1.19,0,0,0-1.19,1.19V12.9H15.294a1.186,1.186,0,0,0-.157.032,1.038,1.038,0,0,0-.161-.032h-4.5a1.19,1.19,0,0,0,0,2.38Zm13.439-4.3h8.815V12.9H23.918Zm16.179,4.3L38.477,44.289H18.2L16.553,15.277H40.1Z" transform="translate(-9.29 -8.594)" fill="#f1622c"/>
      <path id="Path_210" d="M20.726,40.617H20.8a1.189,1.189,0,0,0,1.12-1.255L20.663,17.307a1.2,1.2,0,0,0-1.255-1.121,1.189,1.189,0,0,0-1.12,1.255L19.54,39.5A1.19,1.19,0,0,0,20.726,40.617Z" transform="translate(-7.582 -7.153)" fill="#f1622c"/>
      <path id="Path_211" d="M30.326,40.616h.069A1.19,1.19,0,0,0,31.581,39.5l1.252-22.054a1.19,1.19,0,0,0-1.12-1.255,1.2,1.2,0,0,0-1.255,1.121L29.206,39.361A1.19,1.19,0,0,0,30.326,40.616Z" transform="translate(-5.509 -7.153)" fill="#f1622c"/>
      <path id="Path_212" d="M25.479,40.617a1.19,1.19,0,0,0,1.19-1.19V17.374a1.19,1.19,0,1,0-2.38,0V39.427A1.19,1.19,0,0,0,25.479,40.617Z" transform="translate(-6.442 -7.153)" fill="#f1622c"/>
    </g>
  </g>
</svg>
